{
	"asset":{
		"generator":"Khronos glTF Blender I/O v5.1.18",
		"version":"2.0"
	},
	"scene":0,
	"scenes":[
		{
			"name":"Scene",
			"nodes":[
				0,
				1,
				2
			]
		}
	],
	"nodes":[
		{
			"mesh":0,
			"name":"Plane",
			"scale":[
				1,
				1,
				2.99025297164917
			]
		},
		{
			"mesh":1,
			"name":"Plane.001",
			"translation":[
				0,
				1.1414191722869873,
				0
			]
		},
		{
			"mesh":2,
			"name":"Icosphere",
			"scale":[
				0.11553862690925598,
				0.11553862690925598,
				0.11553862690925598
			],
			"translation":[
				0,
				1.1300709247589111,
				0
			]
		}
	],
	"animations":[
		{
			"channels":[
				{
					"sampler":0,
					"target":{
						"node":2,
						"path":"translation"
					}
				},
				{
					"sampler":1,
					"target":{
						"node":2,
						"path":"scale"
					}
				}
			],
			"name":"IcosphereAction",
			"samplers":[
				{
					"input":12,
					"interpolation":"LINEAR",
					"output":13
				},
				{
					"input":12,
					"interpolation":"LINEAR",
					"output":14
				}
			]
		}
	],
	"meshes":[
		{
			"name":"Plane",
			"primitives":[
				{
					"attributes":{
						"POSITION":0,
						"NORMAL":1,
						"TEXCOORD_0":2
					},
					"indices":3
				}
			]
		},
		{
			"name":"Plane.001",
			"primitives":[
				{
					"attributes":{
						"POSITION":4,
						"NORMAL":5,
						"TEXCOORD_0":6
					},
					"indices":7
				}
			]
		},
		{
			"name":"Icosphere",
			"primitives":[
				{
					"attributes":{
						"POSITION":8,
						"NORMAL":9,
						"TEXCOORD_0":10
					},
					"indices":11
				}
			]
		}
	],
	"accessors":[
		{
			"bufferView":0,
			"componentType":5126,
			"count":3552,
			"max":[
				1.135338544845581,
				2.4281463623046875,
				1
			],
			"min":[
				-1.135338544845581,
				-0.1223125159740448,
				0.07779267430305481
			],
			"type":"VEC3"
		},
		{
			"bufferView":1,
			"componentType":5126,
			"count":3552,
			"type":"VEC3"
		},
		{
			"bufferView":2,
			"componentType":5126,
			"count":3552,
			"type":"VEC2"
		},
		{
			"bufferView":3,
			"componentType":5123,
			"count":6708,
			"type":"SCALAR"
		},
		{
			"bufferView":4,
			"componentType":5126,
			"count":3976,
			"max":[
				1.987403392791748,
				1.9033015966415405,
				0.2371000349521637
			],
			"min":[
				-1.987403392791748,
				-1.9033015966415405,
				-0.2371000349521637
			],
			"type":"VEC3"
		},
		{
			"bufferView":5,
			"componentType":5126,
			"count":3976,
			"type":"VEC3"
		},
		{
			"bufferView":6,
			"componentType":5126,
			"count":3976,
			"type":"VEC2"
		},
		{
			"bufferView":7,
			"componentType":5123,
			"count":7608,
			"type":"SCALAR"
		},
		{
			"bufferView":8,
			"componentType":5126,
			"count":60,
			"max":[
				0.8944249749183655,
				1,
				0.8506399989128113
			],
			"min":[
				-0.8944249749183655,
				-1,
				-0.8506399989128113
			],
			"type":"VEC3"
		},
		{
			"bufferView":9,
			"componentType":5126,
			"count":60,
			"type":"VEC3"
		},
		{
			"bufferView":10,
			"componentType":5126,
			"count":60,
			"type":"VEC2"
		},
		{
			"bufferView":11,
			"componentType":5123,
			"count":60,
			"type":"SCALAR"
		},
		{
			"bufferView":12,
			"componentType":5126,
			"count":1,
			"max":[
				0.041666666666666664
			],
			"min":[
				0.041666666666666664
			],
			"type":"SCALAR"
		},
		{
			"bufferView":13,
			"componentType":5126,
			"count":1,
			"type":"VEC3"
		},
		{
			"bufferView":14,
			"componentType":5126,
			"count":1,
			"type":"VEC3"
		}
	],
	"bufferViews":[
		{
			"buffer":0,
			"byteLength":42624,
			"byteOffset":0,
			"target":34962
		},
		{
			"buffer":0,
			"byteLength":42624,
			"byteOffset":42624,
			"target":34962
		},
		{
			"buffer":0,
			"byteLength":28416,
			"byteOffset":85248,
			"target":34962
		},
		{
			"buffer":0,
			"byteLength":13416,
			"byteOffset":113664,
			"target":34963
		},
		{
			"buffer":0,
			"byteLength":47712,
			"byteOffset":127080,
			"target":34962
		},
		{
			"buffer":0,
			"byteLength":47712,
			"byteOffset":174792,
			"target":34962
		},
		{
			"buffer":0,
			"byteLength":31808,
			"byteOffset":222504,
			"target":34962
		},
		{
			"buffer":0,
			"byteLength":15216,
			"byteOffset":254312,
			"target":34963
		},
		{
			"buffer":0,
			"byteLength":720,
			"byteOffset":269528,
			"target":34962
		},
		{
			"buffer":0,
			"byteLength":720,
			"byteOffset":270248,
			"target":34962
		},
		{
			"buffer":0,
			"byteLength":480,
			"byteOffset":270968,
			"target":34962
		},
		{
			"buffer":0,
			"byteLength":120,
			"byteOffset":271448,
			"target":34963
		},
		{
			"buffer":0,
			"byteLength":4,
			"byteOffset":271568
		},
		{
			"buffer":0,
			"byteLength":12,
			"byteOffset":271572
		},
		{
			"buffer":0,
			"byteLength":12,
			"byteOffset":271584
		}
	],
	"buffers":[
		{
			"byteLength":271596,
			"uri":"CORRIDORshort.bin"
		}
	]
}
