{
	"asset":{
		"generator":"Khronos glTF Blender I/O v5.1.18",
		"version":"2.0"
	},
	"scene":0,
	"scenes":[
		{
			"name":"Scene",
			"nodes":[
				13,
				27
			]
		}
	],
	"nodes":[
		{
			"mesh":0,
			"name":"body_mat_a_0.001"
		},
		{
			"mesh":1,
			"name":"body_mat_b_0.001"
		},
		{
			"children":[
				0,
				1
			],
			"name":"body.001",
			"rotation":[
				-0.7071069478988647,
				0,
				0,
				0.7071066498756409
			],
			"scale":[
				100,
				100.00000762939453,
				100.00000762939453
			],
			"translation":[
				-9.581071935826913e-06,
				0,
				-5.924628567299806e-06
			]
		},
		{
			"mesh":2,
			"name":"door_2_mat_a_0.001"
		},
		{
			"children":[
				3
			],
			"name":"door_2.001",
			"rotation":[
				-0.7071069478988647,
				0,
				0,
				0.7071066498756409
			],
			"scale":[
				100,
				100.00000762939453,
				100.00000762939453
			],
			"translation":[
				88.50761413574219,
				48.41408920288086,
				34.36529541015625
			]
		},
		{
			"mesh":3,
			"name":"door_5_mat_a_0.001"
		},
		{
			"children":[
				5
			],
			"name":"door_5.001",
			"rotation":[
				-0.7071069478988647,
				0,
				0,
				0.7071066498756409
			],
			"scale":[
				100,
				100.00000762939453,
				100.00000762939453
			],
			"translation":[
				-88.50762176513672,
				48.41408920288086,
				34.36528778076172
			]
		},
		{
			"mesh":4,
			"name":"door_6_mat_a_0.001"
		},
		{
			"children":[
				7
			],
			"name":"door_6.001",
			"rotation":[
				-0.7071069478988647,
				0,
				0,
				0.7071066498756409
			],
			"scale":[
				100,
				100.00000762939453,
				100.00000762939453
			],
			"translation":[
				-44.98481369018555,
				48.41408920288086,
				34.36528778076172
			]
		},
		{
			"mesh":5,
			"name":"door_7_mat_a_0.001"
		},
		{
			"children":[
				9
			],
			"name":"door_7.001",
			"rotation":[
				-0.7071069478988647,
				0,
				0,
				0.7071066498756409
			],
			"scale":[
				100,
				100.00000762939453,
				100.00000762939453
			],
			"translation":[
				44.98477554321289,
				48.41408920288086,
				34.365291595458984
			]
		},
		{
			"children":[
				2,
				4,
				6,
				8,
				10
			],
			"name":"RootNode.005",
			"translation":[
				-9.581071935826913e-06,
				0,
				-5.924628567299806e-06
			]
		},
		{
			"children":[
				11
			],
			"name":"5131b5aefaef43899ae80d0b33f1c11d.fbx.001",
			"rotation":[
				0.70710688829422,
				0,
				0,
				0.7071066498756409
			],
			"scale":[
				0.009999999776482582,
				0.010000001639127731,
				0.010000001639127731
			]
		},
		{
			"children":[
				12
			],
			"name":"Skrina2",
			"rotation":[
				-0.5000000596046448,
				0.5,
				0.5,
				0.5
			],
			"scale":[
				1.7697334289550781,
				1.7697334289550781,
				1.7697334289550781
			],
			"translation":[
				-8.476518630981445,
				1.6276636123657227,
				3.462238073348999
			]
		},
		{
			"mesh":6,
			"name":"body_mat_a_0"
		},
		{
			"mesh":7,
			"name":"body_mat_b_0"
		},
		{
			"children":[
				14,
				15
			],
			"name":"body",
			"rotation":[
				-0.7071069478988647,
				0,
				0,
				0.7071066498756409
			],
			"scale":[
				100,
				100.00000762939453,
				100.00000762939453
			],
			"translation":[
				-9.581071935826913e-06,
				0,
				-8.55152484291466e-06
			]
		},
		{
			"mesh":8,
			"name":"door_2_mat_a_0"
		},
		{
			"children":[
				17
			],
			"name":"door_2",
			"rotation":[
				-0.7071069478988647,
				0,
				0,
				0.7071066498756409
			],
			"scale":[
				100,
				100.00000762939453,
				100.00000762939453
			],
			"translation":[
				88.50761413574219,
				48.41409683227539,
				34.365291595458984
			]
		},
		{
			"mesh":9,
			"name":"door_5_mat_a_0"
		},
		{
			"children":[
				19
			],
			"name":"door_5",
			"rotation":[
				-0.7071069478988647,
				0,
				0,
				0.7071066498756409
			],
			"scale":[
				100,
				100.00000762939453,
				100.00000762939453
			],
			"translation":[
				-88.50762176513672,
				48.41409683227539,
				34.36528396606445
			]
		},
		{
			"mesh":10,
			"name":"door_6_mat_a_0"
		},
		{
			"children":[
				21
			],
			"name":"door_6",
			"rotation":[
				-0.7071069478988647,
				0,
				0,
				0.7071066498756409
			],
			"scale":[
				100,
				100.00000762939453,
				100.00000762939453
			],
			"translation":[
				-44.98481369018555,
				48.41409683227539,
				34.36528778076172
			]
		},
		{
			"mesh":11,
			"name":"door_7_mat_a_0"
		},
		{
			"children":[
				23
			],
			"name":"door_7",
			"rotation":[
				-0.7071069478988647,
				0,
				0,
				0.7071066498756409
			],
			"scale":[
				100,
				100.00000762939453,
				100.00000762939453
			],
			"translation":[
				44.98477554321289,
				48.41409683227539,
				34.365291595458984
			]
		},
		{
			"children":[
				16,
				18,
				20,
				22,
				24
			],
			"name":"RootNode.003",
			"translation":[
				-9.581071935826913e-06,
				0,
				-8.55152484291466e-06
			]
		},
		{
			"children":[
				25
			],
			"name":"5131b5aefaef43899ae80d0b33f1c11d.fbx",
			"rotation":[
				0.70710688829422,
				0,
				0,
				0.7071066498756409
			],
			"scale":[
				0.009999999776482582,
				0.010000001639127731,
				0.010000001639127731
			]
		},
		{
			"children":[
				26
			],
			"name":"Skrina1",
			"rotation":[
				-0.5000000596046448,
				0.5,
				0.5,
				0.5
			],
			"scale":[
				1.7697334289550781,
				1.7697334289550781,
				1.7697334289550781
			],
			"translation":[
				-8.476518630981445,
				0,
				3.462238073348999
			]
		}
	],
	"materials":[
		{
			"doubleSided":true,
			"name":"mat_a.002",
			"occlusionTexture":{
				"index":0
			},
			"pbrMetallicRoughness":{
				"baseColorTexture":{
					"index":1
				},
				"metallicRoughnessTexture":{
					"index":0
				}
			}
		},
		{
			"doubleSided":true,
			"name":"mat_b.002",
			"occlusionTexture":{
				"index":2
			},
			"pbrMetallicRoughness":{
				"baseColorTexture":{
					"index":3
				},
				"metallicRoughnessTexture":{
					"index":2
				}
			}
		},
		{
			"doubleSided":true,
			"name":"mat_a.001",
			"occlusionTexture":{
				"index":4
			},
			"pbrMetallicRoughness":{
				"baseColorTexture":{
					"index":5
				},
				"metallicRoughnessTexture":{
					"index":4
				}
			}
		},
		{
			"doubleSided":true,
			"name":"mat_b.001",
			"occlusionTexture":{
				"index":6
			},
			"pbrMetallicRoughness":{
				"baseColorTexture":{
					"index":7
				},
				"metallicRoughnessTexture":{
					"index":6
				}
			}
		}
	],
	"meshes":[
		{
			"name":"body_mat_a_0.002",
			"primitives":[
				{
					"attributes":{
						"POSITION":0,
						"NORMAL":1,
						"TEXCOORD_0":2,
						"TEXCOORD_1":3
					},
					"indices":4,
					"material":0
				}
			]
		},
		{
			"name":"body_mat_b_0.002",
			"primitives":[
				{
					"attributes":{
						"POSITION":5,
						"NORMAL":6,
						"TEXCOORD_0":7,
						"TEXCOORD_1":8
					},
					"indices":9,
					"material":1
				}
			]
		},
		{
			"name":"door_2_mat_a_0.002",
			"primitives":[
				{
					"attributes":{
						"POSITION":10,
						"NORMAL":11,
						"TEXCOORD_0":12,
						"TEXCOORD_1":13
					},
					"indices":14,
					"material":0
				}
			]
		},
		{
			"name":"door_5_mat_a_0.002",
			"primitives":[
				{
					"attributes":{
						"POSITION":15,
						"NORMAL":16,
						"TEXCOORD_0":17,
						"TEXCOORD_1":18
					},
					"indices":19,
					"material":0
				}
			]
		},
		{
			"name":"door_6_mat_a_0.002",
			"primitives":[
				{
					"attributes":{
						"POSITION":20,
						"NORMAL":21,
						"TEXCOORD_0":22,
						"TEXCOORD_1":23
					},
					"indices":24,
					"material":0
				}
			]
		},
		{
			"name":"door_7_mat_a_0.002",
			"primitives":[
				{
					"attributes":{
						"POSITION":25,
						"NORMAL":26,
						"TEXCOORD_0":27,
						"TEXCOORD_1":28
					},
					"indices":29,
					"material":0
				}
			]
		},
		{
			"name":"body_mat_a_0.001",
			"primitives":[
				{
					"attributes":{
						"POSITION":30,
						"NORMAL":31,
						"TEXCOORD_0":32,
						"TEXCOORD_1":33
					},
					"indices":4,
					"material":2
				}
			]
		},
		{
			"name":"body_mat_b_0.001",
			"primitives":[
				{
					"attributes":{
						"POSITION":34,
						"NORMAL":35,
						"TEXCOORD_0":36,
						"TEXCOORD_1":37
					},
					"indices":9,
					"material":3
				}
			]
		},
		{
			"name":"door_2_mat_a_0.001",
			"primitives":[
				{
					"attributes":{
						"POSITION":38,
						"NORMAL":39,
						"TEXCOORD_0":40,
						"TEXCOORD_1":41
					},
					"indices":14,
					"material":2
				}
			]
		},
		{
			"name":"door_5_mat_a_0.001",
			"primitives":[
				{
					"attributes":{
						"POSITION":42,
						"NORMAL":43,
						"TEXCOORD_0":44,
						"TEXCOORD_1":45
					},
					"indices":19,
					"material":2
				}
			]
		},
		{
			"name":"door_6_mat_a_0.001",
			"primitives":[
				{
					"attributes":{
						"POSITION":46,
						"NORMAL":47,
						"TEXCOORD_0":48,
						"TEXCOORD_1":49
					},
					"indices":24,
					"material":2
				}
			]
		},
		{
			"name":"door_7_mat_a_0.001",
			"primitives":[
				{
					"attributes":{
						"POSITION":50,
						"NORMAL":51,
						"TEXCOORD_0":52,
						"TEXCOORD_1":53
					},
					"indices":29,
					"material":2
				}
			]
		}
	],
	"textures":[
		{
			"sampler":0,
			"source":0
		},
		{
			"sampler":0,
			"source":1
		},
		{
			"sampler":0,
			"source":2
		},
		{
			"sampler":0,
			"source":3
		},
		{
			"sampler":0,
			"source":0
		},
		{
			"sampler":0,
			"source":1
		},
		{
			"sampler":0,
			"source":2
		},
		{
			"sampler":0,
			"source":3
		}
	],
	"images":[
		{
			"mimeType":"image/png",
			"name":"mat_a_metallicRoughness",
			"uri":"mat_a_metallicRoughness.png"
		},
		{
			"mimeType":"image/jpeg",
			"name":"mat_a_baseColor",
			"uri":"mat_a_baseColor.jpg"
		},
		{
			"mimeType":"image/png",
			"name":"mat_b_metallicRoughness",
			"uri":"mat_b_metallicRoughness.png"
		},
		{
			"mimeType":"image/jpeg",
			"name":"mat_b_baseColor",
			"uri":"mat_b_baseColor.jpg"
		}
	],
	"accessors":[
		{
			"bufferView":0,
			"componentType":5126,
			"count":5809,
			"max":[
				1.0108802318572998,
				0.2763412296772003,
				0.9112752676010132
			],
			"min":[
				-1.0108802318572998,
				-0.37052351236343384,
				-0.0005844832048751414
			],
			"type":"VEC3"
		},
		{
			"bufferView":1,
			"componentType":5126,
			"count":5809,
			"type":"VEC3"
		},
		{
			"bufferView":2,
			"componentType":5126,
			"count":5809,
			"type":"VEC2"
		},
		{
			"bufferView":3,
			"componentType":5126,
			"count":5809,
			"type":"VEC2"
		},
		{
			"bufferView":4,
			"componentType":5123,
			"count":24420,
			"type":"SCALAR"
		},
		{
			"bufferView":5,
			"componentType":5126,
			"count":2328,
			"max":[
				0.959721565246582,
				0.2755543291568756,
				0.8809502124786377
			],
			"min":[
				-0.9644455313682556,
				-0.3383784890174866,
				0.08519431948661804
			],
			"type":"VEC3"
		},
		{
			"bufferView":6,
			"componentType":5126,
			"count":2328,
			"type":"VEC3"
		},
		{
			"bufferView":7,
			"componentType":5126,
			"count":2328,
			"type":"VEC2"
		},
		{
			"bufferView":8,
			"componentType":5126,
			"count":2328,
			"type":"VEC2"
		},
		{
			"bufferView":9,
			"componentType":5123,
			"count":8640,
			"type":"SCALAR"
		},
		{
			"bufferView":10,
			"componentType":5126,
			"count":2488,
			"max":[
				0.003445863723754883,
				0.018722206354141235,
				0.34875255823135376
			],
			"min":[
				-0.38701480627059937,
				-0.04837951064109802,
				-0.3414469361305237
			],
			"type":"VEC3"
		},
		{
			"bufferView":11,
			"componentType":5126,
			"count":2488,
			"type":"VEC3"
		},
		{
			"bufferView":12,
			"componentType":5126,
			"count":2488,
			"type":"VEC2"
		},
		{
			"bufferView":13,
			"componentType":5126,
			"count":2488,
			"type":"VEC2"
		},
		{
			"bufferView":14,
			"componentType":5123,
			"count":11232,
			"type":"SCALAR"
		},
		{
			"bufferView":15,
			"componentType":5126,
			"count":2488,
			"max":[
				0.38701480627059937,
				0.018722206354141235,
				0.34875255823135376
			],
			"min":[
				-0.003445923328399658,
				-0.04837951064109802,
				-0.3414469361305237
			],
			"type":"VEC3"
		},
		{
			"bufferView":16,
			"componentType":5126,
			"count":2488,
			"type":"VEC3"
		},
		{
			"bufferView":17,
			"componentType":5126,
			"count":2488,
			"type":"VEC2"
		},
		{
			"bufferView":18,
			"componentType":5126,
			"count":2488,
			"type":"VEC2"
		},
		{
			"bufferView":19,
			"componentType":5123,
			"count":11232,
			"type":"SCALAR"
		},
		{
			"bufferView":20,
			"componentType":5126,
			"count":2488,
			"max":[
				0.41857409477233887,
				0.018722206354141235,
				0.34875255823135376
			],
			"min":[
				-0.0034458935260772705,
				-0.04837951064109802,
				-0.3414469361305237
			],
			"type":"VEC3"
		},
		{
			"bufferView":21,
			"componentType":5126,
			"count":2488,
			"type":"VEC3"
		},
		{
			"bufferView":22,
			"componentType":5126,
			"count":2488,
			"type":"VEC2"
		},
		{
			"bufferView":23,
			"componentType":5126,
			"count":2488,
			"type":"VEC2"
		},
		{
			"bufferView":24,
			"componentType":5123,
			"count":11232,
			"type":"SCALAR"
		},
		{
			"bufferView":25,
			"componentType":5126,
			"count":2488,
			"max":[
				0.003445863723754883,
				0.018722206354141235,
				0.34875255823135376
			],
			"min":[
				-0.41857409477233887,
				-0.04837954044342041,
				-0.3414469361305237
			],
			"type":"VEC3"
		},
		{
			"bufferView":26,
			"componentType":5126,
			"count":2488,
			"type":"VEC3"
		},
		{
			"bufferView":27,
			"componentType":5126,
			"count":2488,
			"type":"VEC2"
		},
		{
			"bufferView":28,
			"componentType":5126,
			"count":2488,
			"type":"VEC2"
		},
		{
			"bufferView":29,
			"componentType":5123,
			"count":11232,
			"type":"SCALAR"
		},
		{
			"bufferView":30,
			"componentType":5126,
			"count":5809,
			"max":[
				1.0108802318572998,
				0.2763412296772003,
				0.9112752676010132
			],
			"min":[
				-1.0108802318572998,
				-0.37052351236343384,
				-0.0005844832048751414
			],
			"type":"VEC3"
		},
		{
			"bufferView":31,
			"componentType":5126,
			"count":5809,
			"type":"VEC3"
		},
		{
			"bufferView":32,
			"componentType":5126,
			"count":5809,
			"type":"VEC2"
		},
		{
			"bufferView":33,
			"componentType":5126,
			"count":5809,
			"type":"VEC2"
		},
		{
			"bufferView":34,
			"componentType":5126,
			"count":2328,
			"max":[
				0.959721565246582,
				0.2755543291568756,
				0.8809502124786377
			],
			"min":[
				-0.9644455313682556,
				-0.3383784890174866,
				0.08519431948661804
			],
			"type":"VEC3"
		},
		{
			"bufferView":35,
			"componentType":5126,
			"count":2328,
			"type":"VEC3"
		},
		{
			"bufferView":36,
			"componentType":5126,
			"count":2328,
			"type":"VEC2"
		},
		{
			"bufferView":37,
			"componentType":5126,
			"count":2328,
			"type":"VEC2"
		},
		{
			"bufferView":38,
			"componentType":5126,
			"count":2488,
			"max":[
				0.003445863723754883,
				0.018722206354141235,
				0.34875255823135376
			],
			"min":[
				-0.38701480627059937,
				-0.04837951064109802,
				-0.3414469361305237
			],
			"type":"VEC3"
		},
		{
			"bufferView":39,
			"componentType":5126,
			"count":2488,
			"type":"VEC3"
		},
		{
			"bufferView":40,
			"componentType":5126,
			"count":2488,
			"type":"VEC2"
		},
		{
			"bufferView":41,
			"componentType":5126,
			"count":2488,
			"type":"VEC2"
		},
		{
			"bufferView":42,
			"componentType":5126,
			"count":2488,
			"max":[
				0.38701480627059937,
				0.018722206354141235,
				0.34875255823135376
			],
			"min":[
				-0.003445923328399658,
				-0.04837951064109802,
				-0.3414469361305237
			],
			"type":"VEC3"
		},
		{
			"bufferView":43,
			"componentType":5126,
			"count":2488,
			"type":"VEC3"
		},
		{
			"bufferView":44,
			"componentType":5126,
			"count":2488,
			"type":"VEC2"
		},
		{
			"bufferView":45,
			"componentType":5126,
			"count":2488,
			"type":"VEC2"
		},
		{
			"bufferView":46,
			"componentType":5126,
			"count":2488,
			"max":[
				0.41857409477233887,
				0.018722206354141235,
				0.34875255823135376
			],
			"min":[
				-0.0034458935260772705,
				-0.04837951064109802,
				-0.3414469361305237
			],
			"type":"VEC3"
		},
		{
			"bufferView":47,
			"componentType":5126,
			"count":2488,
			"type":"VEC3"
		},
		{
			"bufferView":48,
			"componentType":5126,
			"count":2488,
			"type":"VEC2"
		},
		{
			"bufferView":49,
			"componentType":5126,
			"count":2488,
			"type":"VEC2"
		},
		{
			"bufferView":50,
			"componentType":5126,
			"count":2488,
			"max":[
				0.003445863723754883,
				0.018722206354141235,
				0.34875255823135376
			],
			"min":[
				-0.41857409477233887,
				-0.04837954044342041,
				-0.3414469361305237
			],
			"type":"VEC3"
		},
		{
			"bufferView":51,
			"componentType":5126,
			"count":2488,
			"type":"VEC3"
		},
		{
			"bufferView":52,
			"componentType":5126,
			"count":2488,
			"type":"VEC2"
		},
		{
			"bufferView":53,
			"componentType":5126,
			"count":2488,
			"type":"VEC2"
		}
	],
	"bufferViews":[
		{
			"buffer":0,
			"byteLength":69708,
			"byteOffset":0,
			"target":34962
		},
		{
			"buffer":0,
			"byteLength":69708,
			"byteOffset":69708,
			"target":34962
		},
		{
			"buffer":0,
			"byteLength":46472,
			"byteOffset":139416,
			"target":34962
		},
		{
			"buffer":0,
			"byteLength":46472,
			"byteOffset":185888,
			"target":34962
		},
		{
			"buffer":0,
			"byteLength":48840,
			"byteOffset":232360,
			"target":34963
		},
		{
			"buffer":0,
			"byteLength":27936,
			"byteOffset":281200,
			"target":34962
		},
		{
			"buffer":0,
			"byteLength":27936,
			"byteOffset":309136,
			"target":34962
		},
		{
			"buffer":0,
			"byteLength":18624,
			"byteOffset":337072,
			"target":34962
		},
		{
			"buffer":0,
			"byteLength":18624,
			"byteOffset":355696,
			"target":34962
		},
		{
			"buffer":0,
			"byteLength":17280,
			"byteOffset":374320,
			"target":34963
		},
		{
			"buffer":0,
			"byteLength":29856,
			"byteOffset":391600,
			"target":34962
		},
		{
			"buffer":0,
			"byteLength":29856,
			"byteOffset":421456,
			"target":34962
		},
		{
			"buffer":0,
			"byteLength":19904,
			"byteOffset":451312,
			"target":34962
		},
		{
			"buffer":0,
			"byteLength":19904,
			"byteOffset":471216,
			"target":34962
		},
		{
			"buffer":0,
			"byteLength":22464,
			"byteOffset":491120,
			"target":34963
		},
		{
			"buffer":0,
			"byteLength":29856,
			"byteOffset":513584,
			"target":34962
		},
		{
			"buffer":0,
			"byteLength":29856,
			"byteOffset":543440,
			"target":34962
		},
		{
			"buffer":0,
			"byteLength":19904,
			"byteOffset":573296,
			"target":34962
		},
		{
			"buffer":0,
			"byteLength":19904,
			"byteOffset":593200,
			"target":34962
		},
		{
			"buffer":0,
			"byteLength":22464,
			"byteOffset":613104,
			"target":34963
		},
		{
			"buffer":0,
			"byteLength":29856,
			"byteOffset":635568,
			"target":34962
		},
		{
			"buffer":0,
			"byteLength":29856,
			"byteOffset":665424,
			"target":34962
		},
		{
			"buffer":0,
			"byteLength":19904,
			"byteOffset":695280,
			"target":34962
		},
		{
			"buffer":0,
			"byteLength":19904,
			"byteOffset":715184,
			"target":34962
		},
		{
			"buffer":0,
			"byteLength":22464,
			"byteOffset":735088,
			"target":34963
		},
		{
			"buffer":0,
			"byteLength":29856,
			"byteOffset":757552,
			"target":34962
		},
		{
			"buffer":0,
			"byteLength":29856,
			"byteOffset":787408,
			"target":34962
		},
		{
			"buffer":0,
			"byteLength":19904,
			"byteOffset":817264,
			"target":34962
		},
		{
			"buffer":0,
			"byteLength":19904,
			"byteOffset":837168,
			"target":34962
		},
		{
			"buffer":0,
			"byteLength":22464,
			"byteOffset":857072,
			"target":34963
		},
		{
			"buffer":0,
			"byteLength":69708,
			"byteOffset":879536,
			"target":34962
		},
		{
			"buffer":0,
			"byteLength":69708,
			"byteOffset":949244,
			"target":34962
		},
		{
			"buffer":0,
			"byteLength":46472,
			"byteOffset":1018952,
			"target":34962
		},
		{
			"buffer":0,
			"byteLength":46472,
			"byteOffset":1065424,
			"target":34962
		},
		{
			"buffer":0,
			"byteLength":27936,
			"byteOffset":1111896,
			"target":34962
		},
		{
			"buffer":0,
			"byteLength":27936,
			"byteOffset":1139832,
			"target":34962
		},
		{
			"buffer":0,
			"byteLength":18624,
			"byteOffset":1167768,
			"target":34962
		},
		{
			"buffer":0,
			"byteLength":18624,
			"byteOffset":1186392,
			"target":34962
		},
		{
			"buffer":0,
			"byteLength":29856,
			"byteOffset":1205016,
			"target":34962
		},
		{
			"buffer":0,
			"byteLength":29856,
			"byteOffset":1234872,
			"target":34962
		},
		{
			"buffer":0,
			"byteLength":19904,
			"byteOffset":1264728,
			"target":34962
		},
		{
			"buffer":0,
			"byteLength":19904,
			"byteOffset":1284632,
			"target":34962
		},
		{
			"buffer":0,
			"byteLength":29856,
			"byteOffset":1304536,
			"target":34962
		},
		{
			"buffer":0,
			"byteLength":29856,
			"byteOffset":1334392,
			"target":34962
		},
		{
			"buffer":0,
			"byteLength":19904,
			"byteOffset":1364248,
			"target":34962
		},
		{
			"buffer":0,
			"byteLength":19904,
			"byteOffset":1384152,
			"target":34962
		},
		{
			"buffer":0,
			"byteLength":29856,
			"byteOffset":1404056,
			"target":34962
		},
		{
			"buffer":0,
			"byteLength":29856,
			"byteOffset":1433912,
			"target":34962
		},
		{
			"buffer":0,
			"byteLength":19904,
			"byteOffset":1463768,
			"target":34962
		},
		{
			"buffer":0,
			"byteLength":19904,
			"byteOffset":1483672,
			"target":34962
		},
		{
			"buffer":0,
			"byteLength":29856,
			"byteOffset":1503576,
			"target":34962
		},
		{
			"buffer":0,
			"byteLength":29856,
			"byteOffset":1533432,
			"target":34962
		},
		{
			"buffer":0,
			"byteLength":19904,
			"byteOffset":1563288,
			"target":34962
		},
		{
			"buffer":0,
			"byteLength":19904,
			"byteOffset":1583192,
			"target":34962
		}
	],
	"samplers":[
		{
			"magFilter":9729,
			"minFilter":9987
		}
	],
	"buffers":[
		{
			"byteLength":1603096,
			"uri":"BROKEN.bin"
		}
	]
}
