{
	"asset":{
		"generator":"Khronos glTF Blender I/O v5.1.18",
		"version":"2.0"
	},
	"scene":0,
	"scenes":[
		{
			"name":"Scene",
			"nodes":[
				0
			]
		}
	],
	"nodes":[
		{
			"mesh":0,
			"name":"cable_bundle",
			"rotation":[
				0,
				0,
				1,
				4.371138828673793e-08
			],
			"scale":[
				0.0720810815691948,
				0.0720810815691948,
				0.0720810815691948
			],
			"translation":[
				0.4834864139556885,
				2.547149658203125,
				5.160278797149658
			]
		}
	],
	"materials":[
		{
			"doubleSided":true,
			"name":"Material.015",
			"pbrMetallicRoughness":{
				"baseColorFactor":[
					0,
					0,
					0,
					1
				],
				"metallicFactor":0.1865079402923584,
				"roughnessFactor":0.5
			}
		}
	],
	"meshes":[
		{
			"name":"NurbsPath.012",
			"primitives":[
				{
					"attributes":{
						"POSITION":0,
						"NORMAL":1,
						"TEXCOORD_0":2
					},
					"indices":3,
					"material":0
				}
			]
		}
	],
	"accessors":[
		{
			"bufferView":0,
			"componentType":5126,
			"count":1740,
			"max":[
				0.6069557070732117,
				0.4052852392196655,
				1.0095796585083008
			],
			"min":[
				-1.0238380432128906,
				-1.5025644302368164,
				-0.5598998069763184
			],
			"type":"VEC3"
		},
		{
			"bufferView":1,
			"componentType":5126,
			"count":1740,
			"type":"VEC3"
		},
		{
			"bufferView":2,
			"componentType":5126,
			"count":1740,
			"type":"VEC2"
		},
		{
			"bufferView":3,
			"componentType":5123,
			"count":9492,
			"type":"SCALAR"
		}
	],
	"bufferViews":[
		{
			"buffer":0,
			"byteLength":20880,
			"byteOffset":0,
			"target":34962
		},
		{
			"buffer":0,
			"byteLength":20880,
			"byteOffset":20880,
			"target":34962
		},
		{
			"buffer":0,
			"byteLength":13920,
			"byteOffset":41760,
			"target":34962
		},
		{
			"buffer":0,
			"byteLength":18984,
			"byteOffset":55680,
			"target":34963
		}
	],
	"buffers":[
		{
			"byteLength":74664,
			"uri":"BROKEN.bin"
		}
	]
}
