{
	"asset":{
		"generator":"Khronos glTF Blender I/O v5.0.21",
		"version":"2.0"
	},
	"scene":0,
	"scenes":[
		{
			"name":"Scene",
			"nodes":[
				0,
				1
			]
		}
	],
	"nodes":[
		{
			"mesh":0,
			"name":"straight_cable",
			"rotation":[
				0,
				0,
				1,
				4.371138828673793e-08
			],
			"scale":[
				0.0720810815691948,
				0.0720810815691948,
				0.0720810815691948
			],
			"translation":[
				4.148725986480713,
				2.547149658203125,
				5.160278797149658
			]
		},
		{
			"mesh":1,
			"name":"diagonal_cable",
			"rotation":[
				0,
				0,
				1,
				4.371138828673793e-08
			],
			"scale":[
				0.0720810815691948,
				0.0720810815691948,
				0.0720810815691948
			],
			"translation":[
				4.1487836837768555,
				2.4162726402282715,
				5.104698657989502
			]
		}
	],
	"materials":[
		{
			"doubleSided":true,
			"name":"Material.015",
			"pbrMetallicRoughness":{
				"baseColorFactor":[
					0,
					0,
					0,
					1
				],
				"metallicFactor":0.1865079402923584,
				"roughnessFactor":0.5
			}
		},
		{
			"doubleSided":true,
			"name":"Material.017",
			"pbrMetallicRoughness":{
				"baseColorFactor":[
					0,
					0,
					0,
					1
				],
				"metallicFactor":0.1865079402923584,
				"roughnessFactor":0.5
			}
		}
	],
	"meshes":[
		{
			"name":"NurbsPath.012",
			"primitives":[
				{
					"attributes":{
						"POSITION":0,
						"NORMAL":1,
						"TEXCOORD_0":2
					},
					"indices":3,
					"material":0
				}
			]
		},
		{
			"name":"NurbsPath.013",
			"primitives":[
				{
					"attributes":{
						"POSITION":4,
						"NORMAL":5,
						"TEXCOORD_0":6
					},
					"indices":7,
					"material":1
				}
			]
		}
	],
	"accessors":[
		{
			"bufferView":0,
			"componentType":5126,
			"count":492,
			"max":[
				1.6350557804107666,
				0.13570497930049896,
				0.17843075096607208
			],
			"min":[
				-1.6664299964904785,
				-0.1540033370256424,
				-0.25996851921081543
			],
			"type":"VEC3"
		},
		{
			"bufferView":1,
			"componentType":5126,
			"count":492,
			"type":"VEC3"
		},
		{
			"bufferView":2,
			"componentType":5126,
			"count":492,
			"type":"VEC2"
		},
		{
			"bufferView":3,
			"componentType":5123,
			"count":2580,
			"type":"SCALAR"
		},
		{
			"bufferView":4,
			"componentType":5126,
			"count":492,
			"max":[
				1.636776328086853,
				0.12597963213920593,
				0.1769586056470871
			],
			"min":[
				-1.6664299964904785,
				-1.8948695659637451,
				-0.26400989294052124
			],
			"type":"VEC3"
		},
		{
			"bufferView":5,
			"componentType":5126,
			"count":492,
			"type":"VEC3"
		},
		{
			"bufferView":6,
			"componentType":5126,
			"count":492,
			"type":"VEC2"
		},
		{
			"bufferView":7,
			"componentType":5123,
			"count":2580,
			"type":"SCALAR"
		}
	],
	"bufferViews":[
		{
			"buffer":0,
			"byteLength":5904,
			"byteOffset":0,
			"target":34962
		},
		{
			"buffer":0,
			"byteLength":5904,
			"byteOffset":5904,
			"target":34962
		},
		{
			"buffer":0,
			"byteLength":3936,
			"byteOffset":11808,
			"target":34962
		},
		{
			"buffer":0,
			"byteLength":5160,
			"byteOffset":15744,
			"target":34963
		},
		{
			"buffer":0,
			"byteLength":5904,
			"byteOffset":20904,
			"target":34962
		},
		{
			"buffer":0,
			"byteLength":5904,
			"byteOffset":26808,
			"target":34962
		},
		{
			"buffer":0,
			"byteLength":3936,
			"byteOffset":32712,
			"target":34962
		},
		{
			"buffer":0,
			"byteLength":5160,
			"byteOffset":36648,
			"target":34963
		}
	],
	"buffers":[
		{
			"byteLength":41808,
			"uri":"BROKEN.bin"
		}
	]
}
