{
	"asset":{
		"generator":"Khronos glTF Blender I/O v5.1.18",
		"version":"2.0"
	},
	"scene":0,
	"scenes":[
		{
			"name":"Scene",
			"nodes":[
				5
			]
		}
	],
	"nodes":[
		{
			"mesh":0,
			"name":"Bed",
			"translation":[
				-4.435413360595703,
				-3.6805052757263184,
				-3.139805316925049
			]
		},
		{
			"mesh":1,
			"name":"Door",
			"rotation":[
				0,
				0,
				-0.1736481487751007,
				0.9848077893257141
			],
			"translation":[
				-1.1033639907836914,
				-1.2998425960540771,
				-1.0011482238769531
			]
		},
		{
			"children":[
				0,
				1
			],
			"mesh":2,
			"name":"Chaber",
			"translation":[
				4.4354143142700195,
				3.6697936058044434,
				2.078608512878418
			]
		},
		{
			"children":[
				2
			],
			"name":"cryopod4"
		},
		{
			"children":[
				3
			],
			"name":"Collada visual scene group",
			"rotation":[
				0.70710688829422,
				0,
				0,
				0.7071066498756409
			]
		},
		{
			"children":[
				4
			],
			"name":"Cryopod1",
			"rotation":[
				-0.70710688829422,
				0,
				0,
				0.7071066498756409
			],
			"scale":[
				0.95981365442276,
				0.9598137736320496,
				0.9598137736320496
			],
			"translation":[
				3.7199854850769043,
				0.19520556926727295,
				6.14917516708374
			]
		}
	],
	"materials":[
		{
			"doubleSided":true,
			"name":"Material",
			"pbrMetallicRoughness":{
				"baseColorFactor":[
					0.800000011920929,
					0.800000011920929,
					0.800000011920929,
					1
				],
				"metallicFactor":0.27714285254478455,
				"roughnessFactor":0.7685714364051819
			}
		},
		{
			"doubleSided":true,
			"name":"lambert1",
			"occlusionTexture":{
				"index":0
			},
			"pbrMetallicRoughness":{
				"baseColorTexture":{
					"index":1
				},
				"metallicRoughnessTexture":{
					"index":0
				}
			}
		}
	],
	"meshes":[
		{
			"name":"defaultMaterial.004",
			"primitives":[
				{
					"attributes":{
						"POSITION":0,
						"NORMAL":1,
						"TEXCOORD_0":2
					},
					"indices":3,
					"material":0
				}
			]
		},
		{
			"name":"defaultMaterial.003",
			"primitives":[
				{
					"attributes":{
						"POSITION":4,
						"NORMAL":5,
						"TEXCOORD_0":6
					},
					"indices":7,
					"material":1
				}
			]
		},
		{
			"name":"defaultMaterial",
			"primitives":[
				{
					"attributes":{
						"POSITION":8,
						"NORMAL":9,
						"TEXCOORD_0":10
					},
					"indices":11,
					"material":1
				}
			]
		}
	],
	"textures":[
		{
			"sampler":0,
			"source":0
		},
		{
			"sampler":0,
			"source":1
		}
	],
	"images":[
		{
			"mimeType":"image/png",
			"name":"lambert1_metallicRoughness",
			"uri":"textures/lambert1_metallicRoughness.png"
		},
		{
			"mimeType":"image/png",
			"name":"lambert1_baseColor",
			"uri":"textures/lambert1_baseColor.png"
		}
	],
	"accessors":[
		{
			"bufferView":0,
			"componentType":5126,
			"count":264,
			"max":[
				4.898787498474121,
				4.404171943664551,
				4.095130443572998
			],
			"min":[
				2.311955213546753,
				-0.7403062582015991,
				2.2249701023101807
			],
			"type":"VEC3"
		},
		{
			"bufferView":1,
			"componentType":5126,
			"count":264,
			"type":"VEC3"
		},
		{
			"bufferView":2,
			"componentType":5126,
			"count":264,
			"type":"VEC2"
		},
		{
			"bufferView":3,
			"componentType":5123,
			"count":396,
			"type":"SCALAR"
		},
		{
			"bufferView":4,
			"componentType":5126,
			"count":12235,
			"max":[
				0.08431815356016159,
				2.267742156982422,
				2.18381929397583
			],
			"min":[
				-0.582825243473053,
				-2.4910740852355957,
				-0.08417627215385437
			],
			"type":"VEC3"
		},
		{
			"bufferView":5,
			"componentType":5126,
			"count":12235,
			"type":"VEC3"
		},
		{
			"bufferView":6,
			"componentType":5126,
			"count":12235,
			"type":"VEC2"
		},
		{
			"bufferView":7,
			"componentType":5123,
			"count":43542,
			"type":"SCALAR"
		},
		{
			"bufferView":8,
			"componentType":5126,
			"count":7969,
			"max":[
				0.7150173187255859,
				2.0789530277252197,
				1.007420301437378
			],
			"min":[
				-1.9563257694244385,
				-3.6841866970062256,
				-0.9472277164459229
			],
			"type":"VEC3"
		},
		{
			"bufferView":9,
			"componentType":5126,
			"count":7969,
			"type":"VEC3"
		},
		{
			"bufferView":10,
			"componentType":5126,
			"count":7969,
			"type":"VEC2"
		},
		{
			"bufferView":11,
			"componentType":5123,
			"count":27879,
			"type":"SCALAR"
		}
	],
	"bufferViews":[
		{
			"buffer":0,
			"byteLength":3168,
			"byteOffset":0,
			"target":34962
		},
		{
			"buffer":0,
			"byteLength":3168,
			"byteOffset":3168,
			"target":34962
		},
		{
			"buffer":0,
			"byteLength":2112,
			"byteOffset":6336,
			"target":34962
		},
		{
			"buffer":0,
			"byteLength":792,
			"byteOffset":8448,
			"target":34963
		},
		{
			"buffer":0,
			"byteLength":146820,
			"byteOffset":9240,
			"target":34962
		},
		{
			"buffer":0,
			"byteLength":146820,
			"byteOffset":156060,
			"target":34962
		},
		{
			"buffer":0,
			"byteLength":97880,
			"byteOffset":302880,
			"target":34962
		},
		{
			"buffer":0,
			"byteLength":87084,
			"byteOffset":400760,
			"target":34963
		},
		{
			"buffer":0,
			"byteLength":95628,
			"byteOffset":487844,
			"target":34962
		},
		{
			"buffer":0,
			"byteLength":95628,
			"byteOffset":583472,
			"target":34962
		},
		{
			"buffer":0,
			"byteLength":63752,
			"byteOffset":679100,
			"target":34962
		},
		{
			"buffer":0,
			"byteLength":55758,
			"byteOffset":742852,
			"target":34963
		}
	],
	"samplers":[
		{
			"magFilter":9729,
			"minFilter":9987
		}
	],
	"buffers":[
		{
			"byteLength":798612,
			"uri":"Cryo.bin"
		}
	]
}
