{
	"asset":{
		"generator":"Khronos glTF Blender I/O v5.1.18",
		"version":"2.0"
	},
	"scene":0,
	"scenes":[
		{
			"name":"Scene",
			"nodes":[
				5,
				11
			]
		}
	],
	"nodes":[
		{
			"mesh":0,
			"name":"Bed",
			"translation":[
				-4.435413360595703,
				-3.6805052757263184,
				-3.139805316925049
			]
		},
		{
			"mesh":1,
			"name":"Door",
			"translation":[
				-1.108710765838623,
				-0.728651762008667,
				-0.04534435272216797
			]
		},
		{
			"children":[
				0,
				1
			],
			"mesh":2,
			"name":"Chaber",
			"translation":[
				4.4354143142700195,
				3.6697936058044434,
				2.078608512878418
			]
		},
		{
			"children":[
				2
			],
			"name":"cryopod4"
		},
		{
			"children":[
				3
			],
			"name":"Collada visual scene group",
			"rotation":[
				0.70710688829422,
				0,
				0,
				0.7071066498756409
			]
		},
		{
			"children":[
				4
			],
			"name":"Cryopod1",
			"rotation":[
				-0.70710688829422,
				0,
				0,
				0.7071066498756409
			],
			"scale":[
				0.95981365442276,
				0.9598137736320496,
				0.9598137736320496
			],
			"translation":[
				3.7199854850769043,
				0.19520556926727295,
				6.14917516708374
			]
		},
		{
			"mesh":3,
			"name":"Bed.001",
			"translation":[
				-4.435413360595703,
				-3.6805052757263184,
				-3.1398067474365234
			]
		},
		{
			"mesh":4,
			"name":"Door.001",
			"translation":[
				-1.108710765838623,
				-0.728651762008667,
				-0.045345306396484375
			]
		},
		{
			"children":[
				6,
				7
			],
			"mesh":5,
			"name":"Chaber.001",
			"translation":[
				4.4354143142700195,
				3.6697936058044434,
				2.078608512878418
			]
		},
		{
			"children":[
				8
			],
			"name":"cryopod4.001"
		},
		{
			"children":[
				9
			],
			"name":"Collada visual scene group.001",
			"rotation":[
				0.70710688829422,
				0,
				0,
				0.7071066498756409
			]
		},
		{
			"children":[
				10
			],
			"name":"Cryopod2",
			"rotation":[
				-0.70710688829422,
				0,
				0,
				0.7071066498756409
			],
			"scale":[
				0.95981365442276,
				0.9598137736320496,
				0.9598137736320496
			],
			"translation":[
				3.7199854850769043,
				0.19520556926727295,
				-10.065162658691406
			]
		}
	],
	"materials":[
		{
			"doubleSided":true,
			"name":"Material",
			"pbrMetallicRoughness":{
				"baseColorFactor":[
					0.800000011920929,
					0.800000011920929,
					0.800000011920929,
					1
				],
				"metallicFactor":0.27714285254478455,
				"roughnessFactor":0.7685714364051819
			}
		},
		{
			"doubleSided":true,
			"name":"lambert1",
			"occlusionTexture":{
				"index":0
			},
			"pbrMetallicRoughness":{
				"baseColorTexture":{
					"index":1
				},
				"metallicRoughnessTexture":{
					"index":0
				}
			}
		},
		{
			"doubleSided":true,
			"name":"Material.001",
			"pbrMetallicRoughness":{
				"baseColorFactor":[
					0.800000011920929,
					0.800000011920929,
					0.800000011920929,
					1
				],
				"metallicFactor":0.27714285254478455,
				"roughnessFactor":0.7685714364051819
			}
		},
		{
			"doubleSided":true,
			"name":"lambert1.003",
			"occlusionTexture":{
				"index":2
			},
			"pbrMetallicRoughness":{
				"baseColorTexture":{
					"index":3
				},
				"metallicRoughnessTexture":{
					"index":2
				}
			}
		}
	],
	"meshes":[
		{
			"name":"defaultMaterial.004",
			"primitives":[
				{
					"attributes":{
						"POSITION":0,
						"NORMAL":1,
						"TEXCOORD_0":2
					},
					"indices":3,
					"material":0
				}
			]
		},
		{
			"name":"defaultMaterial.003",
			"primitives":[
				{
					"attributes":{
						"POSITION":4,
						"NORMAL":5,
						"TEXCOORD_0":6
					},
					"indices":7,
					"material":1
				}
			]
		},
		{
			"name":"defaultMaterial",
			"primitives":[
				{
					"attributes":{
						"POSITION":8,
						"NORMAL":9,
						"TEXCOORD_0":10
					},
					"indices":11,
					"material":1
				}
			]
		},
		{
			"name":"defaultMaterial.007",
			"primitives":[
				{
					"attributes":{
						"POSITION":12,
						"NORMAL":13,
						"TEXCOORD_0":14
					},
					"indices":3,
					"material":2
				}
			]
		},
		{
			"name":"defaultMaterial.005",
			"primitives":[
				{
					"attributes":{
						"POSITION":15,
						"NORMAL":16,
						"TEXCOORD_0":17
					},
					"indices":7,
					"material":3
				}
			]
		},
		{
			"name":"defaultMaterial.006",
			"primitives":[
				{
					"attributes":{
						"POSITION":18,
						"NORMAL":19,
						"TEXCOORD_0":20
					},
					"indices":11,
					"material":3
				}
			]
		}
	],
	"textures":[
		{
			"sampler":0,
			"source":0
		},
		{
			"sampler":0,
			"source":1
		},
		{
			"sampler":0,
			"source":0
		},
		{
			"sampler":0,
			"source":1
		}
	],
	"images":[
		{
			"mimeType":"image/png",
			"name":"lambert1_metallicRoughness",
			"uri":"textures/lambert1_metallicRoughness.png"
		},
		{
			"mimeType":"image/png",
			"name":"lambert1_baseColor",
			"uri":"textures/lambert1_baseColor.png"
		}
	],
	"accessors":[
		{
			"bufferView":0,
			"componentType":5126,
			"count":264,
			"max":[
				4.898787498474121,
				4.404171943664551,
				4.095130443572998
			],
			"min":[
				2.311955213546753,
				-0.7403062582015991,
				2.2249701023101807
			],
			"type":"VEC3"
		},
		{
			"bufferView":1,
			"componentType":5126,
			"count":264,
			"type":"VEC3"
		},
		{
			"bufferView":2,
			"componentType":5126,
			"count":264,
			"type":"VEC2"
		},
		{
			"bufferView":3,
			"componentType":5123,
			"count":396,
			"type":"SCALAR"
		},
		{
			"bufferView":4,
			"componentType":5126,
			"count":12226,
			"max":[
				0.8009014129638672,
				1.6413383483886719,
				1.2280950546264648
			],
			"min":[
				-1.2714824676513672,
				-2.848442792892456,
				-1.039900779724121
			],
			"type":"VEC3"
		},
		{
			"bufferView":5,
			"componentType":5126,
			"count":12226,
			"type":"VEC3"
		},
		{
			"bufferView":6,
			"componentType":5126,
			"count":12226,
			"type":"VEC2"
		},
		{
			"bufferView":7,
			"componentType":5123,
			"count":43542,
			"type":"SCALAR"
		},
		{
			"bufferView":8,
			"componentType":5126,
			"count":7969,
			"max":[
				0.7150173187255859,
				2.0789530277252197,
				1.007420301437378
			],
			"min":[
				-1.9563257694244385,
				-3.6841866970062256,
				-0.9472277164459229
			],
			"type":"VEC3"
		},
		{
			"bufferView":9,
			"componentType":5126,
			"count":7969,
			"type":"VEC3"
		},
		{
			"bufferView":10,
			"componentType":5126,
			"count":7969,
			"type":"VEC2"
		},
		{
			"bufferView":11,
			"componentType":5123,
			"count":27879,
			"type":"SCALAR"
		},
		{
			"bufferView":12,
			"componentType":5126,
			"count":264,
			"max":[
				4.898787498474121,
				4.404171943664551,
				4.095130443572998
			],
			"min":[
				2.311955213546753,
				-0.7403062582015991,
				2.2249701023101807
			],
			"type":"VEC3"
		},
		{
			"bufferView":13,
			"componentType":5126,
			"count":264,
			"type":"VEC3"
		},
		{
			"bufferView":14,
			"componentType":5126,
			"count":264,
			"type":"VEC2"
		},
		{
			"bufferView":15,
			"componentType":5126,
			"count":12226,
			"max":[
				0.8009014129638672,
				1.6413383483886719,
				1.2280950546264648
			],
			"min":[
				-1.2714824676513672,
				-2.848442792892456,
				-1.039900779724121
			],
			"type":"VEC3"
		},
		{
			"bufferView":16,
			"componentType":5126,
			"count":12226,
			"type":"VEC3"
		},
		{
			"bufferView":17,
			"componentType":5126,
			"count":12226,
			"type":"VEC2"
		},
		{
			"bufferView":18,
			"componentType":5126,
			"count":7969,
			"max":[
				0.7150173187255859,
				2.0789530277252197,
				1.007420301437378
			],
			"min":[
				-1.9563257694244385,
				-3.6841866970062256,
				-0.9472277164459229
			],
			"type":"VEC3"
		},
		{
			"bufferView":19,
			"componentType":5126,
			"count":7969,
			"type":"VEC3"
		},
		{
			"bufferView":20,
			"componentType":5126,
			"count":7969,
			"type":"VEC2"
		}
	],
	"bufferViews":[
		{
			"buffer":0,
			"byteLength":3168,
			"byteOffset":0,
			"target":34962
		},
		{
			"buffer":0,
			"byteLength":3168,
			"byteOffset":3168,
			"target":34962
		},
		{
			"buffer":0,
			"byteLength":2112,
			"byteOffset":6336,
			"target":34962
		},
		{
			"buffer":0,
			"byteLength":792,
			"byteOffset":8448,
			"target":34963
		},
		{
			"buffer":0,
			"byteLength":146712,
			"byteOffset":9240,
			"target":34962
		},
		{
			"buffer":0,
			"byteLength":146712,
			"byteOffset":155952,
			"target":34962
		},
		{
			"buffer":0,
			"byteLength":97808,
			"byteOffset":302664,
			"target":34962
		},
		{
			"buffer":0,
			"byteLength":87084,
			"byteOffset":400472,
			"target":34963
		},
		{
			"buffer":0,
			"byteLength":95628,
			"byteOffset":487556,
			"target":34962
		},
		{
			"buffer":0,
			"byteLength":95628,
			"byteOffset":583184,
			"target":34962
		},
		{
			"buffer":0,
			"byteLength":63752,
			"byteOffset":678812,
			"target":34962
		},
		{
			"buffer":0,
			"byteLength":55758,
			"byteOffset":742564,
			"target":34963
		},
		{
			"buffer":0,
			"byteLength":3168,
			"byteOffset":798324,
			"target":34962
		},
		{
			"buffer":0,
			"byteLength":3168,
			"byteOffset":801492,
			"target":34962
		},
		{
			"buffer":0,
			"byteLength":2112,
			"byteOffset":804660,
			"target":34962
		},
		{
			"buffer":0,
			"byteLength":146712,
			"byteOffset":806772,
			"target":34962
		},
		{
			"buffer":0,
			"byteLength":146712,
			"byteOffset":953484,
			"target":34962
		},
		{
			"buffer":0,
			"byteLength":97808,
			"byteOffset":1100196,
			"target":34962
		},
		{
			"buffer":0,
			"byteLength":95628,
			"byteOffset":1198004,
			"target":34962
		},
		{
			"buffer":0,
			"byteLength":95628,
			"byteOffset":1293632,
			"target":34962
		},
		{
			"buffer":0,
			"byteLength":63752,
			"byteOffset":1389260,
			"target":34962
		}
	],
	"samplers":[
		{
			"magFilter":9729,
			"minFilter":9987
		}
	],
	"buffers":[
		{
			"byteLength":1453012,
			"uri":"spaceshiproom.bin"
		}
	]
}
