{
	"asset":{
		"generator":"Khronos glTF Blender I/O v5.0.21",
		"version":"2.0"
	},
	"scene":0,
	"scenes":[
		{
			"name":"Scene",
			"nodes":[
				0
			]
		}
	],
	"nodes":[
		{
			"mesh":0,
			"name":"Flashlight",
			"rotation":[
				0,
				0.4900057911872864,
				0,
				0.8717193007469177
			],
			"scale":[
				14.324357032775879,
				14.324356079101562,
				14.324357032775879
			],
			"translation":[
				5.956327438354492,
				8.057635307312012,
				-5.417936325073242
			]
		}
	],
	"materials":[
		{
			"doubleSided":true,
			"emissiveTexture":{
				"index":0
			},
			"name":"Jetbaem3",
			"pbrMetallicRoughness":{
				"baseColorTexture":{
					"index":1
				},
				"metallicRoughnessTexture":{
					"index":2
				}
			}
		}
	],
	"meshes":[
		{
			"name":"LP.003",
			"primitives":[
				{
					"attributes":{
						"POSITION":0,
						"NORMAL":1,
						"TEXCOORD_0":2
					},
					"indices":3,
					"material":0
				}
			]
		}
	],
	"textures":[
		{
			"sampler":0,
			"source":0
		},
		{
			"sampler":0,
			"source":1
		},
		{
			"sampler":0,
			"source":2
		}
	],
	"images":[
		{
			"mimeType":"image/jpeg",
			"name":"Jetbeam(LP)_DefaultMaterial_Emissive",
			"uri":"Jetbeam%28LP%29_DefaultMaterial_Emissive.jpg"
		},
		{
			"mimeType":"image/png",
			"name":"Jetbeam(LP)_DefaultMaterial_BaseColor",
			"uri":"Jetbeam%28LP%29_DefaultMaterial_BaseColor.png"
		},
		{
			"mimeType":"image/png",
			"name":"Jetbeam(LP)_DefaultMaterial_Metallic-Jetbeam(LP)_DefaultMaterial_Roughness",
			"uri":"Jetbeam%28LP%29_DefaultMaterial_Metallic-Jetbeam%28LP%29_DefaultMaterial_Roughness.png"
		}
	],
	"accessors":[
		{
			"bufferView":0,
			"componentType":5126,
			"count":1550,
			"max":[
				0.03500000759959221,
				0.06999999284744263,
				0.1684848517179489
			],
			"min":[
				-0.03499998524785042,
				3.725290298461914e-09,
				-0.12179077416658401
			],
			"type":"VEC3"
		},
		{
			"bufferView":1,
			"componentType":5126,
			"count":1550,
			"type":"VEC3"
		},
		{
			"bufferView":2,
			"componentType":5126,
			"count":1550,
			"type":"VEC2"
		},
		{
			"bufferView":3,
			"componentType":5123,
			"count":5910,
			"type":"SCALAR"
		}
	],
	"bufferViews":[
		{
			"buffer":0,
			"byteLength":18600,
			"byteOffset":0,
			"target":34962
		},
		{
			"buffer":0,
			"byteLength":18600,
			"byteOffset":18600,
			"target":34962
		},
		{
			"buffer":0,
			"byteLength":12400,
			"byteOffset":37200,
			"target":34962
		},
		{
			"buffer":0,
			"byteLength":11820,
			"byteOffset":49600,
			"target":34963
		}
	],
	"samplers":[
		{
			"magFilter":9729,
			"minFilter":9987
		}
	],
	"buffers":[
		{
			"byteLength":61420,
			"uri":"Untitled.bin"
		}
	]
}
