{
	"asset":{
		"generator":"Khronos glTF Blender I/O v5.1.18",
		"version":"2.0"
	},
	"scene":0,
	"scenes":[
		{
			"name":"Scene",
			"nodes":[
				2,
				5
			]
		}
	],
	"nodes":[
		{
			"mesh":0,
			"name":"screen.003"
		},
		{
			"children":[
				0
			],
			"mesh":1,
			"name":"screen",
			"scale":[
				2.310983896255493,
				2.310983657836914,
				2.310983896255493
			],
			"translation":[
				0.22799921035766602,
				1.0060532093048096,
				-0.03249466419219971
			]
		},
		{
			"children":[
				1
			],
			"mesh":2,
			"name":"Monitor",
			"rotation":[
				0,
				0.3826834559440613,
				0,
				0.9238795638084412
			],
			"translation":[
				-6.032050132751465,
				1.539460301399231,
				8.407208442687988
			]
		},
		{
			"mesh":3,
			"name":"screen.002"
		},
		{
			"children":[
				3
			],
			"mesh":4,
			"name":"screen.001",
			"scale":[
				2.310983896255493,
				2.310983657836914,
				2.310983896255493
			],
			"translation":[
				0.2279982566833496,
				1.0060532093048096,
				-0.032494425773620605
			]
		},
		{
			"children":[
				4
			],
			"mesh":5,
			"name":"Monitor.001",
			"rotation":[
				0,
				-0.3826834559440613,
				0,
				0.9238795638084412
			],
			"translation":[
				-6.086207866668701,
				1.539460301399231,
				-8.482926368713379
			]
		}
	],
	"materials":[
		{
			"doubleSided":true,
			"name":"Metal scifi trimsheet",
			"pbrMetallicRoughness":{
				"baseColorTexture":{
					"index":0,
					"texCoord":1
				},
				"metallicRoughnessTexture":{
					"index":1,
					"texCoord":1
				}
			}
		}
	],
	"meshes":[
		{
			"name":"Cube.008",
			"primitives":[
				{
					"attributes":{
						"POSITION":0,
						"NORMAL":1,
						"TEXCOORD_0":2,
						"TEXCOORD_1":3
					},
					"indices":4
				}
			]
		},
		{
			"name":"Cube.007",
			"primitives":[
				{
					"attributes":{
						"POSITION":5,
						"NORMAL":6,
						"TEXCOORD_0":7,
						"TEXCOORD_1":8
					},
					"indices":9,
					"material":0
				}
			]
		},
		{
			"name":"Cube.005",
			"primitives":[
				{
					"attributes":{
						"POSITION":10,
						"NORMAL":11,
						"TEXCOORD_0":12,
						"TEXCOORD_1":13
					},
					"indices":14,
					"material":0
				}
			]
		},
		{
			"name":"Cube.006",
			"primitives":[
				{
					"attributes":{
						"POSITION":15,
						"NORMAL":16,
						"TEXCOORD_0":17,
						"TEXCOORD_1":18
					},
					"indices":4
				}
			]
		},
		{
			"name":"Cube.001",
			"primitives":[
				{
					"attributes":{
						"POSITION":19,
						"NORMAL":20,
						"TEXCOORD_0":21,
						"TEXCOORD_1":22
					},
					"indices":9,
					"material":0
				}
			]
		},
		{
			"name":"Cube.002",
			"primitives":[
				{
					"attributes":{
						"POSITION":23,
						"NORMAL":24,
						"TEXCOORD_0":25,
						"TEXCOORD_1":26
					},
					"indices":14,
					"material":0
				}
			]
		}
	],
	"textures":[
		{
			"sampler":0,
			"source":0
		},
		{
			"sampler":0,
			"source":1
		}
	],
	"images":[
		{
			"mimeType":"image/png",
			"name":"ScifiTrim2_basecolor",
			"uri":"textures/ScifiTrim2_basecolor.png"
		},
		{
			"mimeType":"image/png",
			"name":"ScifiTrim2_roughness",
			"uri":"textures/ScifiTrim2_roughness.png"
		}
	],
	"accessors":[
		{
			"bufferView":0,
			"componentType":5126,
			"count":52,
			"max":[
				0.20825321972370148,
				0.3041956424713135,
				0.7488522529602051
			],
			"min":[
				-0.09421432763338089,
				-0.23875974118709564,
				-0.7421568036079407
			],
			"type":"VEC3"
		},
		{
			"bufferView":1,
			"componentType":5126,
			"count":52,
			"type":"VEC3"
		},
		{
			"bufferView":2,
			"componentType":5126,
			"count":52,
			"type":"VEC2"
		},
		{
			"bufferView":3,
			"componentType":5126,
			"count":52,
			"type":"VEC2"
		},
		{
			"bufferView":4,
			"componentType":5123,
			"count":150,
			"type":"SCALAR"
		},
		{
			"bufferView":5,
			"componentType":5126,
			"count":4721,
			"max":[
				0.2339143007993698,
				0.3414827287197113,
				0.797214150428772
			],
			"min":[
				-0.22946235537528992,
				-0.33594954013824463,
				-0.7905187010765076
			],
			"type":"VEC3"
		},
		{
			"bufferView":6,
			"componentType":5126,
			"count":4721,
			"type":"VEC3"
		},
		{
			"bufferView":7,
			"componentType":5126,
			"count":4721,
			"type":"VEC2"
		},
		{
			"bufferView":8,
			"componentType":5126,
			"count":4721,
			"type":"VEC2"
		},
		{
			"bufferView":9,
			"componentType":5123,
			"count":7584,
			"type":"SCALAR"
		},
		{
			"bufferView":10,
			"componentType":5126,
			"count":3476,
			"max":[
				0.2416476607322693,
				1.0504751205444336,
				0.154116690158844
			],
			"min":[
				-0.7404367923736572,
				-0.23422843217849731,
				-0.12686501443386078
			],
			"type":"VEC3"
		},
		{
			"bufferView":11,
			"componentType":5126,
			"count":3476,
			"type":"VEC3"
		},
		{
			"bufferView":12,
			"componentType":5126,
			"count":3476,
			"type":"VEC2"
		},
		{
			"bufferView":13,
			"componentType":5126,
			"count":3476,
			"type":"VEC2"
		},
		{
			"bufferView":14,
			"componentType":5123,
			"count":5490,
			"type":"SCALAR"
		},
		{
			"bufferView":15,
			"componentType":5126,
			"count":52,
			"max":[
				0.20825321972370148,
				0.3041956424713135,
				0.7488522529602051
			],
			"min":[
				-0.09421432763338089,
				-0.23875974118709564,
				-0.7421568036079407
			],
			"type":"VEC3"
		},
		{
			"bufferView":16,
			"componentType":5126,
			"count":52,
			"type":"VEC3"
		},
		{
			"bufferView":17,
			"componentType":5126,
			"count":52,
			"type":"VEC2"
		},
		{
			"bufferView":18,
			"componentType":5126,
			"count":52,
			"type":"VEC2"
		},
		{
			"bufferView":19,
			"componentType":5126,
			"count":4721,
			"max":[
				0.2339143007993698,
				0.3414827287197113,
				0.797214150428772
			],
			"min":[
				-0.22946235537528992,
				-0.33594954013824463,
				-0.7905187010765076
			],
			"type":"VEC3"
		},
		{
			"bufferView":20,
			"componentType":5126,
			"count":4721,
			"type":"VEC3"
		},
		{
			"bufferView":21,
			"componentType":5126,
			"count":4721,
			"type":"VEC2"
		},
		{
			"bufferView":22,
			"componentType":5126,
			"count":4721,
			"type":"VEC2"
		},
		{
			"bufferView":23,
			"componentType":5126,
			"count":3476,
			"max":[
				0.2416476607322693,
				1.0504751205444336,
				0.154116690158844
			],
			"min":[
				-0.7404367923736572,
				-0.23422843217849731,
				-0.12686501443386078
			],
			"type":"VEC3"
		},
		{
			"bufferView":24,
			"componentType":5126,
			"count":3476,
			"type":"VEC3"
		},
		{
			"bufferView":25,
			"componentType":5126,
			"count":3476,
			"type":"VEC2"
		},
		{
			"bufferView":26,
			"componentType":5126,
			"count":3476,
			"type":"VEC2"
		}
	],
	"bufferViews":[
		{
			"buffer":0,
			"byteLength":624,
			"byteOffset":0,
			"target":34962
		},
		{
			"buffer":0,
			"byteLength":624,
			"byteOffset":624,
			"target":34962
		},
		{
			"buffer":0,
			"byteLength":416,
			"byteOffset":1248,
			"target":34962
		},
		{
			"buffer":0,
			"byteLength":416,
			"byteOffset":1664,
			"target":34962
		},
		{
			"buffer":0,
			"byteLength":300,
			"byteOffset":2080,
			"target":34963
		},
		{
			"buffer":0,
			"byteLength":56652,
			"byteOffset":2380,
			"target":34962
		},
		{
			"buffer":0,
			"byteLength":56652,
			"byteOffset":59032,
			"target":34962
		},
		{
			"buffer":0,
			"byteLength":37768,
			"byteOffset":115684,
			"target":34962
		},
		{
			"buffer":0,
			"byteLength":37768,
			"byteOffset":153452,
			"target":34962
		},
		{
			"buffer":0,
			"byteLength":15168,
			"byteOffset":191220,
			"target":34963
		},
		{
			"buffer":0,
			"byteLength":41712,
			"byteOffset":206388,
			"target":34962
		},
		{
			"buffer":0,
			"byteLength":41712,
			"byteOffset":248100,
			"target":34962
		},
		{
			"buffer":0,
			"byteLength":27808,
			"byteOffset":289812,
			"target":34962
		},
		{
			"buffer":0,
			"byteLength":27808,
			"byteOffset":317620,
			"target":34962
		},
		{
			"buffer":0,
			"byteLength":10980,
			"byteOffset":345428,
			"target":34963
		},
		{
			"buffer":0,
			"byteLength":624,
			"byteOffset":356408,
			"target":34962
		},
		{
			"buffer":0,
			"byteLength":624,
			"byteOffset":357032,
			"target":34962
		},
		{
			"buffer":0,
			"byteLength":416,
			"byteOffset":357656,
			"target":34962
		},
		{
			"buffer":0,
			"byteLength":416,
			"byteOffset":358072,
			"target":34962
		},
		{
			"buffer":0,
			"byteLength":56652,
			"byteOffset":358488,
			"target":34962
		},
		{
			"buffer":0,
			"byteLength":56652,
			"byteOffset":415140,
			"target":34962
		},
		{
			"buffer":0,
			"byteLength":37768,
			"byteOffset":471792,
			"target":34962
		},
		{
			"buffer":0,
			"byteLength":37768,
			"byteOffset":509560,
			"target":34962
		},
		{
			"buffer":0,
			"byteLength":41712,
			"byteOffset":547328,
			"target":34962
		},
		{
			"buffer":0,
			"byteLength":41712,
			"byteOffset":589040,
			"target":34962
		},
		{
			"buffer":0,
			"byteLength":27808,
			"byteOffset":630752,
			"target":34962
		},
		{
			"buffer":0,
			"byteLength":27808,
			"byteOffset":658560,
			"target":34962
		}
	],
	"samplers":[
		{
			"magFilter":9729,
			"minFilter":9987
		}
	],
	"buffers":[
		{
			"byteLength":686368,
			"uri":"Screens.bin"
		}
	]
}
