{
	"asset":{
		"generator":"Khronos glTF Blender I/O v5.1.18",
		"version":"2.0"
	},
	"scene":0,
	"scenes":[
		{
			"name":"Scene",
			"nodes":[
				0,
				1,
				2,
				3,
				4,
				5,
				6,
				7,
				8,
				9,
				10,
				11
			]
		}
	],
	"nodes":[
		{
			"mesh":0,
			"name":"Plane.001_Papers 2_0",
			"rotation":[
				-0.5000001192092896,
				0.4999999403953552,
				0.5,
				0.5000001192092896
			],
			"scale":[
				1.3550182580947876,
				1.3550182580947876,
				1.3550186157226562
			],
			"translation":[
				-7.556878566741943,
				0.019999999552965164,
				1.8935493230819702
			]
		},
		{
			"mesh":1,
			"name":"Plane.002_Papers_0",
			"rotation":[
				-0.7071069478988647,
				0,
				0,
				0.7071066498756409
			],
			"scale":[
				1.3550183773040771,
				1.3550182580947876,
				1.3550182580947876
			],
			"translation":[
				2.8758678436279297,
				0.019999999552965164,
				0.3930286169052124
			]
		},
		{
			"mesh":2,
			"name":"Plane.003_Papers 3_0",
			"rotation":[
				-0.7071070075035095,
				0,
				0,
				0.7071065902709961
			],
			"scale":[
				1.3550183773040771,
				1.3550182580947876,
				1.3550182580947876
			],
			"translation":[
				-2.2899208068847656,
				0.019999999552965164,
				-0.1448075771331787
			]
		},
		{
			"mesh":3,
			"name":"Plane.004_Papers 4_0",
			"rotation":[
				-0.7071069478988647,
				0,
				0,
				0.7071066498756409
			],
			"scale":[
				1.3550183773040771,
				1.3550182580947876,
				1.3550182580947876
			],
			"translation":[
				0.4850879907608032,
				0.019999999552965164,
				-0.9998120069503784
			]
		},
		{
			"mesh":4,
			"name":"Plane.004_Papers 4_0.001",
			"rotation":[
				-0.7071069478988647,
				0,
				0,
				0.7071066498756409
			],
			"scale":[
				1.3550183773040771,
				1.3550182580947876,
				1.3550182580947876
			],
			"translation":[
				-0.3039749264717102,
				0.019999999552965164,
				1.6048754453659058
			]
		},
		{
			"mesh":5,
			"name":"Plane.005_Papers 2_0",
			"rotation":[
				-0.7071070075035095,
				0,
				0,
				0.7071065902709961
			],
			"scale":[
				1.3550183773040771,
				1.3550182580947876,
				1.3550182580947876
			],
			"translation":[
				-6.175171375274658,
				0.019999999552965164,
				-6.062380313873291
			]
		},
		{
			"name":"Skrina2",
			"rotation":[
				-0.5000000596046448,
				0.5,
				0.5,
				0.5
			],
			"scale":[
				1.7697334289550781,
				1.7697334289550781,
				1.7697334289550781
			],
			"translation":[
				-8.476518630981445,
				1.6276636123657227,
				3.462238073348999
			]
		},
		{
			"name":"Skrina1",
			"rotation":[
				-0.5000000596046448,
				0.5,
				0.5,
				0.5
			],
			"scale":[
				1.7697334289550781,
				1.7697334289550781,
				1.7697334289550781
			],
			"translation":[
				-8.476518630981445,
				0,
				3.462238073348999
			]
		},
		{
			"mesh":6,
			"name":"pictureFrame.001",
			"rotation":[
				0,
				-0.7071068286895752,
				0,
				0.7071067690849304
			],
			"scale":[
				0.028593529015779495,
				0.028593529015779495,
				0.028593529015779495
			],
			"translation":[
				8.941418647766113,
				3.3257381916046143,
				-1.6290531158447266
			]
		},
		{
			"mesh":7,
			"name":"pictureFrame.002",
			"rotation":[
				0,
				-1,
				0,
				4.371138828673793e-08
			],
			"scale":[
				0.028593529015779495,
				0.028593529015779495,
				0.028593529015779495
			],
			"translation":[
				3.0467820167541504,
				3.0357484817504883,
				7.168160915374756
			]
		},
		{
			"mesh":8,
			"name":"pictureFrame",
			"rotation":[
				0,
				-0.7071068286895752,
				0,
				0.7071067690849304
			],
			"scale":[
				0.028593529015779495,
				0.028593529015779495,
				0.028593529015779495
			],
			"translation":[
				8.935684204101562,
				3.3257381916046143,
				-5.67200231552124
			]
		},
		{
			"mesh":9,
			"name":"Plane.006_Papers 4_0",
			"rotation":[
				-0.5000001192092896,
				0.4999999403953552,
				0.5,
				0.5000001192092896
			],
			"scale":[
				1.3550182580947876,
				1.3550182580947876,
				1.3550186157226562
			],
			"translation":[
				-7.2393693923950195,
				0.019999999552965164,
				3.8208584785461426
			]
		}
	],
	"materials":[
		{
			"alphaMode":"BLEND",
			"doubleSided":true,
			"name":"Papers_2",
			"pbrMetallicRoughness":{
				"baseColorTexture":{
					"index":0
				},
				"metallicFactor":0,
				"roughnessFactor":0.6000000238418579
			}
		},
		{
			"alphaMode":"BLEND",
			"doubleSided":true,
			"name":"Papers",
			"pbrMetallicRoughness":{
				"baseColorTexture":{
					"index":1
				},
				"metallicFactor":0,
				"roughnessFactor":0.6000000238418579
			}
		},
		{
			"alphaMode":"BLEND",
			"doubleSided":true,
			"name":"Papers_3",
			"pbrMetallicRoughness":{
				"baseColorTexture":{
					"index":2
				},
				"metallicFactor":0,
				"roughnessFactor":0.6000000238418579
			}
		},
		{
			"alphaMode":"BLEND",
			"doubleSided":true,
			"name":"Papers_4",
			"pbrMetallicRoughness":{
				"baseColorTexture":{
					"index":3
				},
				"metallicFactor":0,
				"roughnessFactor":0.6000000238418579
			}
		},
		{
			"alphaMode":"BLEND",
			"doubleSided":true,
			"name":"Papers_4.001",
			"pbrMetallicRoughness":{
				"baseColorTexture":{
					"index":4
				},
				"metallicFactor":0,
				"roughnessFactor":0.6000000238418579
			}
		},
		{
			"doubleSided":true,
			"name":"Material.019",
			"pbrMetallicRoughness":{
				"baseColorFactor":[
					0.2320290058851242,
					0.023153899237513542,
					0.003981960006058216,
					1
				],
				"metallicFactor":0,
				"roughnessFactor":0.5
			}
		},
		{
			"doubleSided":true,
			"name":"Material.020",
			"pbrMetallicRoughness":{
				"baseColorFactor":[
					0.2320290058851242,
					0.023153899237513542,
					0.003981960006058216,
					1
				],
				"metallicFactor":0,
				"roughnessFactor":0.5
			}
		},
		{
			"doubleSided":true,
			"name":"Material.018",
			"pbrMetallicRoughness":{
				"baseColorFactor":[
					0.2320290058851242,
					0.023153899237513542,
					0.003981960006058216,
					1
				],
				"metallicFactor":0,
				"roughnessFactor":0.5
			}
		}
	],
	"meshes":[
		{
			"name":"Plane.001_Papers 2_0",
			"primitives":[
				{
					"attributes":{
						"POSITION":0,
						"NORMAL":1,
						"TEXCOORD_0":2
					},
					"indices":3,
					"material":0
				}
			]
		},
		{
			"name":"Plane.002_Papers_0",
			"primitives":[
				{
					"attributes":{
						"POSITION":4,
						"NORMAL":5,
						"TEXCOORD_0":6
					},
					"indices":3,
					"material":1
				}
			]
		},
		{
			"name":"Plane.003_Papers 3_0",
			"primitives":[
				{
					"attributes":{
						"POSITION":7,
						"NORMAL":8,
						"TEXCOORD_0":9
					},
					"indices":3,
					"material":2
				}
			]
		},
		{
			"name":"Plane.004_Papers 4_0",
			"primitives":[
				{
					"attributes":{
						"POSITION":10,
						"NORMAL":11,
						"TEXCOORD_0":12
					},
					"indices":3,
					"material":3
				}
			]
		},
		{
			"name":"Plane.004_Papers 4_0.001",
			"primitives":[
				{
					"attributes":{
						"POSITION":13,
						"NORMAL":14,
						"TEXCOORD_0":15
					},
					"indices":3,
					"material":4
				}
			]
		},
		{
			"name":"Plane.005_Papers 2_0",
			"primitives":[
				{
					"attributes":{
						"POSITION":16,
						"NORMAL":17,
						"TEXCOORD_0":18
					},
					"indices":3,
					"material":0
				}
			]
		},
		{
			"name":"Object_0.003",
			"primitives":[
				{
					"attributes":{
						"POSITION":19,
						"NORMAL":20,
						"TEXCOORD_0":21
					},
					"indices":22,
					"material":5
				}
			]
		},
		{
			"name":"Object_0.004",
			"primitives":[
				{
					"attributes":{
						"POSITION":23,
						"NORMAL":24,
						"TEXCOORD_0":25
					},
					"indices":22,
					"material":6
				}
			]
		},
		{
			"name":"Object_0.002",
			"primitives":[
				{
					"attributes":{
						"POSITION":26,
						"NORMAL":27,
						"TEXCOORD_0":28
					},
					"indices":22,
					"material":7
				}
			]
		},
		{
			"name":"Plane.006_Papers 4_0",
			"primitives":[
				{
					"attributes":{
						"POSITION":29,
						"NORMAL":30,
						"TEXCOORD_0":31
					},
					"indices":3,
					"material":3
				}
			]
		}
	],
	"textures":[
		{
			"sampler":0,
			"source":0
		},
		{
			"sampler":0,
			"source":1
		},
		{
			"sampler":0,
			"source":2
		},
		{
			"sampler":0,
			"source":3
		},
		{
			"sampler":0,
			"source":3
		}
	],
	"images":[
		{
			"mimeType":"image/png",
			"name":"Papers_2_baseColor",
			"uri":"Papers_2_baseColor.png"
		},
		{
			"mimeType":"image/png",
			"name":"Papers_baseColor",
			"uri":"Papers_baseColor.png"
		},
		{
			"mimeType":"image/png",
			"name":"Papers_3_baseColor",
			"uri":"Papers_3_baseColor.png"
		},
		{
			"mimeType":"image/png",
			"name":"Papers_4_baseColor",
			"uri":"Papers_4_baseColor.png"
		}
	],
	"accessors":[
		{
			"bufferView":0,
			"componentType":5126,
			"count":4,
			"max":[
				1,
				1,
				0
			],
			"min":[
				-1,
				-1,
				0
			],
			"type":"VEC3"
		},
		{
			"bufferView":1,
			"componentType":5126,
			"count":4,
			"type":"VEC3"
		},
		{
			"bufferView":2,
			"componentType":5126,
			"count":4,
			"type":"VEC2"
		},
		{
			"bufferView":3,
			"componentType":5123,
			"count":6,
			"type":"SCALAR"
		},
		{
			"bufferView":4,
			"componentType":5126,
			"count":4,
			"max":[
				1,
				1,
				0
			],
			"min":[
				-1,
				-1,
				0
			],
			"type":"VEC3"
		},
		{
			"bufferView":5,
			"componentType":5126,
			"count":4,
			"type":"VEC3"
		},
		{
			"bufferView":6,
			"componentType":5126,
			"count":4,
			"type":"VEC2"
		},
		{
			"bufferView":7,
			"componentType":5126,
			"count":4,
			"max":[
				1,
				1,
				0
			],
			"min":[
				-1,
				-1,
				0
			],
			"type":"VEC3"
		},
		{
			"bufferView":8,
			"componentType":5126,
			"count":4,
			"type":"VEC3"
		},
		{
			"bufferView":9,
			"componentType":5126,
			"count":4,
			"type":"VEC2"
		},
		{
			"bufferView":10,
			"componentType":5126,
			"count":4,
			"max":[
				1,
				1,
				0
			],
			"min":[
				-1,
				-1,
				0
			],
			"type":"VEC3"
		},
		{
			"bufferView":11,
			"componentType":5126,
			"count":4,
			"type":"VEC3"
		},
		{
			"bufferView":12,
			"componentType":5126,
			"count":4,
			"type":"VEC2"
		},
		{
			"bufferView":13,
			"componentType":5126,
			"count":4,
			"max":[
				1,
				1,
				0
			],
			"min":[
				-1,
				-1,
				0
			],
			"type":"VEC3"
		},
		{
			"bufferView":14,
			"componentType":5126,
			"count":4,
			"type":"VEC3"
		},
		{
			"bufferView":15,
			"componentType":5126,
			"count":4,
			"type":"VEC2"
		},
		{
			"bufferView":16,
			"componentType":5126,
			"count":4,
			"max":[
				1,
				1,
				0
			],
			"min":[
				-1,
				-1,
				0
			],
			"type":"VEC3"
		},
		{
			"bufferView":17,
			"componentType":5126,
			"count":4,
			"type":"VEC3"
		},
		{
			"bufferView":18,
			"componentType":5126,
			"count":4,
			"type":"VEC2"
		},
		{
			"bufferView":19,
			"componentType":5126,
			"count":12405,
			"max":[
				24.586490631103516,
				34.43504333496094,
				2.5488390922546387
			],
			"min":[
				-24.586488723754883,
				-34.43504333496094,
				-2.5488390922546387
			],
			"type":"VEC3"
		},
		{
			"bufferView":20,
			"componentType":5126,
			"count":12405,
			"type":"VEC3"
		},
		{
			"bufferView":21,
			"componentType":5126,
			"count":12405,
			"type":"VEC2"
		},
		{
			"bufferView":22,
			"componentType":5123,
			"count":63780,
			"type":"SCALAR"
		},
		{
			"bufferView":23,
			"componentType":5126,
			"count":12405,
			"max":[
				24.586490631103516,
				34.43504333496094,
				2.5488390922546387
			],
			"min":[
				-24.586488723754883,
				-34.43504333496094,
				-2.5488390922546387
			],
			"type":"VEC3"
		},
		{
			"bufferView":24,
			"componentType":5126,
			"count":12405,
			"type":"VEC3"
		},
		{
			"bufferView":25,
			"componentType":5126,
			"count":12405,
			"type":"VEC2"
		},
		{
			"bufferView":26,
			"componentType":5126,
			"count":12405,
			"max":[
				24.586490631103516,
				34.43504333496094,
				2.5488390922546387
			],
			"min":[
				-24.586488723754883,
				-34.43504333496094,
				-2.5488390922546387
			],
			"type":"VEC3"
		},
		{
			"bufferView":27,
			"componentType":5126,
			"count":12405,
			"type":"VEC3"
		},
		{
			"bufferView":28,
			"componentType":5126,
			"count":12405,
			"type":"VEC2"
		},
		{
			"bufferView":29,
			"componentType":5126,
			"count":4,
			"max":[
				1,
				1,
				0
			],
			"min":[
				-1,
				-1,
				0
			],
			"type":"VEC3"
		},
		{
			"bufferView":30,
			"componentType":5126,
			"count":4,
			"type":"VEC3"
		},
		{
			"bufferView":31,
			"componentType":5126,
			"count":4,
			"type":"VEC2"
		}
	],
	"bufferViews":[
		{
			"buffer":0,
			"byteLength":48,
			"byteOffset":0,
			"target":34962
		},
		{
			"buffer":0,
			"byteLength":48,
			"byteOffset":48,
			"target":34962
		},
		{
			"buffer":0,
			"byteLength":32,
			"byteOffset":96,
			"target":34962
		},
		{
			"buffer":0,
			"byteLength":12,
			"byteOffset":128,
			"target":34963
		},
		{
			"buffer":0,
			"byteLength":48,
			"byteOffset":140,
			"target":34962
		},
		{
			"buffer":0,
			"byteLength":48,
			"byteOffset":188,
			"target":34962
		},
		{
			"buffer":0,
			"byteLength":32,
			"byteOffset":236,
			"target":34962
		},
		{
			"buffer":0,
			"byteLength":48,
			"byteOffset":268,
			"target":34962
		},
		{
			"buffer":0,
			"byteLength":48,
			"byteOffset":316,
			"target":34962
		},
		{
			"buffer":0,
			"byteLength":32,
			"byteOffset":364,
			"target":34962
		},
		{
			"buffer":0,
			"byteLength":48,
			"byteOffset":396,
			"target":34962
		},
		{
			"buffer":0,
			"byteLength":48,
			"byteOffset":444,
			"target":34962
		},
		{
			"buffer":0,
			"byteLength":32,
			"byteOffset":492,
			"target":34962
		},
		{
			"buffer":0,
			"byteLength":48,
			"byteOffset":524,
			"target":34962
		},
		{
			"buffer":0,
			"byteLength":48,
			"byteOffset":572,
			"target":34962
		},
		{
			"buffer":0,
			"byteLength":32,
			"byteOffset":620,
			"target":34962
		},
		{
			"buffer":0,
			"byteLength":48,
			"byteOffset":652,
			"target":34962
		},
		{
			"buffer":0,
			"byteLength":48,
			"byteOffset":700,
			"target":34962
		},
		{
			"buffer":0,
			"byteLength":32,
			"byteOffset":748,
			"target":34962
		},
		{
			"buffer":0,
			"byteLength":148860,
			"byteOffset":780,
			"target":34962
		},
		{
			"buffer":0,
			"byteLength":148860,
			"byteOffset":149640,
			"target":34962
		},
		{
			"buffer":0,
			"byteLength":99240,
			"byteOffset":298500,
			"target":34962
		},
		{
			"buffer":0,
			"byteLength":127560,
			"byteOffset":397740,
			"target":34963
		},
		{
			"buffer":0,
			"byteLength":148860,
			"byteOffset":525300,
			"target":34962
		},
		{
			"buffer":0,
			"byteLength":148860,
			"byteOffset":674160,
			"target":34962
		},
		{
			"buffer":0,
			"byteLength":99240,
			"byteOffset":823020,
			"target":34962
		},
		{
			"buffer":0,
			"byteLength":148860,
			"byteOffset":922260,
			"target":34962
		},
		{
			"buffer":0,
			"byteLength":148860,
			"byteOffset":1071120,
			"target":34962
		},
		{
			"buffer":0,
			"byteLength":99240,
			"byteOffset":1219980,
			"target":34962
		},
		{
			"buffer":0,
			"byteLength":48,
			"byteOffset":1319220,
			"target":34962
		},
		{
			"buffer":0,
			"byteLength":48,
			"byteOffset":1319268,
			"target":34962
		},
		{
			"buffer":0,
			"byteLength":32,
			"byteOffset":1319316,
			"target":34962
		}
	],
	"samplers":[
		{
			"magFilter":9729,
			"minFilter":9987
		}
	],
	"buffers":[
		{
			"byteLength":1319348,
			"uri":"BROKEN.bin"
		}
	]
}
