{
	"asset":{
		"generator":"Khronos glTF Blender I/O v5.1.18",
		"version":"2.0"
	},
	"extensionsUsed":[
		"KHR_materials_specular",
		"KHR_materials_ior",
		"KHR_texture_transform"
	],
	"extensionsRequired":[
		"KHR_texture_transform"
	],
	"scene":0,
	"scenes":[
		{
			"name":"Scene",
			"nodes":[
				1
			]
		}
	],
	"nodes":[
		{
			"mesh":0,
			"name":"repair_kit_repair_kit_0",
			"rotation":[
				-0.5,
				-0.5,
				-0.5,
				0.5
			],
			"scale":[
				0.29061323404312134,
				0.29061323404312134,
				0.29061323404312134
			],
			"translation":[
				-0.003179311752319336,
				0.6177580952644348,
				0.014093399047851562
			]
		},
		{
			"children":[
				0
			],
			"mesh":1,
			"name":"MagneticLock",
			"translation":[
				-2.2367589473724365,
				0.22118157148361206,
				9.325621604919434
			]
		}
	],
	"materials":[
		{
			"name":"repair_kit",
			"normalTexture":{
				"index":0
			},
			"pbrMetallicRoughness":{
				"baseColorTexture":{
					"index":1
				},
				"metallicFactor":0.4163490831851959,
				"roughnessFactor":0.3004954159259796
			}
		},
		{
			"doubleSided":true,
			"name":"Material.003",
			"pbrMetallicRoughness":{
				"baseColorFactor":[
					0.008343573659658432,
					0.008343573659658432,
					0.008343573659658432,
					1
				],
				"metallicFactor":0
			}
		},
		{
			"doubleSided":true,
			"extensions":{
				"KHR_materials_specular":{
					"specularTexture":{
						"extensions":{
							"KHR_texture_transform":{
								"offset":[
									0,
									0.8000000715255737
								],
								"scale":[
									0.19999992847442627,
									0.19999992847442627
								]
							}
						},
						"index":2
					}
				},
				"KHR_materials_ior":{
					"ior":1.4500000476837158
				}
			},
			"name":"Steel Glossy",
			"pbrMetallicRoughness":{
				"baseColorTexture":{
					"extensions":{
						"KHR_texture_transform":{
							"offset":[
								0,
								0.8000000715255737
							],
							"scale":[
								0.19999992847442627,
								0.19999992847442627
							]
						}
					},
					"index":3
				},
				"metallicRoughnessTexture":{
					"extensions":{
						"KHR_texture_transform":{
							"offset":[
								0,
								0.8000000715255737
							],
							"scale":[
								0.19999992847442627,
								0.19999992847442627
							]
						}
					},
					"index":4
				}
			}
		}
	],
	"meshes":[
		{
			"name":"repair_kit_repair_kit_0",
			"primitives":[
				{
					"attributes":{
						"POSITION":0,
						"NORMAL":1,
						"TEXCOORD_0":2
					},
					"indices":3,
					"material":0
				}
			]
		},
		{
			"name":"Cube.015",
			"primitives":[
				{
					"attributes":{
						"POSITION":4,
						"NORMAL":5,
						"TEXCOORD_0":6
					},
					"indices":7,
					"material":1
				},
				{
					"attributes":{
						"POSITION":8,
						"NORMAL":9,
						"TEXCOORD_0":10
					},
					"indices":11,
					"material":2
				}
			]
		}
	],
	"textures":[
		{
			"sampler":0,
			"source":0
		},
		{
			"sampler":0,
			"source":1
		},
		{
			"sampler":0,
			"source":2
		},
		{
			"sampler":0,
			"source":3
		},
		{
			"sampler":0,
			"source":4
		}
	],
	"images":[
		{
			"mimeType":"image/png",
			"name":"repair_kit_normal",
			"uri":"textures/repair_kit_normal.png"
		},
		{
			"mimeType":"image/jpeg",
			"name":"control_panel_baseColor",
			"uri":"textures/control_panel_baseColor.jpg"
		},
		{
			"mimeType":"image/jpeg",
			"name":"Steel Glossy_SpecularLevel",
			"uri":"textures/Steel%20Glossy_SpecularLevel.jpg"
		},
		{
			"mimeType":"image/jpeg",
			"name":"Steel Glossy_BaseColor",
			"uri":"textures/Steel%20Glossy_BaseColor.jpg"
		},
		{
			"mimeType":"image/png",
			"name":"Steel Glossy_Metallic-Steel Glossy_Roughness",
			"uri":"textures/Steel%20Glossy_Metallic-Steel%20Glossy_Roughness.png"
		}
	],
	"accessors":[
		{
			"bufferView":0,
			"componentType":5126,
			"count":420,
			"max":[
				0.9928832054138184,
				1.9417762756347656,
				1.5566744804382324
			],
			"min":[
				-0.9928746223449707,
				-1.9386329650878906,
				-1.0282772779464722
			],
			"type":"VEC3"
		},
		{
			"bufferView":1,
			"componentType":5126,
			"count":420,
			"type":"VEC3"
		},
		{
			"bufferView":2,
			"componentType":5126,
			"count":420,
			"type":"VEC2"
		},
		{
			"bufferView":3,
			"componentType":5123,
			"count":600,
			"type":"SCALAR"
		},
		{
			"bufferView":4,
			"componentType":5126,
			"count":1997,
			"max":[
				1,
				0.33492448925971985,
				1
			],
			"min":[
				-1,
				-0.028777360916137695,
				-1
			],
			"type":"VEC3"
		},
		{
			"bufferView":5,
			"componentType":5126,
			"count":1997,
			"type":"VEC3"
		},
		{
			"bufferView":6,
			"componentType":5126,
			"count":1997,
			"type":"VEC2"
		},
		{
			"bufferView":7,
			"componentType":5123,
			"count":3306,
			"type":"SCALAR"
		},
		{
			"bufferView":8,
			"componentType":5126,
			"count":216,
			"max":[
				1,
				0.028777241706848145,
				1
			],
			"min":[
				-1,
				-0.028777360916137695,
				-1
			],
			"type":"VEC3"
		},
		{
			"bufferView":9,
			"componentType":5126,
			"count":216,
			"type":"VEC3"
		},
		{
			"bufferView":10,
			"componentType":5126,
			"count":216,
			"type":"VEC2"
		},
		{
			"bufferView":11,
			"componentType":5123,
			"count":390,
			"type":"SCALAR"
		}
	],
	"bufferViews":[
		{
			"buffer":0,
			"byteLength":5040,
			"byteOffset":0,
			"target":34962
		},
		{
			"buffer":0,
			"byteLength":5040,
			"byteOffset":5040,
			"target":34962
		},
		{
			"buffer":0,
			"byteLength":3360,
			"byteOffset":10080,
			"target":34962
		},
		{
			"buffer":0,
			"byteLength":1200,
			"byteOffset":13440,
			"target":34963
		},
		{
			"buffer":0,
			"byteLength":23964,
			"byteOffset":14640,
			"target":34962
		},
		{
			"buffer":0,
			"byteLength":23964,
			"byteOffset":38604,
			"target":34962
		},
		{
			"buffer":0,
			"byteLength":15976,
			"byteOffset":62568,
			"target":34962
		},
		{
			"buffer":0,
			"byteLength":6612,
			"byteOffset":78544,
			"target":34963
		},
		{
			"buffer":0,
			"byteLength":2592,
			"byteOffset":85156,
			"target":34962
		},
		{
			"buffer":0,
			"byteLength":2592,
			"byteOffset":87748,
			"target":34962
		},
		{
			"buffer":0,
			"byteLength":1728,
			"byteOffset":90340,
			"target":34962
		},
		{
			"buffer":0,
			"byteLength":780,
			"byteOffset":92068,
			"target":34963
		}
	],
	"samplers":[
		{
			"magFilter":9729,
			"minFilter":9987
		}
	],
	"buffers":[
		{
			"byteLength":92848,
			"uri":"MagneticLock.bin"
		}
	]
}
