{
	"asset":{
		"generator":"Khronos glTF Blender I/O v5.1.18",
		"version":"2.0"
	},
	"scene":0,
	"scenes":[
		{
			"name":"Scene",
			"nodes":[
				0
			]
		}
	],
	"nodes":[
		{
			"mesh":0,
			"name":"Cube",
			"scale":[
				0.18546509742736816,
				0.18546509742736816,
				0.18546509742736816
			],
			"translation":[
				-2.8050332069396973,
				3.111934185028076,
				9.432878494262695
			]
		}
	],
	"materials":[
		{
			"doubleSided":true,
			"name":"Black.001",
			"pbrMetallicRoughness":{
				"baseColorFactor":[
					0,
					0,
					0,
					1
				]
			}
		},
		{
			"doubleSided":true,
			"name":"Table"
		}
	],
	"meshes":[
		{
			"name":"Cube.003",
			"primitives":[
				{
					"attributes":{
						"POSITION":0,
						"NORMAL":1,
						"TEXCOORD_0":2
					},
					"indices":3,
					"material":0
				},
				{
					"attributes":{
						"POSITION":4,
						"NORMAL":5,
						"TEXCOORD_0":6
					},
					"indices":7,
					"material":1
				}
			]
		}
	],
	"accessors":[
		{
			"bufferView":0,
			"componentType":5126,
			"count":16,
			"max":[
				1.337198257446289,
				1.8362324237823486,
				1.770800232887268
			],
			"min":[
				-1.33719801902771,
				-1.8362326622009277,
				-0.7171281576156616
			],
			"type":"VEC3"
		},
		{
			"bufferView":1,
			"componentType":5126,
			"count":16,
			"type":"VEC3"
		},
		{
			"bufferView":2,
			"componentType":5126,
			"count":16,
			"type":"VEC2"
		},
		{
			"bufferView":3,
			"componentType":5123,
			"count":36,
			"type":"SCALAR"
		},
		{
			"bufferView":4,
			"componentType":5126,
			"count":24,
			"max":[
				1.337198257446289,
				1.8362324237823486,
				1.770800232887268
			],
			"min":[
				-1.33719801902771,
				-1.8362326622009277,
				-0.7171281576156616
			],
			"type":"VEC3"
		},
		{
			"bufferView":5,
			"componentType":5126,
			"count":24,
			"type":"VEC3"
		},
		{
			"bufferView":6,
			"componentType":5126,
			"count":24,
			"type":"VEC2"
		},
		{
			"bufferView":7,
			"componentType":5123,
			"count":72,
			"type":"SCALAR"
		}
	],
	"bufferViews":[
		{
			"buffer":0,
			"byteLength":192,
			"byteOffset":0,
			"target":34962
		},
		{
			"buffer":0,
			"byteLength":192,
			"byteOffset":192,
			"target":34962
		},
		{
			"buffer":0,
			"byteLength":128,
			"byteOffset":384,
			"target":34962
		},
		{
			"buffer":0,
			"byteLength":72,
			"byteOffset":512,
			"target":34963
		},
		{
			"buffer":0,
			"byteLength":288,
			"byteOffset":584,
			"target":34962
		},
		{
			"buffer":0,
			"byteLength":288,
			"byteOffset":872,
			"target":34962
		},
		{
			"buffer":0,
			"byteLength":192,
			"byteOffset":1160,
			"target":34962
		},
		{
			"buffer":0,
			"byteLength":144,
			"byteOffset":1352,
			"target":34963
		}
	],
	"buffers":[
		{
			"byteLength":1496,
			"uri":"CardReader.bin"
		}
	]
}
