{
	"asset":{
		"generator":"Khronos glTF Blender I/O v5.1.18",
		"version":"2.0"
	},
	"scene":0,
	"scenes":[
		{
			"name":"Scene",
			"nodes":[
				0,
				2
			]
		}
	],
	"nodes":[
		{
			"mesh":0,
			"name":"Plane",
			"rotation":[
				0,
				-0.6923390030860901,
				0,
				0.7215723991394043
			],
			"scale":[
				2.6248092651367188,
				2.6248087882995605,
				7.848843574523926
			],
			"translation":[
				16.76224708557129,
				0.4242962598800659,
				-0.16019302606582642
			]
		},
		{
			"mesh":1,
			"name":"Icosphere",
			"rotation":[
				0,
				0.9997863173484802,
				0,
				0.020671164616942406
			],
			"scale":[
				0.13308732211589813,
				0.13308733701705933,
				0.13308732211589813
			],
			"translation":[
				0.006943393498659134,
				0.0019036531448364258,
				0.009745603427290916
			]
		},
		{
			"children":[
				1
			],
			"mesh":2,
			"name":"Plane.001",
			"rotation":[
				0,
				-0.6923390030860901,
				0,
				0.7215723991394043
			],
			"scale":[
				2.6248092651367188,
				2.6248087882995605,
				2.6248092651367188
			],
			"translation":[
				16.76224708557129,
				3.4203038215637207,
				-0.16019302606582642
			]
		}
	],
	"meshes":[
		{
			"name":"Plane.006",
			"primitives":[
				{
					"attributes":{
						"POSITION":0,
						"NORMAL":1,
						"TEXCOORD_0":2
					},
					"indices":3
				}
			]
		},
		{
			"name":"Icosphere",
			"primitives":[
				{
					"attributes":{
						"POSITION":4,
						"NORMAL":5,
						"TEXCOORD_0":6
					},
					"indices":7
				}
			]
		},
		{
			"name":"Plane.007",
			"primitives":[
				{
					"attributes":{
						"POSITION":8,
						"NORMAL":9,
						"TEXCOORD_0":10
					},
					"indices":11
				}
			]
		}
	],
	"accessors":[
		{
			"bufferView":0,
			"componentType":5126,
			"count":7104,
			"max":[
				1.135338544845581,
				2.4281463623046875,
				1
			],
			"min":[
				-1.135338544845581,
				-0.1223125159740448,
				-1
			],
			"type":"VEC3"
		},
		{
			"bufferView":1,
			"componentType":5126,
			"count":7104,
			"type":"VEC3"
		},
		{
			"bufferView":2,
			"componentType":5126,
			"count":7104,
			"type":"VEC2"
		},
		{
			"bufferView":3,
			"componentType":5123,
			"count":13416,
			"type":"SCALAR"
		},
		{
			"bufferView":4,
			"componentType":5126,
			"count":60,
			"max":[
				0.8944249749183655,
				1,
				0.8506399989128113
			],
			"min":[
				-0.8944249749183655,
				-1,
				-0.8506399989128113
			],
			"type":"VEC3"
		},
		{
			"bufferView":5,
			"componentType":5126,
			"count":60,
			"type":"VEC3"
		},
		{
			"bufferView":6,
			"componentType":5126,
			"count":60,
			"type":"VEC2"
		},
		{
			"bufferView":7,
			"componentType":5123,
			"count":60,
			"type":"SCALAR"
		},
		{
			"bufferView":8,
			"componentType":5126,
			"count":9068,
			"max":[
				1.987403392791748,
				1.9033015966415405,
				0.2371000349521637
			],
			"min":[
				-1.987403392791748,
				-1.9033015966415405,
				-0.2371000349521637
			],
			"type":"VEC3"
		},
		{
			"bufferView":9,
			"componentType":5126,
			"count":9068,
			"type":"VEC3"
		},
		{
			"bufferView":10,
			"componentType":5126,
			"count":9068,
			"type":"VEC2"
		},
		{
			"bufferView":11,
			"componentType":5123,
			"count":15528,
			"type":"SCALAR"
		}
	],
	"bufferViews":[
		{
			"buffer":0,
			"byteLength":85248,
			"byteOffset":0,
			"target":34962
		},
		{
			"buffer":0,
			"byteLength":85248,
			"byteOffset":85248,
			"target":34962
		},
		{
			"buffer":0,
			"byteLength":56832,
			"byteOffset":170496,
			"target":34962
		},
		{
			"buffer":0,
			"byteLength":26832,
			"byteOffset":227328,
			"target":34963
		},
		{
			"buffer":0,
			"byteLength":720,
			"byteOffset":254160,
			"target":34962
		},
		{
			"buffer":0,
			"byteLength":720,
			"byteOffset":254880,
			"target":34962
		},
		{
			"buffer":0,
			"byteLength":480,
			"byteOffset":255600,
			"target":34962
		},
		{
			"buffer":0,
			"byteLength":120,
			"byteOffset":256080,
			"target":34963
		},
		{
			"buffer":0,
			"byteLength":108816,
			"byteOffset":256200,
			"target":34962
		},
		{
			"buffer":0,
			"byteLength":108816,
			"byteOffset":365016,
			"target":34962
		},
		{
			"buffer":0,
			"byteLength":72544,
			"byteOffset":473832,
			"target":34962
		},
		{
			"buffer":0,
			"byteLength":31056,
			"byteOffset":546376,
			"target":34963
		}
	],
	"buffers":[
		{
			"byteLength":577432,
			"uri":"Corridor.bin"
		}
	]
}
