{
	"asset":{
		"generator":"Khronos glTF Blender I/O v5.1.18",
		"version":"2.0"
	},
	"scene":0,
	"scenes":[
		{
			"name":"Scene",
			"nodes":[
				16
			]
		}
	],
	"nodes":[
		{
			"mesh":0,
			"name":"Dvierka",
			"scale":[
				0.9290086627006531,
				0.9290086627006531,
				0.9290086627006531
			],
			"translation":[
				1.4533100128173828,
				0.2991218566894531,
				-0.3574867248535156
			]
		},
		{
			"mesh":1,
			"name":"Object_10",
			"rotation":[
				-0.6864391565322876,
				-0.08536552637815475,
				0.0816669836640358,
				0.7175266742706299
			],
			"scale":[
				0.10652775317430496,
				0.10652778297662735,
				0.10652778297662735
			],
			"translation":[
				-0.05710411071777344,
				0.292205810546875,
				-0.9261875152587891
			]
		},
		{
			"mesh":2,
			"name":"Object_11",
			"rotation":[
				-0.6864391565322876,
				-0.08536552637815475,
				0.0816669836640358,
				0.7175266742706299
			],
			"scale":[
				0.10652775317430496,
				0.10652778297662735,
				0.10652778297662735
			],
			"translation":[
				-0.05710411071777344,
				0.292205810546875,
				-0.9261875152587891
			]
		},
		{
			"mesh":3,
			"name":"Object_12",
			"rotation":[
				-0.6864391565322876,
				-0.08536552637815475,
				0.0816669836640358,
				0.7175266742706299
			],
			"scale":[
				0.10652775317430496,
				0.10652778297662735,
				0.10652778297662735
			],
			"translation":[
				-0.05710411071777344,
				0.292205810546875,
				-0.9261875152587891
			]
		},
		{
			"mesh":4,
			"name":"Object_13",
			"rotation":[
				-0.6864391565322876,
				-0.08536552637815475,
				0.0816669836640358,
				0.7175266742706299
			],
			"scale":[
				0.10652775317430496,
				0.10652778297662735,
				0.10652778297662735
			],
			"translation":[
				-0.05710411071777344,
				0.292205810546875,
				-0.9261875152587891
			]
		},
		{
			"mesh":5,
			"name":"Object_14",
			"rotation":[
				-0.6864391565322876,
				-0.08536552637815475,
				0.0816669836640358,
				0.7175266742706299
			],
			"scale":[
				0.10652775317430496,
				0.10652778297662735,
				0.10652778297662735
			],
			"translation":[
				-0.05710411071777344,
				0.292205810546875,
				-0.9261875152587891
			]
		},
		{
			"mesh":6,
			"name":"Object_15",
			"rotation":[
				-0.6864391565322876,
				-0.08536552637815475,
				0.0816669836640358,
				0.7175266742706299
			],
			"scale":[
				0.10652775317430496,
				0.10652778297662735,
				0.10652778297662735
			],
			"translation":[
				-0.05710411071777344,
				0.292205810546875,
				-0.9261875152587891
			]
		},
		{
			"mesh":7,
			"name":"Object_16",
			"rotation":[
				-0.6864391565322876,
				-0.08536552637815475,
				0.0816669836640358,
				0.7175266742706299
			],
			"scale":[
				0.10652775317430496,
				0.10652778297662735,
				0.10652778297662735
			],
			"translation":[
				-0.05710411071777344,
				0.292205810546875,
				-0.9261875152587891
			]
		},
		{
			"mesh":8,
			"name":"Object_2",
			"rotation":[
				-0.6864391565322876,
				-0.08536552637815475,
				0.0816669836640358,
				0.7175266742706299
			],
			"scale":[
				0.10652775317430496,
				0.10652778297662735,
				0.10652778297662735
			],
			"translation":[
				-0.05710411071777344,
				0.292205810546875,
				-0.9261875152587891
			]
		},
		{
			"mesh":9,
			"name":"Object_3",
			"rotation":[
				-0.6864391565322876,
				-0.08536552637815475,
				0.0816669836640358,
				0.7175266742706299
			],
			"scale":[
				0.10652775317430496,
				0.10652778297662735,
				0.10652778297662735
			],
			"translation":[
				-0.05710411071777344,
				0.292205810546875,
				-0.9261875152587891
			]
		},
		{
			"mesh":10,
			"name":"Object_4",
			"rotation":[
				-0.6864391565322876,
				-0.08536552637815475,
				0.0816669836640358,
				0.7175266742706299
			],
			"scale":[
				0.10652775317430496,
				0.10652778297662735,
				0.10652778297662735
			],
			"translation":[
				-0.05710411071777344,
				0.292205810546875,
				-0.9261875152587891
			]
		},
		{
			"mesh":11,
			"name":"Object_5",
			"rotation":[
				-0.6864391565322876,
				-0.08536552637815475,
				0.0816669836640358,
				0.7175266742706299
			],
			"scale":[
				0.10652775317430496,
				0.10652778297662735,
				0.10652778297662735
			],
			"translation":[
				-0.05710411071777344,
				0.292205810546875,
				-0.9261875152587891
			]
		},
		{
			"mesh":12,
			"name":"Object_6",
			"rotation":[
				-0.6864391565322876,
				-0.08536552637815475,
				0.0816669836640358,
				0.7175266742706299
			],
			"scale":[
				0.10652775317430496,
				0.10652778297662735,
				0.10652778297662735
			],
			"translation":[
				-0.05710411071777344,
				0.292205810546875,
				-0.9261875152587891
			]
		},
		{
			"mesh":13,
			"name":"Object_7",
			"rotation":[
				-0.6864391565322876,
				-0.08536552637815475,
				0.0816669836640358,
				0.7175266742706299
			],
			"scale":[
				0.10652775317430496,
				0.10652778297662735,
				0.10652778297662735
			],
			"translation":[
				-0.05710411071777344,
				0.292205810546875,
				-0.9261875152587891
			]
		},
		{
			"mesh":14,
			"name":"Object_8",
			"rotation":[
				-0.6864391565322876,
				-0.08536552637815475,
				0.0816669836640358,
				0.7175266742706299
			],
			"scale":[
				0.10652775317430496,
				0.10652778297662735,
				0.10652778297662735
			],
			"translation":[
				-0.05710411071777344,
				0.292205810546875,
				-0.9261875152587891
			]
		},
		{
			"mesh":15,
			"name":"Object_9",
			"rotation":[
				-0.6864391565322876,
				-0.08536552637815475,
				0.0816669836640358,
				0.7175266742706299
			],
			"scale":[
				0.10652775317430496,
				0.10652778297662735,
				0.10652778297662735
			],
			"translation":[
				-0.05710411071777344,
				0.292205810546875,
				-0.9261875152587891
			]
		},
		{
			"children":[
				0,
				1,
				2,
				3,
				4,
				5,
				6,
				7,
				8,
				9,
				10,
				11,
				12,
				13,
				14,
				15
			],
			"mesh":16,
			"name":"Skrinka",
			"scale":[
				0.2716338038444519,
				0.2716338038444519,
				0.2716338038444519
			],
			"translation":[
				7.608633041381836,
				2.3811960220336914,
				-6.891811847686768
			]
		}
	],
	"materials":[
		{
			"doubleSided":true,
			"name":"Dirty white plastic",
			"pbrMetallicRoughness":{
				"baseColorTexture":{
					"index":0,
					"texCoord":1
				},
				"metallicFactor":0,
				"metallicRoughnessTexture":{
					"index":1,
					"texCoord":1
				}
			}
		},
		{
			"doubleSided":true,
			"name":"material_0",
			"pbrMetallicRoughness":{
				"baseColorTexture":{
					"index":2
				},
				"metallicFactor":0.5200076103210449,
				"roughnessFactor":0.6263338327407837
			}
		}
	],
	"meshes":[
		{
			"name":"Cube.014",
			"primitives":[
				{
					"attributes":{
						"POSITION":0,
						"NORMAL":1,
						"TEXCOORD_0":2,
						"TEXCOORD_1":3
					},
					"indices":4,
					"material":0
				}
			]
		},
		{
			"name":"Object_8",
			"primitives":[
				{
					"attributes":{
						"POSITION":5,
						"NORMAL":6,
						"TEXCOORD_0":7,
						"COLOR_0":8
					},
					"indices":9,
					"material":1
				}
			]
		},
		{
			"name":"Object_9",
			"primitives":[
				{
					"attributes":{
						"POSITION":10,
						"NORMAL":11,
						"TEXCOORD_0":12,
						"COLOR_0":13
					},
					"indices":14,
					"material":1
				}
			]
		},
		{
			"name":"Object_10",
			"primitives":[
				{
					"attributes":{
						"POSITION":15,
						"NORMAL":16,
						"TEXCOORD_0":17,
						"COLOR_0":18
					},
					"indices":19,
					"material":1
				}
			]
		},
		{
			"name":"Object_11",
			"primitives":[
				{
					"attributes":{
						"POSITION":20,
						"NORMAL":21,
						"TEXCOORD_0":22,
						"COLOR_0":23
					},
					"indices":24,
					"material":1
				}
			]
		},
		{
			"name":"Object_12",
			"primitives":[
				{
					"attributes":{
						"POSITION":25,
						"NORMAL":26,
						"TEXCOORD_0":27,
						"COLOR_0":28
					},
					"indices":29,
					"material":1
				}
			]
		},
		{
			"name":"Object_13",
			"primitives":[
				{
					"attributes":{
						"POSITION":30,
						"NORMAL":31,
						"TEXCOORD_0":32,
						"COLOR_0":33
					},
					"indices":34,
					"material":1
				}
			]
		},
		{
			"name":"Object_14",
			"primitives":[
				{
					"attributes":{
						"POSITION":35,
						"NORMAL":36,
						"TEXCOORD_0":37,
						"COLOR_0":38
					},
					"indices":39,
					"material":1
				}
			]
		},
		{
			"name":"Object_0",
			"primitives":[
				{
					"attributes":{
						"POSITION":40,
						"NORMAL":41,
						"TEXCOORD_0":42,
						"COLOR_0":43
					},
					"indices":44,
					"material":1
				}
			]
		},
		{
			"name":"Object_1",
			"primitives":[
				{
					"attributes":{
						"POSITION":45,
						"NORMAL":46,
						"TEXCOORD_0":47,
						"COLOR_0":48
					},
					"indices":49,
					"material":1
				}
			]
		},
		{
			"name":"Object_2",
			"primitives":[
				{
					"attributes":{
						"POSITION":50,
						"NORMAL":51,
						"TEXCOORD_0":52,
						"COLOR_0":53
					},
					"indices":54,
					"material":1
				}
			]
		},
		{
			"name":"Object_3",
			"primitives":[
				{
					"attributes":{
						"POSITION":55,
						"NORMAL":56,
						"TEXCOORD_0":57,
						"COLOR_0":58
					},
					"indices":59,
					"material":1
				}
			]
		},
		{
			"name":"Object_4",
			"primitives":[
				{
					"attributes":{
						"POSITION":60,
						"NORMAL":61,
						"TEXCOORD_0":62,
						"COLOR_0":63
					},
					"indices":64,
					"material":1
				}
			]
		},
		{
			"name":"Object_5",
			"primitives":[
				{
					"attributes":{
						"POSITION":65,
						"NORMAL":66,
						"TEXCOORD_0":67,
						"COLOR_0":68
					},
					"indices":69,
					"material":1
				}
			]
		},
		{
			"name":"Object_6",
			"primitives":[
				{
					"attributes":{
						"POSITION":70,
						"NORMAL":71,
						"TEXCOORD_0":72,
						"COLOR_0":73
					},
					"indices":74,
					"material":1
				}
			]
		},
		{
			"name":"Object_7",
			"primitives":[
				{
					"attributes":{
						"POSITION":75,
						"NORMAL":76,
						"TEXCOORD_0":77,
						"COLOR_0":78
					},
					"indices":79,
					"material":1
				}
			]
		},
		{
			"name":"Cube.010",
			"primitives":[
				{
					"attributes":{
						"POSITION":80,
						"NORMAL":81,
						"TEXCOORD_0":82,
						"TEXCOORD_1":83
					},
					"indices":84,
					"material":0
				}
			]
		}
	],
	"textures":[
		{
			"sampler":0,
			"source":0
		},
		{
			"sampler":0,
			"source":1
		},
		{
			"sampler":0,
			"source":2
		}
	],
	"images":[
		{
			"mimeType":"image/jpeg",
			"name":"plastic04d_diffuse",
			"uri":"textures/plastic04d_diffuse.jpg"
		},
		{
			"mimeType":"image/png",
			"name":"plastic04_glossiness",
			"uri":"textures/plastic04_glossiness.png"
		},
		{
			"mimeType":"image/png",
			"name":"material_0_baseColor",
			"uri":"textures/material_0_baseColor.png"
		}
	],
	"accessors":[
		{
			"bufferView":0,
			"componentType":5126,
			"count":720,
			"max":[
				0.06701231747865677,
				1.6886509656906128,
				0.031085319817066193
			],
			"min":[
				-2.9251761436462402,
				-1.84083092212677,
				-0.052073292434215546
			],
			"type":"VEC3"
		},
		{
			"bufferView":1,
			"componentType":5126,
			"count":720,
			"type":"VEC3"
		},
		{
			"bufferView":2,
			"componentType":5126,
			"count":720,
			"type":"VEC2"
		},
		{
			"bufferView":3,
			"componentType":5126,
			"count":720,
			"type":"VEC2"
		},
		{
			"bufferView":4,
			"componentType":5123,
			"count":1140,
			"type":"SCALAR"
		},
		{
			"bufferView":5,
			"componentType":5126,
			"count":65720,
			"max":[
				6.714144229888916,
				-0.04423300176858902,
				12.851346015930176
			],
			"min":[
				-11.267775535583496,
				-4.383127212524414,
				-12.743998527526855
			],
			"type":"VEC3"
		},
		{
			"bufferView":6,
			"componentType":5126,
			"count":65720,
			"type":"VEC3"
		},
		{
			"bufferView":7,
			"componentType":5126,
			"count":65720,
			"type":"VEC2"
		},
		{
			"bufferView":8,
			"componentType":5126,
			"count":65720,
			"type":"VEC3"
		},
		{
			"bufferView":9,
			"componentType":5125,
			"count":265059,
			"type":"SCALAR"
		},
		{
			"bufferView":10,
			"componentType":5126,
			"count":65740,
			"max":[
				13.555620193481445,
				-0.39795300364494324,
				11.73442554473877
			],
			"min":[
				-10.031579971313477,
				-4.299964904785156,
				-14.85742473602295
			],
			"type":"VEC3"
		},
		{
			"bufferView":11,
			"componentType":5126,
			"count":65740,
			"type":"VEC3"
		},
		{
			"bufferView":12,
			"componentType":5126,
			"count":65740,
			"type":"VEC2"
		},
		{
			"bufferView":13,
			"componentType":5126,
			"count":65740,
			"type":"VEC3"
		},
		{
			"bufferView":14,
			"componentType":5125,
			"count":284574,
			"type":"SCALAR"
		},
		{
			"bufferView":15,
			"componentType":5126,
			"count":65712,
			"max":[
				13.574440002441406,
				-0.47188401222229004,
				9.956247329711914
			],
			"min":[
				0.5565540194511414,
				-4.454268932342529,
				-14.868680000305176
			],
			"type":"VEC3"
		},
		{
			"bufferView":16,
			"componentType":5126,
			"count":65712,
			"type":"VEC3"
		},
		{
			"bufferView":17,
			"componentType":5126,
			"count":65712,
			"type":"VEC2"
		},
		{
			"bufferView":18,
			"componentType":5126,
			"count":65712,
			"type":"VEC3"
		},
		{
			"bufferView":19,
			"componentType":5125,
			"count":278382,
			"type":"SCALAR"
		},
		{
			"bufferView":20,
			"componentType":5126,
			"count":65849,
			"max":[
				13.642335891723633,
				-0.1355839967727661,
				11.799764633178711
			],
			"min":[
				-7.990382194519043,
				-4.2118239402771,
				-13.167948722839355
			],
			"type":"VEC3"
		},
		{
			"bufferView":21,
			"componentType":5126,
			"count":65849,
			"type":"VEC3"
		},
		{
			"bufferView":22,
			"componentType":5126,
			"count":65849,
			"type":"VEC2"
		},
		{
			"bufferView":23,
			"componentType":5126,
			"count":65849,
			"type":"VEC3"
		},
		{
			"bufferView":24,
			"componentType":5125,
			"count":230124,
			"type":"SCALAR"
		},
		{
			"bufferView":25,
			"componentType":5126,
			"count":65764,
			"max":[
				6.6336750984191895,
				-0.0548270009458065,
				12.62977123260498
			],
			"min":[
				-8.183526992797852,
				-4.322245121002197,
				-13.142492294311523
			],
			"type":"VEC3"
		},
		{
			"bufferView":26,
			"componentType":5126,
			"count":65764,
			"type":"VEC3"
		},
		{
			"bufferView":27,
			"componentType":5126,
			"count":65764,
			"type":"VEC2"
		},
		{
			"bufferView":28,
			"componentType":5126,
			"count":65764,
			"type":"VEC3"
		},
		{
			"bufferView":29,
			"componentType":5125,
			"count":246531,
			"type":"SCALAR"
		},
		{
			"bufferView":30,
			"componentType":5126,
			"count":65825,
			"max":[
				6.6509928703308105,
				-0.2569600045681,
				12.020255088806152
			],
			"min":[
				-9.900632858276367,
				-3.3143599033355713,
				-13.113791465759277
			],
			"type":"VEC3"
		},
		{
			"bufferView":31,
			"componentType":5126,
			"count":65825,
			"type":"VEC3"
		},
		{
			"bufferView":32,
			"componentType":5126,
			"count":65825,
			"type":"VEC2"
		},
		{
			"bufferView":33,
			"componentType":5126,
			"count":65825,
			"type":"VEC3"
		},
		{
			"bufferView":34,
			"componentType":5125,
			"count":221175,
			"type":"SCALAR"
		},
		{
			"bufferView":35,
			"componentType":5126,
			"count":53866,
			"max":[
				6.660143852233887,
				-0.1259399950504303,
				11.808036804199219
			],
			"min":[
				-10.227214813232422,
				-4.486417770385742,
				-13.234057426452637
			],
			"type":"VEC3"
		},
		{
			"bufferView":36,
			"componentType":5126,
			"count":53866,
			"type":"VEC3"
		},
		{
			"bufferView":37,
			"componentType":5126,
			"count":53866,
			"type":"VEC2"
		},
		{
			"bufferView":38,
			"componentType":5126,
			"count":53866,
			"type":"VEC3"
		},
		{
			"bufferView":39,
			"componentType":5123,
			"count":154776,
			"type":"SCALAR"
		},
		{
			"bufferView":40,
			"componentType":5126,
			"count":65722,
			"max":[
				13.536972045898438,
				-0.3161559998989105,
				10.420557022094727
			],
			"min":[
				-7.152943134307861,
				-4.402647018432617,
				-14.792807579040527
			],
			"type":"VEC3"
		},
		{
			"bufferView":41,
			"componentType":5126,
			"count":65722,
			"type":"VEC3"
		},
		{
			"bufferView":42,
			"componentType":5126,
			"count":65722,
			"type":"VEC2"
		},
		{
			"bufferView":43,
			"componentType":5126,
			"count":65722,
			"type":"VEC3"
		},
		{
			"bufferView":44,
			"componentType":5125,
			"count":316146,
			"type":"SCALAR"
		},
		{
			"bufferView":45,
			"componentType":5126,
			"count":65695,
			"max":[
				6.712317943572998,
				-0.18738900125026703,
				12.020255088806152
			],
			"min":[
				-7.463551998138428,
				-4.390326976776123,
				-13.077274322509766
			],
			"type":"VEC3"
		},
		{
			"bufferView":46,
			"componentType":5126,
			"count":65695,
			"type":"VEC3"
		},
		{
			"bufferView":47,
			"componentType":5126,
			"count":65695,
			"type":"VEC2"
		},
		{
			"bufferView":48,
			"componentType":5126,
			"count":65695,
			"type":"VEC3"
		},
		{
			"bufferView":49,
			"componentType":5125,
			"count":307251,
			"type":"SCALAR"
		},
		{
			"bufferView":50,
			"componentType":5126,
			"count":65692,
			"max":[
				6.781235218048096,
				-0.255497008562088,
				11.768818855285645
			],
			"min":[
				-10.708244323730469,
				-4.299729824066162,
				-13.12081241607666
			],
			"type":"VEC3"
		},
		{
			"bufferView":51,
			"componentType":5126,
			"count":65692,
			"type":"VEC3"
		},
		{
			"bufferView":52,
			"componentType":5126,
			"count":65692,
			"type":"VEC2"
		},
		{
			"bufferView":53,
			"componentType":5126,
			"count":65692,
			"type":"VEC3"
		},
		{
			"bufferView":54,
			"componentType":5125,
			"count":298161,
			"type":"SCALAR"
		},
		{
			"bufferView":55,
			"componentType":5126,
			"count":65664,
			"max":[
				4.416049003601074,
				-0.6254439949989319,
				11.113600730895996
			],
			"min":[
				-10.876256942749023,
				-4.56285285949707,
				-12.668251991271973
			],
			"type":"VEC3"
		},
		{
			"bufferView":56,
			"componentType":5126,
			"count":65664,
			"type":"VEC3"
		},
		{
			"bufferView":57,
			"componentType":5126,
			"count":65664,
			"type":"VEC2"
		},
		{
			"bufferView":58,
			"componentType":5126,
			"count":65664,
			"type":"VEC3"
		},
		{
			"bufferView":59,
			"componentType":5125,
			"count":295509,
			"type":"SCALAR"
		},
		{
			"bufferView":60,
			"componentType":5126,
			"count":65646,
			"max":[
				6.648952007293701,
				-0.0451509989798069,
				12.849722862243652
			],
			"min":[
				-9.233116149902344,
				-4.56285285949707,
				-11.37093734741211
			],
			"type":"VEC3"
		},
		{
			"bufferView":61,
			"componentType":5126,
			"count":65646,
			"type":"VEC3"
		},
		{
			"bufferView":62,
			"componentType":5126,
			"count":65646,
			"type":"VEC2"
		},
		{
			"bufferView":63,
			"componentType":5126,
			"count":65646,
			"type":"VEC3"
		},
		{
			"bufferView":64,
			"componentType":5125,
			"count":303924,
			"type":"SCALAR"
		},
		{
			"bufferView":65,
			"componentType":5126,
			"count":65643,
			"max":[
				6.6058669090271,
				-0.15005700290203094,
				12.719325065612793
			],
			"min":[
				-10.953924179077148,
				-4.456326007843018,
				-13.381131172180176
			],
			"type":"VEC3"
		},
		{
			"bufferView":66,
			"componentType":5126,
			"count":65643,
			"type":"VEC3"
		},
		{
			"bufferView":67,
			"componentType":5126,
			"count":65643,
			"type":"VEC2"
		},
		{
			"bufferView":68,
			"componentType":5126,
			"count":65643,
			"type":"VEC3"
		},
		{
			"bufferView":69,
			"componentType":5125,
			"count":297711,
			"type":"SCALAR"
		},
		{
			"bufferView":70,
			"componentType":5126,
			"count":65703,
			"max":[
				6.686812877655029,
				-0.08335299789905548,
				12.31125545501709
			],
			"min":[
				-7.726116180419922,
				-4.23302698135376,
				-13.153429985046387
			],
			"type":"VEC3"
		},
		{
			"bufferView":71,
			"componentType":5126,
			"count":65703,
			"type":"VEC3"
		},
		{
			"bufferView":72,
			"componentType":5126,
			"count":65703,
			"type":"VEC2"
		},
		{
			"bufferView":73,
			"componentType":5126,
			"count":65703,
			"type":"VEC3"
		},
		{
			"bufferView":74,
			"componentType":5125,
			"count":278712,
			"type":"SCALAR"
		},
		{
			"bufferView":75,
			"componentType":5126,
			"count":65719,
			"max":[
				6.966485977172852,
				-0.15684500336647034,
				11.99692440032959
			],
			"min":[
				-8.375244140625,
				-3.4326419830322266,
				-12.98941421508789
			],
			"type":"VEC3"
		},
		{
			"bufferView":76,
			"componentType":5126,
			"count":65719,
			"type":"VEC3"
		},
		{
			"bufferView":77,
			"componentType":5126,
			"count":65719,
			"type":"VEC2"
		},
		{
			"bufferView":78,
			"componentType":5126,
			"count":65719,
			"type":"VEC3"
		},
		{
			"bufferView":79,
			"componentType":5125,
			"count":266499,
			"type":"SCALAR"
		},
		{
			"bufferView":80,
			"componentType":5126,
			"count":288,
			"max":[
				1.5220474004745483,
				1.870627522468567,
				-0.3833038806915283
			],
			"min":[
				-1.2625088691711426,
				-1.4071139097213745,
				-1
			],
			"type":"VEC3"
		},
		{
			"bufferView":81,
			"componentType":5126,
			"count":288,
			"type":"VEC3"
		},
		{
			"bufferView":82,
			"componentType":5126,
			"count":288,
			"type":"VEC2"
		},
		{
			"bufferView":83,
			"componentType":5126,
			"count":288,
			"type":"VEC2"
		},
		{
			"bufferView":84,
			"componentType":5123,
			"count":564,
			"type":"SCALAR"
		}
	],
	"bufferViews":[
		{
			"buffer":0,
			"byteLength":8640,
			"byteOffset":0,
			"target":34962
		},
		{
			"buffer":0,
			"byteLength":8640,
			"byteOffset":8640,
			"target":34962
		},
		{
			"buffer":0,
			"byteLength":5760,
			"byteOffset":17280,
			"target":34962
		},
		{
			"buffer":0,
			"byteLength":5760,
			"byteOffset":23040,
			"target":34962
		},
		{
			"buffer":0,
			"byteLength":2280,
			"byteOffset":28800,
			"target":34963
		},
		{
			"buffer":0,
			"byteLength":788640,
			"byteOffset":31080,
			"target":34962
		},
		{
			"buffer":0,
			"byteLength":788640,
			"byteOffset":819720,
			"target":34962
		},
		{
			"buffer":0,
			"byteLength":525760,
			"byteOffset":1608360,
			"target":34962
		},
		{
			"buffer":0,
			"byteLength":788640,
			"byteOffset":2134120,
			"target":34962
		},
		{
			"buffer":0,
			"byteLength":1060236,
			"byteOffset":2922760,
			"target":34963
		},
		{
			"buffer":0,
			"byteLength":788880,
			"byteOffset":3982996,
			"target":34962
		},
		{
			"buffer":0,
			"byteLength":788880,
			"byteOffset":4771876,
			"target":34962
		},
		{
			"buffer":0,
			"byteLength":525920,
			"byteOffset":5560756,
			"target":34962
		},
		{
			"buffer":0,
			"byteLength":788880,
			"byteOffset":6086676,
			"target":34962
		},
		{
			"buffer":0,
			"byteLength":1138296,
			"byteOffset":6875556,
			"target":34963
		},
		{
			"buffer":0,
			"byteLength":788544,
			"byteOffset":8013852,
			"target":34962
		},
		{
			"buffer":0,
			"byteLength":788544,
			"byteOffset":8802396,
			"target":34962
		},
		{
			"buffer":0,
			"byteLength":525696,
			"byteOffset":9590940,
			"target":34962
		},
		{
			"buffer":0,
			"byteLength":788544,
			"byteOffset":10116636,
			"target":34962
		},
		{
			"buffer":0,
			"byteLength":1113528,
			"byteOffset":10905180,
			"target":34963
		},
		{
			"buffer":0,
			"byteLength":790188,
			"byteOffset":12018708,
			"target":34962
		},
		{
			"buffer":0,
			"byteLength":790188,
			"byteOffset":12808896,
			"target":34962
		},
		{
			"buffer":0,
			"byteLength":526792,
			"byteOffset":13599084,
			"target":34962
		},
		{
			"buffer":0,
			"byteLength":790188,
			"byteOffset":14125876,
			"target":34962
		},
		{
			"buffer":0,
			"byteLength":920496,
			"byteOffset":14916064,
			"target":34963
		},
		{
			"buffer":0,
			"byteLength":789168,
			"byteOffset":15836560,
			"target":34962
		},
		{
			"buffer":0,
			"byteLength":789168,
			"byteOffset":16625728,
			"target":34962
		},
		{
			"buffer":0,
			"byteLength":526112,
			"byteOffset":17414896,
			"target":34962
		},
		{
			"buffer":0,
			"byteLength":789168,
			"byteOffset":17941008,
			"target":34962
		},
		{
			"buffer":0,
			"byteLength":986124,
			"byteOffset":18730176,
			"target":34963
		},
		{
			"buffer":0,
			"byteLength":789900,
			"byteOffset":19716300,
			"target":34962
		},
		{
			"buffer":0,
			"byteLength":789900,
			"byteOffset":20506200,
			"target":34962
		},
		{
			"buffer":0,
			"byteLength":526600,
			"byteOffset":21296100,
			"target":34962
		},
		{
			"buffer":0,
			"byteLength":789900,
			"byteOffset":21822700,
			"target":34962
		},
		{
			"buffer":0,
			"byteLength":884700,
			"byteOffset":22612600,
			"target":34963
		},
		{
			"buffer":0,
			"byteLength":646392,
			"byteOffset":23497300,
			"target":34962
		},
		{
			"buffer":0,
			"byteLength":646392,
			"byteOffset":24143692,
			"target":34962
		},
		{
			"buffer":0,
			"byteLength":430928,
			"byteOffset":24790084,
			"target":34962
		},
		{
			"buffer":0,
			"byteLength":646392,
			"byteOffset":25221012,
			"target":34962
		},
		{
			"buffer":0,
			"byteLength":309552,
			"byteOffset":25867404,
			"target":34963
		},
		{
			"buffer":0,
			"byteLength":788664,
			"byteOffset":26176956,
			"target":34962
		},
		{
			"buffer":0,
			"byteLength":788664,
			"byteOffset":26965620,
			"target":34962
		},
		{
			"buffer":0,
			"byteLength":525776,
			"byteOffset":27754284,
			"target":34962
		},
		{
			"buffer":0,
			"byteLength":788664,
			"byteOffset":28280060,
			"target":34962
		},
		{
			"buffer":0,
			"byteLength":1264584,
			"byteOffset":29068724,
			"target":34963
		},
		{
			"buffer":0,
			"byteLength":788340,
			"byteOffset":30333308,
			"target":34962
		},
		{
			"buffer":0,
			"byteLength":788340,
			"byteOffset":31121648,
			"target":34962
		},
		{
			"buffer":0,
			"byteLength":525560,
			"byteOffset":31909988,
			"target":34962
		},
		{
			"buffer":0,
			"byteLength":788340,
			"byteOffset":32435548,
			"target":34962
		},
		{
			"buffer":0,
			"byteLength":1229004,
			"byteOffset":33223888,
			"target":34963
		},
		{
			"buffer":0,
			"byteLength":788304,
			"byteOffset":34452892,
			"target":34962
		},
		{
			"buffer":0,
			"byteLength":788304,
			"byteOffset":35241196,
			"target":34962
		},
		{
			"buffer":0,
			"byteLength":525536,
			"byteOffset":36029500,
			"target":34962
		},
		{
			"buffer":0,
			"byteLength":788304,
			"byteOffset":36555036,
			"target":34962
		},
		{
			"buffer":0,
			"byteLength":1192644,
			"byteOffset":37343340,
			"target":34963
		},
		{
			"buffer":0,
			"byteLength":787968,
			"byteOffset":38535984,
			"target":34962
		},
		{
			"buffer":0,
			"byteLength":787968,
			"byteOffset":39323952,
			"target":34962
		},
		{
			"buffer":0,
			"byteLength":525312,
			"byteOffset":40111920,
			"target":34962
		},
		{
			"buffer":0,
			"byteLength":787968,
			"byteOffset":40637232,
			"target":34962
		},
		{
			"buffer":0,
			"byteLength":1182036,
			"byteOffset":41425200,
			"target":34963
		},
		{
			"buffer":0,
			"byteLength":787752,
			"byteOffset":42607236,
			"target":34962
		},
		{
			"buffer":0,
			"byteLength":787752,
			"byteOffset":43394988,
			"target":34962
		},
		{
			"buffer":0,
			"byteLength":525168,
			"byteOffset":44182740,
			"target":34962
		},
		{
			"buffer":0,
			"byteLength":787752,
			"byteOffset":44707908,
			"target":34962
		},
		{
			"buffer":0,
			"byteLength":1215696,
			"byteOffset":45495660,
			"target":34963
		},
		{
			"buffer":0,
			"byteLength":787716,
			"byteOffset":46711356,
			"target":34962
		},
		{
			"buffer":0,
			"byteLength":787716,
			"byteOffset":47499072,
			"target":34962
		},
		{
			"buffer":0,
			"byteLength":525144,
			"byteOffset":48286788,
			"target":34962
		},
		{
			"buffer":0,
			"byteLength":787716,
			"byteOffset":48811932,
			"target":34962
		},
		{
			"buffer":0,
			"byteLength":1190844,
			"byteOffset":49599648,
			"target":34963
		},
		{
			"buffer":0,
			"byteLength":788436,
			"byteOffset":50790492,
			"target":34962
		},
		{
			"buffer":0,
			"byteLength":788436,
			"byteOffset":51578928,
			"target":34962
		},
		{
			"buffer":0,
			"byteLength":525624,
			"byteOffset":52367364,
			"target":34962
		},
		{
			"buffer":0,
			"byteLength":788436,
			"byteOffset":52892988,
			"target":34962
		},
		{
			"buffer":0,
			"byteLength":1114848,
			"byteOffset":53681424,
			"target":34963
		},
		{
			"buffer":0,
			"byteLength":788628,
			"byteOffset":54796272,
			"target":34962
		},
		{
			"buffer":0,
			"byteLength":788628,
			"byteOffset":55584900,
			"target":34962
		},
		{
			"buffer":0,
			"byteLength":525752,
			"byteOffset":56373528,
			"target":34962
		},
		{
			"buffer":0,
			"byteLength":788628,
			"byteOffset":56899280,
			"target":34962
		},
		{
			"buffer":0,
			"byteLength":1065996,
			"byteOffset":57687908,
			"target":34963
		},
		{
			"buffer":0,
			"byteLength":3456,
			"byteOffset":58753904,
			"target":34962
		},
		{
			"buffer":0,
			"byteLength":3456,
			"byteOffset":58757360,
			"target":34962
		},
		{
			"buffer":0,
			"byteLength":2304,
			"byteOffset":58760816,
			"target":34962
		},
		{
			"buffer":0,
			"byteLength":2304,
			"byteOffset":58763120,
			"target":34962
		},
		{
			"buffer":0,
			"byteLength":1128,
			"byteOffset":58765424,
			"target":34963
		}
	],
	"samplers":[
		{
			"magFilter":9729,
			"minFilter":9987
		}
	],
	"buffers":[
		{
			"byteLength":58766552,
			"uri":"Electric%20box.bin"
		}
	]
}
