{
	"asset":{
		"generator":"Khronos glTF Blender I/O v5.1.18",
		"version":"2.0"
	},
	"scene":0,
	"scenes":[
		{
			"name":"Scene",
			"nodes":[
				0,
				1,
				2,
				3,
				4,
				5,
				6,
				7,
				8,
				9,
				10,
				11,
				12,
				13,
				14
			]
		}
	],
	"nodes":[
		{
			"mesh":0,
			"name":"head",
			"rotation":[
				0,
				1,
				0,
				0.00013773048704024404
			],
			"scale":[
				0.514747679233551,
				0.514747679233551,
				0.514747679233551
			],
			"translation":[
				0,
				-0.04814565181732178,
				0.0219348706305027
			]
		},
		{
			"mesh":1,
			"name":"eyeRight",
			"rotation":[
				0,
				1,
				0,
				0.00013737284461967647
			],
			"scale":[
				0.514747679233551,
				0.514747679233551,
				0.514747679233551
			],
			"translation":[
				3.814697720372351e-06,
				-3.814697265625e-06,
				0
			]
		},
		{
			"mesh":2,
			"name":"eyeLeft",
			"rotation":[
				0,
				1,
				0,
				0.00013737284461967647
			],
			"scale":[
				0.514747679233551,
				0.514747679233551,
				0.514747679233551
			],
			"translation":[
				3.814697720372351e-06,
				-3.814697265625e-06,
				0
			]
		},
		{
			"mesh":3,
			"name":"Cube.004",
			"rotation":[
				0,
				1,
				0,
				0.00013737284461967647
			],
			"scale":[
				0.514747679233551,
				0.514747679233551,
				0.514747679233551
			],
			"translation":[
				3.814697720372351e-06,
				-3.814697265625e-06,
				0
			]
		},
		{
			"mesh":4,
			"name":"Cube.003",
			"rotation":[
				0,
				1,
				0,
				0.00013737284461967647
			],
			"scale":[
				0.514747679233551,
				0.514747679233551,
				0.514747679233551
			],
			"translation":[
				3.814697720372351e-06,
				-3.814697265625e-06,
				0
			]
		},
		{
			"mesh":5,
			"name":"Cube.002",
			"rotation":[
				0,
				1,
				0,
				0.00013737284461967647
			],
			"scale":[
				0.514747679233551,
				0.514747679233551,
				0.514747679233551
			],
			"translation":[
				3.814697720372351e-06,
				-3.814697265625e-06,
				0
			]
		},
		{
			"mesh":6,
			"name":"Cylinder.013",
			"rotation":[
				0,
				1,
				0,
				0.00013737284461967647
			],
			"scale":[
				0.07528755813837051,
				0.07528755813837051,
				0.07528755813837051
			],
			"translation":[
				3.814697720372351e-06,
				-3.814697265625e-06,
				0
			]
		},
		{
			"mesh":7,
			"name":"Cylinder.012",
			"rotation":[
				-0.70710688829422,
				0.7071066498756409,
				-9.705293632578105e-05,
				9.705295815365389e-05
			],
			"scale":[
				0.08993882685899734,
				0.08993882685899734,
				0.08993882685899734
			],
			"translation":[
				3.814697720372351e-06,
				-3.814697265625e-06,
				0
			]
		},
		{
			"mesh":8,
			"name":"Cylinder.007",
			"rotation":[
				0.70710688829422,
				0.7071066498756409,
				9.72215348156169e-05,
				9.722155664348975e-05
			],
			"scale":[
				0.12883806228637695,
				0.12883804738521576,
				0.12883804738521576
			],
			"translation":[
				3.814697720372351e-06,
				-3.814697265625e-06,
				0
			]
		},
		{
			"mesh":9,
			"name":"Cylinder.006",
			"rotation":[
				0.70710688829422,
				0.7071066498756409,
				9.722152753965929e-05,
				9.722154209157452e-05
			],
			"scale":[
				0.04619541019201279,
				0.04619541019201279,
				0.04619541019201279
			]
		},
		{
			"mesh":10,
			"name":"Sphere.004",
			"rotation":[
				0,
				1,
				0,
				0.00013737284461967647
			],
			"scale":[
				0.19902141392230988,
				0.19902141392230988,
				0.19902141392230988
			],
			"translation":[
				3.814697720372351e-06,
				-3.814697265625e-06,
				0
			]
		},
		{
			"mesh":11,
			"name":"Cylinder.005",
			"rotation":[
				0.7071069478988647,
				0.7071066498756409,
				9.722154936753213e-05,
				9.722157119540498e-05
			],
			"scale":[
				0.08609254658222198,
				0.08609253913164139,
				0.08609253913164139
			],
			"translation":[
				3.814697720372351e-06,
				-3.814697265625e-06,
				0
			]
		},
		{
			"mesh":12,
			"name":"Cylinder.002",
			"rotation":[
				0,
				1,
				0,
				0.00013737284461967647
			],
			"scale":[
				0.514747679233551,
				0.514747679233551,
				0.514747679233551
			],
			"translation":[
				3.814697720372351e-06,
				-3.814697265625e-06,
				0
			]
		},
		{
			"mesh":13,
			"name":"Cylinder.001",
			"rotation":[
				0,
				1,
				0,
				0.00013737284461967647
			],
			"scale":[
				0.514747679233551,
				0.514747679233551,
				0.514747679233551
			],
			"translation":[
				3.814697720372351e-06,
				-3.814697265625e-06,
				0
			]
		},
		{
			"mesh":14,
			"name":"Sphere.001",
			"rotation":[
				0,
				1,
				0,
				0.00013737284461967647
			],
			"scale":[
				0.06022287905216217,
				0.06022287905216217,
				0.06022287905216217
			],
			"translation":[
				3.814697720372351e-06,
				-3.814697265625e-06,
				0
			]
		}
	],
	"animations":[
		{
			"channels":[
				{
					"sampler":0,
					"target":{
						"node":0,
						"path":"translation"
					}
				},
				{
					"sampler":1,
					"target":{
						"node":0,
						"path":"rotation"
					}
				},
				{
					"sampler":2,
					"target":{
						"node":0,
						"path":"scale"
					}
				}
			],
			"name":"headAction",
			"samplers":[
				{
					"input":78,
					"interpolation":"LINEAR",
					"output":79
				},
				{
					"input":78,
					"interpolation":"LINEAR",
					"output":80
				},
				{
					"input":78,
					"interpolation":"LINEAR",
					"output":81
				}
			]
		},
		{
			"channels":[
				{
					"sampler":0,
					"target":{
						"node":1,
						"path":"translation"
					}
				},
				{
					"sampler":1,
					"target":{
						"node":1,
						"path":"rotation"
					}
				},
				{
					"sampler":2,
					"target":{
						"node":1,
						"path":"scale"
					}
				}
			],
			"name":"eyeRightAction",
			"samplers":[
				{
					"input":78,
					"interpolation":"LINEAR",
					"output":82
				},
				{
					"input":78,
					"interpolation":"LINEAR",
					"output":83
				},
				{
					"input":78,
					"interpolation":"LINEAR",
					"output":81
				}
			]
		},
		{
			"channels":[
				{
					"sampler":0,
					"target":{
						"node":2,
						"path":"translation"
					}
				},
				{
					"sampler":1,
					"target":{
						"node":2,
						"path":"rotation"
					}
				},
				{
					"sampler":2,
					"target":{
						"node":2,
						"path":"scale"
					}
				}
			],
			"name":"eyeLeftAction",
			"samplers":[
				{
					"input":78,
					"interpolation":"LINEAR",
					"output":82
				},
				{
					"input":78,
					"interpolation":"LINEAR",
					"output":83
				},
				{
					"input":78,
					"interpolation":"LINEAR",
					"output":81
				}
			]
		},
		{
			"channels":[
				{
					"sampler":0,
					"target":{
						"node":3,
						"path":"translation"
					}
				},
				{
					"sampler":1,
					"target":{
						"node":3,
						"path":"rotation"
					}
				},
				{
					"sampler":2,
					"target":{
						"node":3,
						"path":"scale"
					}
				}
			],
			"name":"Cube.004Action",
			"samplers":[
				{
					"input":78,
					"interpolation":"LINEAR",
					"output":82
				},
				{
					"input":78,
					"interpolation":"LINEAR",
					"output":83
				},
				{
					"input":78,
					"interpolation":"LINEAR",
					"output":81
				}
			]
		},
		{
			"channels":[
				{
					"sampler":0,
					"target":{
						"node":4,
						"path":"translation"
					}
				},
				{
					"sampler":1,
					"target":{
						"node":4,
						"path":"rotation"
					}
				},
				{
					"sampler":2,
					"target":{
						"node":4,
						"path":"scale"
					}
				}
			],
			"name":"Cube.003Action",
			"samplers":[
				{
					"input":78,
					"interpolation":"LINEAR",
					"output":82
				},
				{
					"input":78,
					"interpolation":"LINEAR",
					"output":83
				},
				{
					"input":78,
					"interpolation":"LINEAR",
					"output":81
				}
			]
		},
		{
			"channels":[
				{
					"sampler":0,
					"target":{
						"node":5,
						"path":"translation"
					}
				},
				{
					"sampler":1,
					"target":{
						"node":5,
						"path":"rotation"
					}
				},
				{
					"sampler":2,
					"target":{
						"node":5,
						"path":"scale"
					}
				}
			],
			"name":"Cube.002Action",
			"samplers":[
				{
					"input":78,
					"interpolation":"LINEAR",
					"output":82
				},
				{
					"input":78,
					"interpolation":"LINEAR",
					"output":83
				},
				{
					"input":78,
					"interpolation":"LINEAR",
					"output":81
				}
			]
		},
		{
			"channels":[
				{
					"sampler":0,
					"target":{
						"node":6,
						"path":"translation"
					}
				},
				{
					"sampler":1,
					"target":{
						"node":6,
						"path":"rotation"
					}
				},
				{
					"sampler":2,
					"target":{
						"node":6,
						"path":"scale"
					}
				}
			],
			"name":"Cylinder.013Action",
			"samplers":[
				{
					"input":78,
					"interpolation":"LINEAR",
					"output":82
				},
				{
					"input":78,
					"interpolation":"LINEAR",
					"output":83
				},
				{
					"input":78,
					"interpolation":"LINEAR",
					"output":84
				}
			]
		},
		{
			"channels":[
				{
					"sampler":0,
					"target":{
						"node":7,
						"path":"translation"
					}
				},
				{
					"sampler":1,
					"target":{
						"node":7,
						"path":"rotation"
					}
				},
				{
					"sampler":2,
					"target":{
						"node":7,
						"path":"scale"
					}
				}
			],
			"name":"Cylinder.012Action",
			"samplers":[
				{
					"input":78,
					"interpolation":"LINEAR",
					"output":82
				},
				{
					"input":78,
					"interpolation":"LINEAR",
					"output":85
				},
				{
					"input":78,
					"interpolation":"LINEAR",
					"output":86
				}
			]
		},
		{
			"channels":[
				{
					"sampler":0,
					"target":{
						"node":8,
						"path":"translation"
					}
				},
				{
					"sampler":1,
					"target":{
						"node":8,
						"path":"rotation"
					}
				},
				{
					"sampler":2,
					"target":{
						"node":8,
						"path":"scale"
					}
				}
			],
			"name":"Cylinder.007Action",
			"samplers":[
				{
					"input":78,
					"interpolation":"LINEAR",
					"output":82
				},
				{
					"input":78,
					"interpolation":"LINEAR",
					"output":87
				},
				{
					"input":78,
					"interpolation":"LINEAR",
					"output":88
				}
			]
		},
		{
			"channels":[
				{
					"sampler":0,
					"target":{
						"node":9,
						"path":"translation"
					}
				},
				{
					"sampler":1,
					"target":{
						"node":9,
						"path":"rotation"
					}
				},
				{
					"sampler":2,
					"target":{
						"node":9,
						"path":"scale"
					}
				}
			],
			"name":"Cylinder.006Action",
			"samplers":[
				{
					"input":78,
					"interpolation":"LINEAR",
					"output":89
				},
				{
					"input":78,
					"interpolation":"LINEAR",
					"output":90
				},
				{
					"input":78,
					"interpolation":"LINEAR",
					"output":91
				}
			]
		},
		{
			"channels":[
				{
					"sampler":0,
					"target":{
						"node":10,
						"path":"translation"
					}
				},
				{
					"sampler":1,
					"target":{
						"node":10,
						"path":"rotation"
					}
				},
				{
					"sampler":2,
					"target":{
						"node":10,
						"path":"scale"
					}
				}
			],
			"name":"Sphere.004Action",
			"samplers":[
				{
					"input":78,
					"interpolation":"LINEAR",
					"output":82
				},
				{
					"input":78,
					"interpolation":"LINEAR",
					"output":83
				},
				{
					"input":78,
					"interpolation":"LINEAR",
					"output":92
				}
			]
		},
		{
			"channels":[
				{
					"sampler":0,
					"target":{
						"node":11,
						"path":"translation"
					}
				},
				{
					"sampler":1,
					"target":{
						"node":11,
						"path":"rotation"
					}
				},
				{
					"sampler":2,
					"target":{
						"node":11,
						"path":"scale"
					}
				}
			],
			"name":"Cylinder.005Action",
			"samplers":[
				{
					"input":78,
					"interpolation":"LINEAR",
					"output":82
				},
				{
					"input":78,
					"interpolation":"LINEAR",
					"output":93
				},
				{
					"input":78,
					"interpolation":"LINEAR",
					"output":94
				}
			]
		},
		{
			"channels":[
				{
					"sampler":0,
					"target":{
						"node":12,
						"path":"translation"
					}
				},
				{
					"sampler":1,
					"target":{
						"node":12,
						"path":"rotation"
					}
				},
				{
					"sampler":2,
					"target":{
						"node":12,
						"path":"scale"
					}
				}
			],
			"name":"Cylinder.002Action",
			"samplers":[
				{
					"input":78,
					"interpolation":"LINEAR",
					"output":82
				},
				{
					"input":78,
					"interpolation":"LINEAR",
					"output":83
				},
				{
					"input":78,
					"interpolation":"LINEAR",
					"output":81
				}
			]
		},
		{
			"channels":[
				{
					"sampler":0,
					"target":{
						"node":13,
						"path":"translation"
					}
				},
				{
					"sampler":1,
					"target":{
						"node":13,
						"path":"rotation"
					}
				},
				{
					"sampler":2,
					"target":{
						"node":13,
						"path":"scale"
					}
				}
			],
			"name":"Cylinder.001Action",
			"samplers":[
				{
					"input":78,
					"interpolation":"LINEAR",
					"output":82
				},
				{
					"input":78,
					"interpolation":"LINEAR",
					"output":83
				},
				{
					"input":78,
					"interpolation":"LINEAR",
					"output":81
				}
			]
		},
		{
			"channels":[
				{
					"sampler":0,
					"target":{
						"node":14,
						"path":"translation"
					}
				},
				{
					"sampler":1,
					"target":{
						"node":14,
						"path":"rotation"
					}
				},
				{
					"sampler":2,
					"target":{
						"node":14,
						"path":"scale"
					}
				}
			],
			"name":"Sphere.001Action",
			"samplers":[
				{
					"input":78,
					"interpolation":"LINEAR",
					"output":82
				},
				{
					"input":78,
					"interpolation":"LINEAR",
					"output":83
				},
				{
					"input":78,
					"interpolation":"LINEAR",
					"output":95
				}
			]
		}
	],
	"materials":[
		{
			"doubleSided":true,
			"name":"Biela",
			"pbrMetallicRoughness":{
				"metallicFactor":0.688022255897522,
				"roughnessFactor":0.16573816537857056
			}
		},
		{
			"doubleSided":true,
			"name":"Black",
			"pbrMetallicRoughness":{
				"baseColorFactor":[
					0,
					0,
					0,
					1
				]
			}
		},
		{
			"doubleSided":true,
			"name":"eyes",
			"pbrMetallicRoughness":{
				"baseColorFactor":[
					1,
					1,
					0.21670618653297424,
					1
				],
				"metallicFactor":0,
				"roughnessFactor":0.5
			}
		},
		{
			"doubleSided":true,
			"name":"grey",
			"pbrMetallicRoughness":{
				"baseColorFactor":[
					0.0135650634765625,
					0.01692708395421505,
					0.0186411552131176,
					1
				],
				"metallicFactor":0.5069637894630432,
				"roughnessFactor":0.5
			}
		},
		{
			"doubleSided":true,
			"name":"Doormat.001",
			"normalTexture":{
				"index":0,
				"texCoord":1
			},
			"pbrMetallicRoughness":{
				"baseColorTexture":{
					"index":1,
					"texCoord":1
				},
				"metallicFactor":0,
				"metallicRoughnessTexture":{
					"index":2,
					"texCoord":1
				}
			}
		},
		{
			"doubleSided":true,
			"name":"Procedural curvature gun metal.001"
		},
		{
			"doubleSided":true,
			"name":"Procedural bleck material.001"
		}
	],
	"meshes":[
		{
			"name":"Cube.004",
			"primitives":[
				{
					"attributes":{
						"POSITION":0,
						"NORMAL":1,
						"TEXCOORD_0":2,
						"TEXCOORD_1":3
					},
					"indices":4,
					"material":0
				},
				{
					"attributes":{
						"POSITION":5,
						"NORMAL":6,
						"TEXCOORD_0":7,
						"TEXCOORD_1":8
					},
					"indices":9,
					"material":1
				}
			]
		},
		{
			"name":"Cube.001",
			"primitives":[
				{
					"attributes":{
						"POSITION":10,
						"NORMAL":11,
						"TEXCOORD_0":12
					},
					"indices":13,
					"material":2
				}
			]
		},
		{
			"name":"Cube.016",
			"primitives":[
				{
					"attributes":{
						"POSITION":14,
						"NORMAL":15,
						"TEXCOORD_0":16
					},
					"indices":17,
					"material":2
				}
			]
		},
		{
			"name":"Cube.003",
			"primitives":[
				{
					"attributes":{
						"POSITION":18,
						"NORMAL":19,
						"TEXCOORD_0":20
					},
					"indices":21,
					"material":0
				},
				{
					"attributes":{
						"POSITION":22,
						"NORMAL":23,
						"TEXCOORD_0":24
					},
					"indices":25,
					"material":1
				}
			]
		},
		{
			"name":"Cube.006",
			"primitives":[
				{
					"attributes":{
						"POSITION":26,
						"NORMAL":27,
						"TEXCOORD_0":28,
						"TEXCOORD_1":29
					},
					"indices":30,
					"material":3
				}
			]
		},
		{
			"name":"Cube.005",
			"primitives":[
				{
					"attributes":{
						"POSITION":31,
						"NORMAL":32,
						"TEXCOORD_0":33
					},
					"indices":34,
					"material":0
				}
			]
		},
		{
			"name":"Cylinder.009",
			"primitives":[
				{
					"attributes":{
						"POSITION":35,
						"NORMAL":36,
						"TEXCOORD_0":37
					},
					"indices":38,
					"material":3
				}
			]
		},
		{
			"name":"Cylinder.007",
			"primitives":[
				{
					"attributes":{
						"POSITION":39,
						"NORMAL":40,
						"TEXCOORD_0":41,
						"TEXCOORD_1":42
					},
					"indices":43,
					"material":4
				}
			]
		},
		{
			"name":"Cylinder.006",
			"primitives":[
				{
					"attributes":{
						"POSITION":44,
						"NORMAL":45,
						"TEXCOORD_0":46,
						"TEXCOORD_1":47,
						"COLOR_0":48,
						"COLOR_1":49
					},
					"indices":50,
					"material":3
				}
			]
		},
		{
			"name":"Cylinder.005",
			"primitives":[
				{
					"attributes":{
						"POSITION":51,
						"NORMAL":52,
						"TEXCOORD_0":53
					},
					"indices":54,
					"material":5
				}
			]
		},
		{
			"name":"Sphere.004",
			"primitives":[
				{
					"attributes":{
						"POSITION":55,
						"NORMAL":56,
						"TEXCOORD_0":57,
						"TEXCOORD_1":58
					},
					"indices":59,
					"material":1
				}
			]
		},
		{
			"name":"Cylinder.004",
			"primitives":[
				{
					"attributes":{
						"POSITION":60,
						"NORMAL":61,
						"TEXCOORD_0":62
					},
					"indices":63,
					"material":1
				}
			]
		},
		{
			"name":"Cylinder.003",
			"primitives":[
				{
					"attributes":{
						"POSITION":64,
						"NORMAL":65,
						"TEXCOORD_0":66,
						"TEXCOORD_1":67
					},
					"indices":68,
					"material":1
				}
			]
		},
		{
			"name":"Mesh",
			"primitives":[
				{
					"attributes":{
						"POSITION":69,
						"NORMAL":70,
						"TEXCOORD_0":71,
						"TEXCOORD_1":72
					},
					"indices":73,
					"material":1
				}
			]
		},
		{
			"name":"Sphere.001",
			"primitives":[
				{
					"attributes":{
						"POSITION":74,
						"NORMAL":75,
						"TEXCOORD_0":76
					},
					"indices":77,
					"material":6
				}
			]
		}
	],
	"textures":[
		{
			"sampler":0,
			"source":0
		},
		{
			"sampler":0,
			"source":1
		},
		{
			"sampler":0,
			"source":2
		}
	],
	"images":[
		{
			"mimeType":"image/jpeg",
			"name":"doormat-dirt_tile_normal",
			"uri":"textures/doormat-dirt_tile_normal.jpg"
		},
		{
			"mimeType":"image/jpeg",
			"name":"doormat-dirt_tile_basecolor",
			"uri":"textures/doormat-dirt_tile_basecolor.jpg"
		},
		{
			"mimeType":"image/png",
			"name":"doormat-dirt_tile_roughness",
			"uri":"textures/doormat-dirt_tile_roughness.png"
		}
	],
	"accessors":[
		{
			"bufferView":0,
			"componentType":5126,
			"count":36035,
			"max":[
				0.8085953593254089,
				1.8013144731521606,
				0.7166373133659363
			],
			"min":[
				-0.8085953593254089,
				0.4485098421573639,
				-0.9657303690910339
			],
			"type":"VEC3"
		},
		{
			"bufferView":1,
			"componentType":5126,
			"count":36035,
			"type":"VEC3"
		},
		{
			"bufferView":2,
			"componentType":5126,
			"count":36035,
			"type":"VEC2"
		},
		{
			"bufferView":3,
			"componentType":5126,
			"count":36035,
			"type":"VEC2"
		},
		{
			"bufferView":4,
			"componentType":5123,
			"count":184368,
			"type":"SCALAR"
		},
		{
			"bufferView":5,
			"componentType":5126,
			"count":1576,
			"max":[
				0.6243278980255127,
				0.9530995488166809,
				-0.8805907964706421
			],
			"min":[
				-0.6243278980255127,
				0.4788363575935364,
				-0.89284348487854
			],
			"type":"VEC3"
		},
		{
			"bufferView":6,
			"componentType":5126,
			"count":1576,
			"type":"VEC3"
		},
		{
			"bufferView":7,
			"componentType":5126,
			"count":1576,
			"type":"VEC2"
		},
		{
			"bufferView":8,
			"componentType":5126,
			"count":1576,
			"type":"VEC2"
		},
		{
			"bufferView":9,
			"componentType":5123,
			"count":8064,
			"type":"SCALAR"
		},
		{
			"bufferView":10,
			"componentType":5126,
			"count":5673,
			"max":[
				0.4976119101047516,
				0.8331155776977539,
				-0.7112042307853699
			],
			"min":[
				0.12031061202287674,
				0.6093904376029968,
				-0.9387215375900269
			],
			"type":"VEC3"
		},
		{
			"bufferView":11,
			"componentType":5126,
			"count":5673,
			"type":"VEC3"
		},
		{
			"bufferView":12,
			"componentType":5126,
			"count":5673,
			"type":"VEC2"
		},
		{
			"bufferView":13,
			"componentType":5123,
			"count":31488,
			"type":"SCALAR"
		},
		{
			"bufferView":14,
			"componentType":5126,
			"count":5658,
			"max":[
				-0.12033219635486603,
				0.8331155776977539,
				-0.7112042307853699
			],
			"min":[
				-0.4976334571838379,
				0.6093904376029968,
				-0.9387215375900269
			],
			"type":"VEC3"
		},
		{
			"bufferView":15,
			"componentType":5126,
			"count":5658,
			"type":"VEC3"
		},
		{
			"bufferView":16,
			"componentType":5126,
			"count":5658,
			"type":"VEC2"
		},
		{
			"bufferView":17,
			"componentType":5123,
			"count":31488,
			"type":"SCALAR"
		},
		{
			"bufferView":18,
			"componentType":5126,
			"count":23796,
			"max":[
				0.6229206323623657,
				0.5890724062919617,
				0.602105975151062
			],
			"min":[
				-0.6229206323623657,
				-0.7000371217727661,
				-0.5541998147964478
			],
			"type":"VEC3"
		},
		{
			"bufferView":19,
			"componentType":5126,
			"count":23796,
			"type":"VEC3"
		},
		{
			"bufferView":20,
			"componentType":5126,
			"count":23796,
			"type":"VEC2"
		},
		{
			"bufferView":21,
			"componentType":5123,
			"count":133632,
			"type":"SCALAR"
		},
		{
			"bufferView":22,
			"componentType":5126,
			"count":1900,
			"max":[
				0.5838223695755005,
				-0.47452443838119507,
				0.5963021516799927
			],
			"min":[
				-0.5838223695755005,
				-0.6485361456871033,
				-0.47857072949409485
			],
			"type":"VEC3"
		},
		{
			"bufferView":23,
			"componentType":5126,
			"count":1900,
			"type":"VEC3"
		},
		{
			"bufferView":24,
			"componentType":5126,
			"count":1900,
			"type":"VEC2"
		},
		{
			"bufferView":25,
			"componentType":5123,
			"count":9984,
			"type":"SCALAR"
		},
		{
			"bufferView":26,
			"componentType":5126,
			"count":28751,
			"max":[
				0.5610206127166748,
				0.5567574501037598,
				0.8755484223365784
			],
			"min":[
				-0.5610206127166748,
				-0.4708281457424164,
				0.4911710321903229
			],
			"type":"VEC3"
		},
		{
			"bufferView":27,
			"componentType":5126,
			"count":28751,
			"type":"VEC3"
		},
		{
			"bufferView":28,
			"componentType":5126,
			"count":28751,
			"type":"VEC2"
		},
		{
			"bufferView":29,
			"componentType":5126,
			"count":28751,
			"type":"VEC2"
		},
		{
			"bufferView":30,
			"componentType":5123,
			"count":155904,
			"type":"SCALAR"
		},
		{
			"bufferView":31,
			"componentType":5126,
			"count":16932,
			"max":[
				0.9465465545654297,
				0.4811045527458191,
				0.2911472022533417
			],
			"min":[
				-0.9465465545654297,
				-0.4335883557796478,
				-1.1024247407913208
			],
			"type":"VEC3"
		},
		{
			"bufferView":32,
			"componentType":5126,
			"count":16932,
			"type":"VEC3"
		},
		{
			"bufferView":33,
			"componentType":5126,
			"count":16932,
			"type":"VEC2"
		},
		{
			"bufferView":34,
			"componentType":5123,
			"count":93696,
			"type":"SCALAR"
		},
		{
			"bufferView":35,
			"componentType":5126,
			"count":23833,
			"max":[
				3.069887161254883,
				-2.627286911010742,
				3.569227457046509
			],
			"min":[
				-3.069887161254883,
				-6.01111364364624,
				-2.5550858974456787
			],
			"type":"VEC3"
		},
		{
			"bufferView":36,
			"componentType":5126,
			"count":23833,
			"type":"VEC3"
		},
		{
			"bufferView":37,
			"componentType":5126,
			"count":23833,
			"type":"VEC2"
		},
		{
			"bufferView":38,
			"componentType":5123,
			"count":125952,
			"type":"SCALAR"
		},
		{
			"bufferView":39,
			"componentType":5126,
			"count":17044,
			"max":[
				2.5862600803375244,
				4.044435501098633,
				-4.28291654586792
			],
			"min":[
				0.1866239607334137,
				-4.044435501098633,
				-6.682552814483643
			],
			"type":"VEC3"
		},
		{
			"bufferView":40,
			"componentType":5126,
			"count":17044,
			"type":"VEC3"
		},
		{
			"bufferView":41,
			"componentType":5126,
			"count":17044,
			"type":"VEC2"
		},
		{
			"bufferView":42,
			"componentType":5126,
			"count":17044,
			"type":"VEC2"
		},
		{
			"bufferView":43,
			"componentType":5123,
			"count":25908,
			"type":"SCALAR"
		},
		{
			"bufferView":44,
			"componentType":5126,
			"count":103182,
			"max":[
				0.11921566724777222,
				2.8775181770324707,
				-2.760951280593872
			],
			"min":[
				-2.0026705265045166,
				-2.8775181770324707,
				-4.3355793952941895
			],
			"type":"VEC3"
		},
		{
			"bufferView":45,
			"componentType":5126,
			"count":103182,
			"type":"VEC3"
		},
		{
			"bufferView":46,
			"componentType":5126,
			"count":103182,
			"type":"VEC2"
		},
		{
			"bufferView":47,
			"componentType":5126,
			"count":103182,
			"type":"VEC2"
		},
		{
			"bufferView":48,
			"componentType":5121,
			"count":103182,
			"normalized":true,
			"type":"VEC4"
		},
		{
			"bufferView":49,
			"componentType":5123,
			"count":103182,
			"normalized":true,
			"type":"VEC4"
		},
		{
			"bufferView":50,
			"componentType":5125,
			"count":548094,
			"type":"SCALAR"
		},
		{
			"bufferView":51,
			"componentType":5126,
			"count":77579,
			"max":[
				-1.6620758771896362,
				8.422847747802734,
				-9.687442779541016
			],
			"min":[
				-3.6492667198181152,
				-8.422847747802734,
				-11.674635887145996
			],
			"type":"VEC3"
		},
		{
			"bufferView":52,
			"componentType":5126,
			"count":77579,
			"type":"VEC3"
		},
		{
			"bufferView":53,
			"componentType":5126,
			"count":77579,
			"type":"VEC2"
		},
		{
			"bufferView":54,
			"componentType":5125,
			"count":135168,
			"type":"SCALAR"
		},
		{
			"bufferView":55,
			"componentType":5126,
			"count":35785,
			"max":[
				0.9872310161590576,
				-0.880140483379364,
				1.172152042388916
			],
			"min":[
				-0.9872305393218994,
				-2.875296115875244,
				-0.8023098707199097
			],
			"type":"VEC3"
		},
		{
			"bufferView":56,
			"componentType":5126,
			"count":35785,
			"type":"VEC3"
		},
		{
			"bufferView":57,
			"componentType":5126,
			"count":35785,
			"type":"VEC2"
		},
		{
			"bufferView":58,
			"componentType":5126,
			"count":35785,
			"type":"VEC2"
		},
		{
			"bufferView":59,
			"componentType":5123,
			"count":190464,
			"type":"SCALAR"
		},
		{
			"bufferView":60,
			"componentType":5126,
			"count":17490,
			"max":[
				2.1709349155426025,
				5.715342998504639,
				0.9328224658966064
			],
			"min":[
				-0.2846038043498993,
				-5.715342998504639,
				-1.5137211084365845
			],
			"type":"VEC3"
		},
		{
			"bufferView":61,
			"componentType":5126,
			"count":17490,
			"type":"VEC3"
		},
		{
			"bufferView":62,
			"componentType":5126,
			"count":17490,
			"type":"VEC2"
		},
		{
			"bufferView":63,
			"componentType":5123,
			"count":97152,
			"type":"SCALAR"
		},
		{
			"bufferView":64,
			"componentType":5126,
			"count":28178,
			"max":[
				0.14356926083564758,
				1.0050041675567627,
				0.1691611111164093
			],
			"min":[
				-0.14356926083564758,
				0.36183875799179077,
				-0.17486068606376648
			],
			"type":"VEC3"
		},
		{
			"bufferView":65,
			"componentType":5126,
			"count":28178,
			"type":"VEC3"
		},
		{
			"bufferView":66,
			"componentType":5126,
			"count":28178,
			"type":"VEC2"
		},
		{
			"bufferView":67,
			"componentType":5126,
			"count":28178,
			"type":"VEC2"
		},
		{
			"bufferView":68,
			"componentType":5123,
			"count":153600,
			"type":"SCALAR"
		},
		{
			"bufferView":69,
			"componentType":5126,
			"count":122768,
			"max":[
				0.27955931425094604,
				1.0873405933380127,
				0.23967650532722473
			],
			"min":[
				-0.27955931425094604,
				0.67010498046875,
				-0.3164054751396179
			],
			"type":"VEC3"
		},
		{
			"bufferView":70,
			"componentType":5126,
			"count":122768,
			"type":"VEC3"
		},
		{
			"bufferView":71,
			"componentType":5126,
			"count":122768,
			"type":"VEC2"
		},
		{
			"bufferView":72,
			"componentType":5126,
			"count":122768,
			"type":"VEC2"
		},
		{
			"bufferView":73,
			"componentType":5125,
			"count":215040,
			"type":"SCALAR"
		},
		{
			"bufferView":74,
			"componentType":5126,
			"count":82902,
			"max":[
				7.073217391967773,
				2.358309507369995,
				0.5427749156951904
			],
			"min":[
				-7.073217391967773,
				0.3631575107574463,
				-1.4316867589950562
			],
			"type":"VEC3"
		},
		{
			"bufferView":75,
			"componentType":5126,
			"count":82902,
			"type":"VEC3"
		},
		{
			"bufferView":76,
			"componentType":5126,
			"count":82902,
			"type":"VEC2"
		},
		{
			"bufferView":77,
			"componentType":5125,
			"count":464256,
			"type":"SCALAR"
		},
		{
			"bufferView":78,
			"componentType":5126,
			"count":1,
			"max":[
				0.041666666666666664
			],
			"min":[
				0.041666666666666664
			],
			"type":"SCALAR"
		},
		{
			"bufferView":79,
			"componentType":5126,
			"count":1,
			"type":"VEC3"
		},
		{
			"bufferView":80,
			"componentType":5126,
			"count":1,
			"type":"VEC4"
		},
		{
			"bufferView":81,
			"componentType":5126,
			"count":1,
			"type":"VEC3"
		},
		{
			"bufferView":82,
			"componentType":5126,
			"count":1,
			"type":"VEC3"
		},
		{
			"bufferView":83,
			"componentType":5126,
			"count":1,
			"type":"VEC4"
		},
		{
			"bufferView":84,
			"componentType":5126,
			"count":1,
			"type":"VEC3"
		},
		{
			"bufferView":85,
			"componentType":5126,
			"count":1,
			"type":"VEC4"
		},
		{
			"bufferView":86,
			"componentType":5126,
			"count":1,
			"type":"VEC3"
		},
		{
			"bufferView":87,
			"componentType":5126,
			"count":1,
			"type":"VEC4"
		},
		{
			"bufferView":88,
			"componentType":5126,
			"count":1,
			"type":"VEC3"
		},
		{
			"bufferView":89,
			"componentType":5126,
			"count":1,
			"type":"VEC3"
		},
		{
			"bufferView":90,
			"componentType":5126,
			"count":1,
			"type":"VEC4"
		},
		{
			"bufferView":91,
			"componentType":5126,
			"count":1,
			"type":"VEC3"
		},
		{
			"bufferView":92,
			"componentType":5126,
			"count":1,
			"type":"VEC3"
		},
		{
			"bufferView":93,
			"componentType":5126,
			"count":1,
			"type":"VEC4"
		},
		{
			"bufferView":94,
			"componentType":5126,
			"count":1,
			"type":"VEC3"
		},
		{
			"bufferView":95,
			"componentType":5126,
			"count":1,
			"type":"VEC3"
		}
	],
	"bufferViews":[
		{
			"buffer":0,
			"byteLength":432420,
			"byteOffset":0,
			"target":34962
		},
		{
			"buffer":0,
			"byteLength":432420,
			"byteOffset":432420,
			"target":34962
		},
		{
			"buffer":0,
			"byteLength":288280,
			"byteOffset":864840,
			"target":34962
		},
		{
			"buffer":0,
			"byteLength":288280,
			"byteOffset":1153120,
			"target":34962
		},
		{
			"buffer":0,
			"byteLength":368736,
			"byteOffset":1441400,
			"target":34963
		},
		{
			"buffer":0,
			"byteLength":18912,
			"byteOffset":1810136,
			"target":34962
		},
		{
			"buffer":0,
			"byteLength":18912,
			"byteOffset":1829048,
			"target":34962
		},
		{
			"buffer":0,
			"byteLength":12608,
			"byteOffset":1847960,
			"target":34962
		},
		{
			"buffer":0,
			"byteLength":12608,
			"byteOffset":1860568,
			"target":34962
		},
		{
			"buffer":0,
			"byteLength":16128,
			"byteOffset":1873176,
			"target":34963
		},
		{
			"buffer":0,
			"byteLength":68076,
			"byteOffset":1889304,
			"target":34962
		},
		{
			"buffer":0,
			"byteLength":68076,
			"byteOffset":1957380,
			"target":34962
		},
		{
			"buffer":0,
			"byteLength":45384,
			"byteOffset":2025456,
			"target":34962
		},
		{
			"buffer":0,
			"byteLength":62976,
			"byteOffset":2070840,
			"target":34963
		},
		{
			"buffer":0,
			"byteLength":67896,
			"byteOffset":2133816,
			"target":34962
		},
		{
			"buffer":0,
			"byteLength":67896,
			"byteOffset":2201712,
			"target":34962
		},
		{
			"buffer":0,
			"byteLength":45264,
			"byteOffset":2269608,
			"target":34962
		},
		{
			"buffer":0,
			"byteLength":62976,
			"byteOffset":2314872,
			"target":34963
		},
		{
			"buffer":0,
			"byteLength":285552,
			"byteOffset":2377848,
			"target":34962
		},
		{
			"buffer":0,
			"byteLength":285552,
			"byteOffset":2663400,
			"target":34962
		},
		{
			"buffer":0,
			"byteLength":190368,
			"byteOffset":2948952,
			"target":34962
		},
		{
			"buffer":0,
			"byteLength":267264,
			"byteOffset":3139320,
			"target":34963
		},
		{
			"buffer":0,
			"byteLength":22800,
			"byteOffset":3406584,
			"target":34962
		},
		{
			"buffer":0,
			"byteLength":22800,
			"byteOffset":3429384,
			"target":34962
		},
		{
			"buffer":0,
			"byteLength":15200,
			"byteOffset":3452184,
			"target":34962
		},
		{
			"buffer":0,
			"byteLength":19968,
			"byteOffset":3467384,
			"target":34963
		},
		{
			"buffer":0,
			"byteLength":345012,
			"byteOffset":3487352,
			"target":34962
		},
		{
			"buffer":0,
			"byteLength":345012,
			"byteOffset":3832364,
			"target":34962
		},
		{
			"buffer":0,
			"byteLength":230008,
			"byteOffset":4177376,
			"target":34962
		},
		{
			"buffer":0,
			"byteLength":230008,
			"byteOffset":4407384,
			"target":34962
		},
		{
			"buffer":0,
			"byteLength":311808,
			"byteOffset":4637392,
			"target":34963
		},
		{
			"buffer":0,
			"byteLength":203184,
			"byteOffset":4949200,
			"target":34962
		},
		{
			"buffer":0,
			"byteLength":203184,
			"byteOffset":5152384,
			"target":34962
		},
		{
			"buffer":0,
			"byteLength":135456,
			"byteOffset":5355568,
			"target":34962
		},
		{
			"buffer":0,
			"byteLength":187392,
			"byteOffset":5491024,
			"target":34963
		},
		{
			"buffer":0,
			"byteLength":285996,
			"byteOffset":5678416,
			"target":34962
		},
		{
			"buffer":0,
			"byteLength":285996,
			"byteOffset":5964412,
			"target":34962
		},
		{
			"buffer":0,
			"byteLength":190664,
			"byteOffset":6250408,
			"target":34962
		},
		{
			"buffer":0,
			"byteLength":251904,
			"byteOffset":6441072,
			"target":34963
		},
		{
			"buffer":0,
			"byteLength":204528,
			"byteOffset":6692976,
			"target":34962
		},
		{
			"buffer":0,
			"byteLength":204528,
			"byteOffset":6897504,
			"target":34962
		},
		{
			"buffer":0,
			"byteLength":136352,
			"byteOffset":7102032,
			"target":34962
		},
		{
			"buffer":0,
			"byteLength":136352,
			"byteOffset":7238384,
			"target":34962
		},
		{
			"buffer":0,
			"byteLength":51816,
			"byteOffset":7374736,
			"target":34963
		},
		{
			"buffer":0,
			"byteLength":1238184,
			"byteOffset":7426552,
			"target":34962
		},
		{
			"buffer":0,
			"byteLength":1238184,
			"byteOffset":8664736,
			"target":34962
		},
		{
			"buffer":0,
			"byteLength":825456,
			"byteOffset":9902920,
			"target":34962
		},
		{
			"buffer":0,
			"byteLength":825456,
			"byteOffset":10728376,
			"target":34962
		},
		{
			"buffer":0,
			"byteLength":412728,
			"byteOffset":11553832,
			"target":34962
		},
		{
			"buffer":0,
			"byteLength":825456,
			"byteOffset":11966560,
			"target":34962
		},
		{
			"buffer":0,
			"byteLength":2192376,
			"byteOffset":12792016,
			"target":34963
		},
		{
			"buffer":0,
			"byteLength":930948,
			"byteOffset":14984392,
			"target":34962
		},
		{
			"buffer":0,
			"byteLength":930948,
			"byteOffset":15915340,
			"target":34962
		},
		{
			"buffer":0,
			"byteLength":620632,
			"byteOffset":16846288,
			"target":34962
		},
		{
			"buffer":0,
			"byteLength":540672,
			"byteOffset":17466920,
			"target":34963
		},
		{
			"buffer":0,
			"byteLength":429420,
			"byteOffset":18007592,
			"target":34962
		},
		{
			"buffer":0,
			"byteLength":429420,
			"byteOffset":18437012,
			"target":34962
		},
		{
			"buffer":0,
			"byteLength":286280,
			"byteOffset":18866432,
			"target":34962
		},
		{
			"buffer":0,
			"byteLength":286280,
			"byteOffset":19152712,
			"target":34962
		},
		{
			"buffer":0,
			"byteLength":380928,
			"byteOffset":19438992,
			"target":34963
		},
		{
			"buffer":0,
			"byteLength":209880,
			"byteOffset":19819920,
			"target":34962
		},
		{
			"buffer":0,
			"byteLength":209880,
			"byteOffset":20029800,
			"target":34962
		},
		{
			"buffer":0,
			"byteLength":139920,
			"byteOffset":20239680,
			"target":34962
		},
		{
			"buffer":0,
			"byteLength":194304,
			"byteOffset":20379600,
			"target":34963
		},
		{
			"buffer":0,
			"byteLength":338136,
			"byteOffset":20573904,
			"target":34962
		},
		{
			"buffer":0,
			"byteLength":338136,
			"byteOffset":20912040,
			"target":34962
		},
		{
			"buffer":0,
			"byteLength":225424,
			"byteOffset":21250176,
			"target":34962
		},
		{
			"buffer":0,
			"byteLength":225424,
			"byteOffset":21475600,
			"target":34962
		},
		{
			"buffer":0,
			"byteLength":307200,
			"byteOffset":21701024,
			"target":34963
		},
		{
			"buffer":0,
			"byteLength":1473216,
			"byteOffset":22008224,
			"target":34962
		},
		{
			"buffer":0,
			"byteLength":1473216,
			"byteOffset":23481440,
			"target":34962
		},
		{
			"buffer":0,
			"byteLength":982144,
			"byteOffset":24954656,
			"target":34962
		},
		{
			"buffer":0,
			"byteLength":982144,
			"byteOffset":25936800,
			"target":34962
		},
		{
			"buffer":0,
			"byteLength":860160,
			"byteOffset":26918944,
			"target":34963
		},
		{
			"buffer":0,
			"byteLength":994824,
			"byteOffset":27779104,
			"target":34962
		},
		{
			"buffer":0,
			"byteLength":994824,
			"byteOffset":28773928,
			"target":34962
		},
		{
			"buffer":0,
			"byteLength":663216,
			"byteOffset":29768752,
			"target":34962
		},
		{
			"buffer":0,
			"byteLength":1857024,
			"byteOffset":30431968,
			"target":34963
		},
		{
			"buffer":0,
			"byteLength":4,
			"byteOffset":32288992
		},
		{
			"buffer":0,
			"byteLength":12,
			"byteOffset":32288996
		},
		{
			"buffer":0,
			"byteLength":16,
			"byteOffset":32289008
		},
		{
			"buffer":0,
			"byteLength":12,
			"byteOffset":32289024
		},
		{
			"buffer":0,
			"byteLength":12,
			"byteOffset":32289036
		},
		{
			"buffer":0,
			"byteLength":16,
			"byteOffset":32289048
		},
		{
			"buffer":0,
			"byteLength":12,
			"byteOffset":32289064
		},
		{
			"buffer":0,
			"byteLength":16,
			"byteOffset":32289076
		},
		{
			"buffer":0,
			"byteLength":12,
			"byteOffset":32289092
		},
		{
			"buffer":0,
			"byteLength":16,
			"byteOffset":32289104
		},
		{
			"buffer":0,
			"byteLength":12,
			"byteOffset":32289120
		},
		{
			"buffer":0,
			"byteLength":12,
			"byteOffset":32289132
		},
		{
			"buffer":0,
			"byteLength":16,
			"byteOffset":32289144
		},
		{
			"buffer":0,
			"byteLength":12,
			"byteOffset":32289160
		},
		{
			"buffer":0,
			"byteLength":12,
			"byteOffset":32289172
		},
		{
			"buffer":0,
			"byteLength":16,
			"byteOffset":32289184
		},
		{
			"buffer":0,
			"byteLength":12,
			"byteOffset":32289200
		},
		{
			"buffer":0,
			"byteLength":12,
			"byteOffset":32289212
		}
	],
	"samplers":[
		{
			"magFilter":9729,
			"minFilter":9987
		}
	],
	"buffers":[
		{
			"byteLength":32289224,
			"uri":"bobot.bin"
		}
	]
}
