{
	"asset":{
		"generator":"Khronos glTF Blender I/O v5.0.21",
		"version":"2.0"
	},
	"extensionsUsed":[
		"KHR_materials_specular",
		"KHR_texture_transform"
	],
	"extensionsRequired":[
		"KHR_texture_transform"
	],
	"scene":0,
	"scenes":[
		{
			"name":"Scene",
			"nodes":[
				0,
				1,
				2,
				3,
				4,
				5,
				6,
				7,
				8,
				9,
				10,
				11
			]
		}
	],
	"nodes":[
		{
			"mesh":0,
			"name":"Floor",
			"scale":[
				9.120868682861328,
				1,
				7.32212495803833
			]
		},
		{
			"mesh":1,
			"name":"Floor.001",
			"scale":[
				9.120868682861328,
				1,
				7.32212495803833
			]
		},
		{
			"mesh":2,
			"name":"Old abandoned bed",
			"translation":[
				-8.193828582763672,
				-0.0019076857715845108,
				-5.890150547027588
			]
		},
		{
			"mesh":3,
			"name":"Cube",
			"translation":[
				-6.408336639404297,
				2.5248475074768066,
				6.99364709854126
			]
		},
		{
			"mesh":4,
			"name":"Cube.001",
			"scale":[
				0.5249439477920532,
				0.5249439477920532,
				0.5249439477920532
			],
			"translation":[
				-0.41018274426460266,
				2.799318313598633,
				7.204453468322754
			]
		},
		{
			"mesh":5,
			"name":"Cube.002",
			"translation":[
				0.10179896652698517,
				1.2409520149230957,
				0.1120268851518631
			]
		},
		{
			"mesh":6,
			"name":"Cube.003",
			"translation":[
				8.216851234436035,
				1.477418065071106,
				-6.044821262359619
			]
		},
		{
			"mesh":7,
			"name":"Cube.004",
			"translation":[
				8.885845184326172,
				3.817436933517456,
				-6.197419166564941
			]
		},
		{
			"mesh":8,
			"name":"Cube.005",
			"scale":[
				1,
				1,
				2.0136234760284424
			],
			"translation":[
				8.76795482635498,
				0.9467909336090088,
				0
			]
		},
		{
			"mesh":9,
			"name":"Cube.006",
			"translation":[
				8.808947563171387,
				3.251775026321411,
				0
			]
		},
		{
			"mesh":10,
			"name":"Cube.007",
			"scale":[
				1.6078184843063354,
				1,
				1
			],
			"translation":[
				5.708612442016602,
				0.8892273306846619,
				6.522112846374512
			]
		},
		{
			"mesh":11,
			"name":"Cube.008",
			"translation":[
				5.8371262550354,
				3.77232027053833,
				7.710063934326172
			]
		}
	],
	"materials":[
		{
			"doubleSided":true,
			"name":"Old Wood Floor",
			"pbrMetallicRoughness":{
				"baseColorTexture":{
					"extensions":{
						"KHR_texture_transform":{
							"offset":[
								0,
								-1
							],
							"scale":[
								4,
								2
							]
						}
					},
					"index":0,
					"texCoord":1
				},
				"metallicFactor":0,
				"metallicRoughnessTexture":{
					"extensions":{
						"KHR_texture_transform":{
							"offset":[
								0,
								-1
							],
							"scale":[
								4,
								2
							]
						}
					},
					"index":1,
					"texCoord":1
				}
			}
		},
		{
			"doubleSided":true,
			"extensions":{
				"KHR_materials_specular":{
					"specularFactor":0.20000000298023224
				}
			},
			"name":"Painted Plaster Wall",
			"pbrMetallicRoughness":{
				"baseColorTexture":{
					"extensions":{
						"KHR_texture_transform":{
							"offset":[
								0,
								0.8999999985098839
							],
							"scale":[
								1,
								0.10000000149011612
							]
						}
					},
					"index":2,
					"texCoord":1
				},
				"metallicFactor":0,
				"metallicRoughnessTexture":{
					"extensions":{
						"KHR_texture_transform":{
							"offset":[
								0,
								0.8999999985098839
							],
							"scale":[
								1,
								0.10000000149011612
							]
						}
					},
					"index":3,
					"texCoord":1
				}
			}
		},
		{
			"doubleSided":true,
			"name":"bed",
			"pbrMetallicRoughness":{
				"baseColorTexture":{
					"index":4
				},
				"metallicRoughnessTexture":{
					"index":5
				}
			}
		},
		{
			"doubleSided":true,
			"name":"Material.003",
			"normalTexture":{
				"index":6
			},
			"pbrMetallicRoughness":{
				"baseColorTexture":{
					"index":7
				},
				"metallicRoughnessTexture":{
					"index":8
				}
			}
		},
		{
			"doubleSided":true,
			"name":"Material.005",
			"pbrMetallicRoughness":{
				"baseColorFactor":[
					0,
					0,
					0,
					1
				],
				"metallicFactor":0,
				"roughnessFactor":0.5
			}
		}
	],
	"meshes":[
		{
			"name":"Plane.001",
			"primitives":[
				{
					"attributes":{
						"POSITION":0,
						"NORMAL":1,
						"TEXCOORD_0":2,
						"TEXCOORD_1":3
					},
					"indices":4,
					"material":0
				}
			]
		},
		{
			"name":"Plane.002",
			"primitives":[
				{
					"attributes":{
						"POSITION":5,
						"NORMAL":6,
						"TEXCOORD_0":7,
						"TEXCOORD_1":8
					},
					"indices":9,
					"material":1
				}
			]
		},
		{
			"name":"bed.001",
			"primitives":[
				{
					"attributes":{
						"POSITION":10,
						"NORMAL":11,
						"TEXCOORD_0":12,
						"COLOR_0":13,
						"COLOR_1":14
					},
					"indices":15,
					"material":2
				},
				{
					"attributes":{
						"POSITION":16,
						"NORMAL":17,
						"TEXCOORD_0":18,
						"COLOR_0":19,
						"COLOR_1":20
					},
					"indices":21,
					"material":3
				}
			]
		},
		{
			"name":"Cube.001",
			"primitives":[
				{
					"attributes":{
						"POSITION":22,
						"NORMAL":23,
						"TEXCOORD_0":24
					},
					"indices":25,
					"material":4
				}
			]
		},
		{
			"name":"Cube.002",
			"primitives":[
				{
					"attributes":{
						"POSITION":26,
						"NORMAL":27,
						"TEXCOORD_0":28
					},
					"indices":25
				}
			]
		},
		{
			"name":"Cube.003",
			"primitives":[
				{
					"attributes":{
						"POSITION":29,
						"NORMAL":30,
						"TEXCOORD_0":31
					},
					"indices":25
				}
			]
		},
		{
			"name":"Cube.004",
			"primitives":[
				{
					"attributes":{
						"POSITION":32,
						"NORMAL":33,
						"TEXCOORD_0":34
					},
					"indices":25
				}
			]
		},
		{
			"name":"Cube.005",
			"primitives":[
				{
					"attributes":{
						"POSITION":35,
						"NORMAL":36,
						"TEXCOORD_0":37
					},
					"indices":25
				}
			]
		},
		{
			"name":"Cube.006",
			"primitives":[
				{
					"attributes":{
						"POSITION":38,
						"NORMAL":39,
						"TEXCOORD_0":40
					},
					"indices":25
				}
			]
		},
		{
			"name":"Cube.007",
			"primitives":[
				{
					"attributes":{
						"POSITION":41,
						"NORMAL":42,
						"TEXCOORD_0":43
					},
					"indices":25
				}
			]
		},
		{
			"name":"Cube.008",
			"primitives":[
				{
					"attributes":{
						"POSITION":44,
						"NORMAL":45,
						"TEXCOORD_0":46
					},
					"indices":25
				}
			]
		},
		{
			"name":"Cube.009",
			"primitives":[
				{
					"attributes":{
						"POSITION":47,
						"NORMAL":48,
						"TEXCOORD_0":49
					},
					"indices":25
				}
			]
		}
	],
	"textures":[
		{
			"sampler":0,
			"source":0
		},
		{
			"sampler":0,
			"source":1
		},
		{
			"sampler":0,
			"source":2
		},
		{
			"sampler":0,
			"source":3
		},
		{
			"sampler":0,
			"source":4
		},
		{
			"sampler":0,
			"source":5
		},
		{
			"sampler":0,
			"source":6
		},
		{
			"sampler":0,
			"source":7
		},
		{
			"sampler":0,
			"source":8
		}
	],
	"images":[
		{
			"mimeType":"image/jpeg",
			"name":"Parquet_Trials_basecolor",
			"uri":"Parquet_Trials_basecolor.jpg"
		},
		{
			"mimeType":"image/png",
			"name":"Parquet_Trials_roughness",
			"uri":"Parquet_Trials_roughness.png"
		},
		{
			"mimeType":"image/jpeg",
			"name":"painted_plaster_wall_16_color",
			"uri":"painted_plaster_wall_16_color.jpg"
		},
		{
			"mimeType":"image/png",
			"name":"painted_plaster_wall_16_roughness",
			"uri":"painted_plaster_wall_16_roughness.png"
		},
		{
			"mimeType":"image/jpeg",
			"name":"bed_albedo",
			"uri":"bed_albedo.jpg"
		},
		{
			"mimeType":"image/png",
			"name":"bed_metallic-bed_roughness",
			"uri":"bed_metallic-bed_roughness.png"
		},
		{
			"mimeType":"image/jpeg",
			"name":"Material.001_Normal",
			"uri":"Material.001_Normal.jpg"
		},
		{
			"mimeType":"image/jpeg",
			"name":"Material.001_Base_color",
			"uri":"Material.001_Base_color.jpg"
		},
		{
			"mimeType":"image/png",
			"name":"Material.001_Metallic.jpg-Material.001_Roughness.jpg",
			"uri":"Material.001_Metallic.jpg-Material.001_Roughness.jpg.png"
		}
	],
	"accessors":[
		{
			"bufferView":0,
			"componentType":5126,
			"count":4,
			"max":[
				0.9832256436347961,
				0,
				0.9832256436347961
			],
			"min":[
				-0.9832256436347961,
				0,
				-0.9832256436347961
			],
			"type":"VEC3"
		},
		{
			"bufferView":1,
			"componentType":5126,
			"count":4,
			"type":"VEC3"
		},
		{
			"bufferView":2,
			"componentType":5126,
			"count":4,
			"type":"VEC2"
		},
		{
			"bufferView":3,
			"componentType":5126,
			"count":4,
			"type":"VEC2"
		},
		{
			"bufferView":4,
			"componentType":5123,
			"count":6,
			"type":"SCALAR"
		},
		{
			"bufferView":5,
			"componentType":5126,
			"count":72,
			"max":[
				0.9902967214584351,
				5.953652858734131,
				0.9902967214584351
			],
			"min":[
				-0.9902967214584351,
				0,
				-0.9902967214584351
			],
			"type":"VEC3"
		},
		{
			"bufferView":6,
			"componentType":5126,
			"count":72,
			"type":"VEC3"
		},
		{
			"bufferView":7,
			"componentType":5126,
			"count":72,
			"type":"VEC2"
		},
		{
			"bufferView":8,
			"componentType":5126,
			"count":72,
			"type":"VEC2"
		},
		{
			"bufferView":9,
			"componentType":5123,
			"count":144,
			"type":"SCALAR"
		},
		{
			"bufferView":10,
			"componentType":5126,
			"count":9282,
			"max":[
				0.5320215821266174,
				1.5655721426010132,
				1.1666347980499268
			],
			"min":[
				-0.5317135453224182,
				-4.398077726364136e-05,
				-1.1703115701675415
			],
			"type":"VEC3"
		},
		{
			"bufferView":11,
			"componentType":5126,
			"count":9282,
			"type":"VEC3"
		},
		{
			"bufferView":12,
			"componentType":5126,
			"count":9282,
			"type":"VEC2"
		},
		{
			"bufferView":13,
			"componentType":5121,
			"count":9282,
			"normalized":true,
			"type":"VEC4"
		},
		{
			"bufferView":14,
			"componentType":5123,
			"count":9282,
			"normalized":true,
			"type":"VEC4"
		},
		{
			"bufferView":15,
			"componentType":5123,
			"count":29172,
			"type":"SCALAR"
		},
		{
			"bufferView":16,
			"componentType":5126,
			"count":14660,
			"max":[
				0.63031405210495,
				0.7269918918609619,
				1.122375249862671
			],
			"min":[
				-0.592483401298523,
				0.46368175745010376,
				-1.133618712425232
			],
			"type":"VEC3"
		},
		{
			"bufferView":17,
			"componentType":5126,
			"count":14660,
			"type":"VEC3"
		},
		{
			"bufferView":18,
			"componentType":5126,
			"count":14660,
			"type":"VEC2"
		},
		{
			"bufferView":19,
			"componentType":5121,
			"count":14660,
			"normalized":true,
			"type":"VEC4"
		},
		{
			"bufferView":20,
			"componentType":5123,
			"count":14660,
			"normalized":true,
			"type":"VEC4"
		},
		{
			"bufferView":21,
			"componentType":5123,
			"count":79506,
			"type":"SCALAR"
		},
		{
			"bufferView":22,
			"componentType":5126,
			"count":24,
			"max":[
				1,
				1,
				1
			],
			"min":[
				-1,
				-1,
				-1
			],
			"type":"VEC3"
		},
		{
			"bufferView":23,
			"componentType":5126,
			"count":24,
			"type":"VEC3"
		},
		{
			"bufferView":24,
			"componentType":5126,
			"count":24,
			"type":"VEC2"
		},
		{
			"bufferView":25,
			"componentType":5123,
			"count":36,
			"type":"SCALAR"
		},
		{
			"bufferView":26,
			"componentType":5126,
			"count":24,
			"max":[
				1,
				1,
				1
			],
			"min":[
				-1,
				-1,
				-1
			],
			"type":"VEC3"
		},
		{
			"bufferView":27,
			"componentType":5126,
			"count":24,
			"type":"VEC3"
		},
		{
			"bufferView":28,
			"componentType":5126,
			"count":24,
			"type":"VEC2"
		},
		{
			"bufferView":29,
			"componentType":5126,
			"count":24,
			"max":[
				1,
				1,
				1
			],
			"min":[
				-1,
				-1,
				-1
			],
			"type":"VEC3"
		},
		{
			"bufferView":30,
			"componentType":5126,
			"count":24,
			"type":"VEC3"
		},
		{
			"bufferView":31,
			"componentType":5126,
			"count":24,
			"type":"VEC2"
		},
		{
			"bufferView":32,
			"componentType":5126,
			"count":24,
			"max":[
				1,
				1,
				1
			],
			"min":[
				-1,
				-1,
				-1
			],
			"type":"VEC3"
		},
		{
			"bufferView":33,
			"componentType":5126,
			"count":24,
			"type":"VEC3"
		},
		{
			"bufferView":34,
			"componentType":5126,
			"count":24,
			"type":"VEC2"
		},
		{
			"bufferView":35,
			"componentType":5126,
			"count":24,
			"max":[
				1,
				1,
				1
			],
			"min":[
				-1,
				-1,
				-1
			],
			"type":"VEC3"
		},
		{
			"bufferView":36,
			"componentType":5126,
			"count":24,
			"type":"VEC3"
		},
		{
			"bufferView":37,
			"componentType":5126,
			"count":24,
			"type":"VEC2"
		},
		{
			"bufferView":38,
			"componentType":5126,
			"count":24,
			"max":[
				1,
				1,
				1
			],
			"min":[
				-1,
				-1,
				-1
			],
			"type":"VEC3"
		},
		{
			"bufferView":39,
			"componentType":5126,
			"count":24,
			"type":"VEC3"
		},
		{
			"bufferView":40,
			"componentType":5126,
			"count":24,
			"type":"VEC2"
		},
		{
			"bufferView":41,
			"componentType":5126,
			"count":24,
			"max":[
				1,
				1,
				1
			],
			"min":[
				-1,
				-1,
				-1
			],
			"type":"VEC3"
		},
		{
			"bufferView":42,
			"componentType":5126,
			"count":24,
			"type":"VEC3"
		},
		{
			"bufferView":43,
			"componentType":5126,
			"count":24,
			"type":"VEC2"
		},
		{
			"bufferView":44,
			"componentType":5126,
			"count":24,
			"max":[
				1,
				1,
				1
			],
			"min":[
				-1,
				-1,
				-1
			],
			"type":"VEC3"
		},
		{
			"bufferView":45,
			"componentType":5126,
			"count":24,
			"type":"VEC3"
		},
		{
			"bufferView":46,
			"componentType":5126,
			"count":24,
			"type":"VEC2"
		},
		{
			"bufferView":47,
			"componentType":5126,
			"count":24,
			"max":[
				1,
				1,
				1
			],
			"min":[
				-1,
				-1,
				-1
			],
			"type":"VEC3"
		},
		{
			"bufferView":48,
			"componentType":5126,
			"count":24,
			"type":"VEC3"
		},
		{
			"bufferView":49,
			"componentType":5126,
			"count":24,
			"type":"VEC2"
		}
	],
	"bufferViews":[
		{
			"buffer":0,
			"byteLength":48,
			"byteOffset":0,
			"target":34962
		},
		{
			"buffer":0,
			"byteLength":48,
			"byteOffset":48,
			"target":34962
		},
		{
			"buffer":0,
			"byteLength":32,
			"byteOffset":96,
			"target":34962
		},
		{
			"buffer":0,
			"byteLength":32,
			"byteOffset":128,
			"target":34962
		},
		{
			"buffer":0,
			"byteLength":12,
			"byteOffset":160,
			"target":34963
		},
		{
			"buffer":0,
			"byteLength":864,
			"byteOffset":172,
			"target":34962
		},
		{
			"buffer":0,
			"byteLength":864,
			"byteOffset":1036,
			"target":34962
		},
		{
			"buffer":0,
			"byteLength":576,
			"byteOffset":1900,
			"target":34962
		},
		{
			"buffer":0,
			"byteLength":576,
			"byteOffset":2476,
			"target":34962
		},
		{
			"buffer":0,
			"byteLength":288,
			"byteOffset":3052,
			"target":34963
		},
		{
			"buffer":0,
			"byteLength":111384,
			"byteOffset":3340,
			"target":34962
		},
		{
			"buffer":0,
			"byteLength":111384,
			"byteOffset":114724,
			"target":34962
		},
		{
			"buffer":0,
			"byteLength":74256,
			"byteOffset":226108,
			"target":34962
		},
		{
			"buffer":0,
			"byteLength":37128,
			"byteOffset":300364,
			"target":34962
		},
		{
			"buffer":0,
			"byteLength":74256,
			"byteOffset":337492,
			"target":34962
		},
		{
			"buffer":0,
			"byteLength":58344,
			"byteOffset":411748,
			"target":34963
		},
		{
			"buffer":0,
			"byteLength":175920,
			"byteOffset":470092,
			"target":34962
		},
		{
			"buffer":0,
			"byteLength":175920,
			"byteOffset":646012,
			"target":34962
		},
		{
			"buffer":0,
			"byteLength":117280,
			"byteOffset":821932,
			"target":34962
		},
		{
			"buffer":0,
			"byteLength":58640,
			"byteOffset":939212,
			"target":34962
		},
		{
			"buffer":0,
			"byteLength":117280,
			"byteOffset":997852,
			"target":34962
		},
		{
			"buffer":0,
			"byteLength":159012,
			"byteOffset":1115132,
			"target":34963
		},
		{
			"buffer":0,
			"byteLength":288,
			"byteOffset":1274144,
			"target":34962
		},
		{
			"buffer":0,
			"byteLength":288,
			"byteOffset":1274432,
			"target":34962
		},
		{
			"buffer":0,
			"byteLength":192,
			"byteOffset":1274720,
			"target":34962
		},
		{
			"buffer":0,
			"byteLength":72,
			"byteOffset":1274912,
			"target":34963
		},
		{
			"buffer":0,
			"byteLength":288,
			"byteOffset":1274984,
			"target":34962
		},
		{
			"buffer":0,
			"byteLength":288,
			"byteOffset":1275272,
			"target":34962
		},
		{
			"buffer":0,
			"byteLength":192,
			"byteOffset":1275560,
			"target":34962
		},
		{
			"buffer":0,
			"byteLength":288,
			"byteOffset":1275752,
			"target":34962
		},
		{
			"buffer":0,
			"byteLength":288,
			"byteOffset":1276040,
			"target":34962
		},
		{
			"buffer":0,
			"byteLength":192,
			"byteOffset":1276328,
			"target":34962
		},
		{
			"buffer":0,
			"byteLength":288,
			"byteOffset":1276520,
			"target":34962
		},
		{
			"buffer":0,
			"byteLength":288,
			"byteOffset":1276808,
			"target":34962
		},
		{
			"buffer":0,
			"byteLength":192,
			"byteOffset":1277096,
			"target":34962
		},
		{
			"buffer":0,
			"byteLength":288,
			"byteOffset":1277288,
			"target":34962
		},
		{
			"buffer":0,
			"byteLength":288,
			"byteOffset":1277576,
			"target":34962
		},
		{
			"buffer":0,
			"byteLength":192,
			"byteOffset":1277864,
			"target":34962
		},
		{
			"buffer":0,
			"byteLength":288,
			"byteOffset":1278056,
			"target":34962
		},
		{
			"buffer":0,
			"byteLength":288,
			"byteOffset":1278344,
			"target":34962
		},
		{
			"buffer":0,
			"byteLength":192,
			"byteOffset":1278632,
			"target":34962
		},
		{
			"buffer":0,
			"byteLength":288,
			"byteOffset":1278824,
			"target":34962
		},
		{
			"buffer":0,
			"byteLength":288,
			"byteOffset":1279112,
			"target":34962
		},
		{
			"buffer":0,
			"byteLength":192,
			"byteOffset":1279400,
			"target":34962
		},
		{
			"buffer":0,
			"byteLength":288,
			"byteOffset":1279592,
			"target":34962
		},
		{
			"buffer":0,
			"byteLength":288,
			"byteOffset":1279880,
			"target":34962
		},
		{
			"buffer":0,
			"byteLength":192,
			"byteOffset":1280168,
			"target":34962
		},
		{
			"buffer":0,
			"byteLength":288,
			"byteOffset":1280360,
			"target":34962
		},
		{
			"buffer":0,
			"byteLength":288,
			"byteOffset":1280648,
			"target":34962
		},
		{
			"buffer":0,
			"byteLength":192,
			"byteOffset":1280936,
			"target":34962
		}
	],
	"samplers":[
		{
			"magFilter":9729,
			"minFilter":9987
		}
	],
	"buffers":[
		{
			"byteLength":1281128,
			"uri":"BROKEN.bin"
		}
	]
}
